<svg width="100" height="101" viewBox="0 0 100 101" fill="none" xmlns="http://www.w3.org/2000/svg">
<g opacity="0.2">
<path d="M56.25 18.1147H45.3125C36.6969 18.1147 29.6875 25.1241 29.6875 33.7397V45.2741C28.7266 46.3726 28.125 47.7929 28.125 49.3647C28.125 52.8116 30.9281 55.6147 34.375 55.6147H34.6906C35.5953 60.0491 38.3906 63.796 42.1875 66.0007V68.4976L31.9625 71.4194C25.1031 73.3788 20.3125 79.7304 20.3125 86.8647V97.8022C20.3125 98.6663 21.0125 99.3647 21.875 99.3647H78.125C78.9875 99.3647 79.6875 98.6663 79.6875 97.8022V86.8647C79.6875 79.7304 74.8969 73.3788 68.0375 71.4194L57.8125 68.4976V66.0007C61.6094 63.796 64.4062 60.0491 65.3094 55.6147H65.625C69.0719 55.6147 71.875 52.8116 71.875 49.3647C71.875 47.7944 71.2734 46.3741 70.3125 45.2741V32.1757C70.3125 28.3585 67.5578 25.171 63.9313 24.496C63.2563 20.8694 60.0687 18.1147 56.25 18.1147ZM31.25 49.3647C31.25 47.6413 32.6516 46.2397 34.375 46.2397V52.4897C32.6516 52.4897 31.25 51.0882 31.25 49.3647ZM56.4047 71.3476L60.5578 72.5351L56.25 76.8429L52.6375 73.2304L56.4047 71.3476ZM48.2891 83.7397H51.7109L52.9594 96.2397H47.0375L48.2891 83.7397ZM52.1594 80.6147H47.8406L46.6922 78.3194L50 75.0116L53.3078 78.3194L52.1594 80.6147ZM43.75 76.8429L39.4422 72.5335L43.5953 71.346L47.3625 73.2288L43.75 76.8429ZM23.4375 86.8647C23.4375 81.1179 27.2953 76.0038 32.8203 74.4257L36.0047 73.5163L42.6453 80.1569C42.9375 80.4507 43.3359 80.6147 43.75 80.6147C43.9375 80.6147 44.1203 80.571 44.2922 80.5069L45.275 82.4726L43.8969 96.2397H32.8125V88.4272H29.6875V96.2397H23.4375V86.8647ZM76.5625 86.8647V96.2397H70.3125V88.4272H67.1875V96.2397H56.1L54.725 82.4726L55.7078 80.5069C55.8797 80.571 56.0625 80.6147 56.25 80.6147C56.6641 80.6147 57.0625 80.4507 57.3547 80.1569L63.9953 73.5163L67.1797 74.4257C72.7047 76.0038 76.5625 81.1179 76.5625 86.8647ZM54.6875 68.7116L50 71.0554L45.3125 68.7116V67.3944C46.7938 67.8601 48.3672 68.1147 50 68.1147C51.6328 68.1147 53.2062 67.8601 54.6875 67.3944V68.7116ZM62.5 52.4897C62.5 59.3819 56.8922 64.9897 50 64.9897C43.1078 64.9897 37.5 59.3819 37.5 52.4897V44.6772H44.7109C49.6875 44.6772 54.175 42.096 56.6781 37.9397L62.5 43.7616V52.4897ZM65.625 52.4897V46.2397C67.3484 46.2397 68.75 47.6413 68.75 49.3647C68.75 51.0882 67.3484 52.4897 65.625 52.4897ZM67.1875 32.1757V43.3366C66.6844 43.2054 66.1672 43.1147 65.625 43.1147C65.625 42.6991 65.4609 42.3022 65.1672 42.0101L57.3547 34.1976C56.9844 33.8272 56.4516 33.6694 55.9359 33.7726C55.4219 33.8772 54.9937 34.2351 54.8 34.7226C53.1391 38.871 49.1797 41.5522 44.7109 41.5522H35.9375C35.075 41.5522 34.375 42.2507 34.375 43.1147C33.8328 43.1147 33.3156 43.2054 32.8125 43.3366V33.7397C32.8125 26.8476 38.4203 21.2397 45.3125 21.2397H56.25C58.8344 21.2397 60.9375 23.3429 60.9375 25.9272C60.9375 26.7913 61.6375 27.4897 62.5 27.4897C65.0859 27.4897 67.1875 29.5929 67.1875 32.1757Z" fill="#E0545F"/>
<path d="M31.5563 11.896L24.5735 10.4991L21.761 3.47256C21.5235 2.87881 20.95 2.48975 20.311 2.48975C19.6719 2.48975 19.0969 2.87881 18.8594 3.47256L16.05 10.4991L9.06878 11.896C8.50316 12.0085 8.04691 12.4226 7.87972 12.9741C7.71253 13.5272 7.86253 14.1241 8.27035 14.5319L12.3672 18.6288L10.9688 25.621C10.8469 26.2288 11.0953 26.8491 11.6 27.2054C12.1047 27.5616 12.7735 27.5866 13.3047 27.2679L20.3125 23.0616L27.3203 27.2663C27.5688 27.4163 27.8469 27.4897 28.125 27.4897C28.4407 27.4897 28.7563 27.3929 29.025 27.2038C29.5297 26.8476 29.7782 26.2272 29.6563 25.6194L28.2578 18.6272L32.3547 14.5304C32.7625 14.1226 32.9125 13.5241 32.7453 12.9726C32.5782 12.4226 32.1219 12.0085 31.5563 11.896ZM25.4578 17.0101C25.0891 17.3788 24.9282 17.9085 25.0313 18.421L25.9016 22.7694L21.1172 19.8991C20.8688 19.7522 20.5907 19.6772 20.3125 19.6772C20.0344 19.6772 19.7563 19.7522 19.5078 19.9007L14.7235 22.771L15.5938 18.4226C15.6969 17.9101 15.536 17.3804 15.1672 17.0116L12.5438 14.3866L17.4938 13.396C18.011 13.2929 18.4422 12.9351 18.6375 12.4444L20.3125 8.2585L21.9875 12.4444C22.1828 12.9351 22.6141 13.2929 23.1313 13.396L28.0813 14.3866L25.4578 17.0101Z" fill="#E0545F"/>
<path d="M21.0703 55.3913C21.3188 55.5413 21.5969 55.6147 21.875 55.6147C22.1907 55.6147 22.5063 55.5179 22.775 55.3288C23.2797 54.9726 23.5282 54.3522 23.4063 53.7444L22.0078 46.7522L26.1047 42.6554C26.5125 42.2476 26.6625 41.6491 26.4953 41.0976C26.3282 40.546 25.8719 40.1319 25.3063 40.0194L18.3235 38.6226L15.511 31.596C15.2735 31.0038 14.7 30.6147 14.061 30.6147C13.4219 30.6147 12.8469 31.0038 12.6094 31.5976L9.80003 38.6241L2.81878 40.021C2.25472 40.1335 1.79691 40.5491 1.62972 41.0991C1.46253 41.6522 1.61253 42.2491 2.02035 42.6569L6.11722 46.7538L4.71878 53.746C4.59691 54.3538 4.84535 54.9741 5.35003 55.3304C5.85628 55.6866 6.52347 55.7116 7.05472 55.3929L14.0625 51.1866L21.0703 55.3913ZM8.47503 50.8944L9.34535 46.546C9.44847 46.0335 9.28753 45.5038 8.91878 45.1351L6.29535 42.5116L11.2453 41.521C11.7625 41.4179 12.1938 41.0601 12.3891 40.5694L14.0625 36.3835L15.7375 40.5694C15.9328 41.0601 16.3641 41.4179 16.8813 41.521L21.8313 42.5116L19.2078 45.1351C18.8391 45.5038 18.6782 46.0335 18.7813 46.546L19.6516 50.8944L14.8672 48.0241C14.6188 47.8772 14.3407 47.8022 14.0625 47.8022C13.7844 47.8022 13.5063 47.8772 13.2578 48.0257L8.47503 50.8944Z" fill="#E0545F"/>
<path d="M92.1203 12.9741C91.9532 12.4226 91.4969 12.0085 90.9313 11.896L83.9485 10.4991L81.1407 3.47256C80.9032 2.87881 80.3282 2.48975 79.6891 2.48975C79.05 2.48975 78.4766 2.87881 78.2391 3.47256L75.4266 10.4991L68.4438 11.896C67.8797 12.0085 67.4219 12.4241 67.2547 12.9741C67.0875 13.5272 67.2375 14.1241 67.6453 14.5319L71.7422 18.6288L70.3438 25.621C70.2219 26.2288 70.4703 26.8491 70.975 27.2054C71.4813 27.5616 72.1485 27.5866 72.6797 27.2679L79.6875 23.0616L86.6953 27.2663C86.9438 27.4163 87.2219 27.4897 87.5 27.4897C87.8157 27.4897 88.1313 27.3929 88.4 27.2038C88.9047 26.8476 89.1532 26.2272 89.0313 25.6194L87.6328 18.6272L91.7297 14.5304C92.1375 14.1241 92.2875 13.5257 92.1203 12.9741ZM84.8328 17.0101C84.4641 17.3788 84.3032 17.9085 84.4063 18.421L85.2766 22.7694L80.4922 19.8991C80.2438 19.7522 79.9657 19.6772 79.6875 19.6772C79.4094 19.6772 79.1313 19.7522 78.8828 19.9007L74.0985 22.771L74.9688 18.4226C75.0719 17.9101 74.911 17.3804 74.5422 17.0116L71.9188 14.3882L76.8688 13.3976C77.386 13.2944 77.8157 12.9366 78.0125 12.446L79.6875 8.2585L81.361 12.4444C81.5563 12.9351 81.9875 13.2929 82.5047 13.396L87.4547 14.3866L84.8328 17.0101Z" fill="#E0545F"/>
<path d="M97.1813 40.021L90.1985 38.6241L87.3891 31.5976C87.1532 31.0038 86.5782 30.6147 85.9391 30.6147C85.3 30.6147 84.7266 31.0038 84.4891 31.5976L81.6766 38.6241L74.6938 40.021C74.1297 40.1335 73.6719 40.5491 73.5047 41.0991C73.3375 41.6522 73.4875 42.2491 73.8953 42.6569L77.9922 46.7538L76.5938 53.746C76.4719 54.3538 76.7203 54.9741 77.225 55.3304C77.7297 55.6866 78.3985 55.7116 78.9297 55.3929L85.9375 51.1866L92.9453 55.3913C93.1938 55.5413 93.4719 55.6147 93.75 55.6147C94.0657 55.6147 94.3813 55.5179 94.65 55.3288C95.1547 54.9726 95.4032 54.3522 95.2813 53.7444L93.8828 46.7522L97.9797 42.6554C98.3875 42.2476 98.5375 41.6491 98.3703 41.0976C98.2032 40.5476 97.7469 40.1335 97.1813 40.021ZM91.0828 45.1351C90.7141 45.5038 90.5532 46.0335 90.6563 46.546L91.5266 50.8944L86.7422 48.0241C86.4938 47.8772 86.2157 47.8022 85.9375 47.8022C85.6594 47.8022 85.3813 47.8772 85.1328 48.0257L80.3485 50.896L81.2188 46.5476C81.3219 46.0351 81.161 45.5054 80.7922 45.1366L78.1688 42.5132L83.1188 41.5226C83.636 41.4194 84.0657 41.0616 84.2625 40.571L85.9375 36.3835L87.611 40.5694C87.8063 41.0601 88.2375 41.4179 88.7547 41.521L93.7047 42.5116L91.0828 45.1351Z" fill="#E0545F"/>
</g>
</svg>
