<svg width="60" height="61" viewBox="0 0 60 61" fill="none" xmlns="http://www.w3.org/2000/svg">
<path d="M0 30.9272C0 44.0272 8.4 55.1272 20 59.2272V2.6272C8.4 6.7272 0 17.8272 0 30.9272Z" fill="#ED4C5C"/>
<path d="M30 0.927246C26.5 0.927246 23.1 1.52725 20 2.62725V20.9272H58.3C54.2 9.32725 43.1 0.927246 30 0.927246Z" fill="#699635"/>
<path d="M58.3 20.9272H20V40.9272H58.3C59.4 37.8272 60 34.4272 60 30.9272C60 27.4272 59.4 24.0272 58.3 20.9272Z" fill="#F9F9F9"/>
<path d="M20 40.9272V59.2272C23.1 60.3272 26.5 60.9272 30 60.9272C43.1 60.9272 54.2 52.6272 58.3 40.9272H20Z" fill="#3E4347"/>
</svg>
