<svg width="169" height="45" viewBox="0 0 169 45" fill="none" xmlns="http://www.w3.org/2000/svg">
<path d="M153.197 19.1807V29.3947C153.197 31.4887 154.816 32.9267 156.966 32.9267C159.151 32.9267 160.735 31.1507 160.735 29.3947C160.735 27.6607 159.22 25.8647 156.966 25.8647C156.423 25.8647 155.914 25.9567 155.451 26.1107C155.243 25.6787 154.527 24.1087 154.399 23.8107C155.225 23.53 156.093 23.3913 156.966 23.4007C160.943 23.4007 163.891 26.1607 163.891 29.3947C163.891 32.7727 160.735 35.4107 156.966 35.4107C153.139 35.4107 150.064 32.7407 150.064 29.3947V19.1817L153.197 19.1807ZM141.747 23.4007C142.29 23.4007 142.776 23.4407 143.238 23.5337L143.493 23.5747C143.574 23.5947 143.678 23.6157 143.747 23.6467C146.591 24.3757 148.672 26.6747 148.672 29.4157C148.672 29.5797 148.649 29.7337 148.649 29.8977C148.605 30.3446 148.5 30.7833 148.337 31.2017C147.181 30.6987 145.898 30.4517 144.533 30.4517C143.169 30.4517 141.886 30.6987 140.683 31.1817V28.5117C141.933 28.1911 143.219 28.0292 144.51 28.0297C144.741 28.0297 144.949 28.0497 145.181 28.0497C144.695 27.0757 143.458 26.1407 141.747 26.1407C139.666 26.1407 137.978 27.6197 137.978 29.4257C137.978 31.2527 139.724 32.6797 141.747 32.6797C142.799 32.6797 143.701 32.3617 144.441 31.7047L146.591 33.7787C145.389 34.7847 143.689 35.4207 141.735 35.4207C137.839 35.4207 134.833 32.6907 134.833 29.4257C134.833 26.0587 137.92 23.4007 141.747 23.4007ZM107.132 19.4587H110.138V28.8407C110.138 30.9147 112.034 32.7307 114.52 32.7307C116.959 32.7307 118.902 31.0067 118.902 28.8407V19.4587H121.908V28.8407C121.908 30.9147 123.78 32.7307 126.266 32.7307C128.705 32.7307 130.648 31.0067 130.648 28.8407V19.4587H133.654V28.8407C133.654 32.5257 130.301 35.4107 126.266 35.4107C123.873 35.4107 121.757 34.4247 120.405 32.8237C119.029 34.4357 116.913 35.4107 114.52 35.4107C110.427 35.4107 107.132 32.4847 107.132 28.8407V19.4587ZM98.2307 23.4007C98.7747 23.4007 99.2607 23.4407 99.7227 23.5337L99.9767 23.5747C100.058 23.5947 100.162 23.6157 100.231 23.6467C103.076 24.3757 105.157 26.6747 105.157 29.4157C105.157 29.5797 105.133 29.7337 105.133 29.8977C105.089 30.3446 104.984 30.7833 104.821 31.2017C103.665 30.6987 102.382 30.4517 101.018 30.4517C99.6993 30.4447 98.392 30.6926 97.1677 31.1817V28.5117C98.4181 28.1911 99.7039 28.0291 100.995 28.0297C101.226 28.0297 101.434 28.0497 101.665 28.0497C101.18 27.0757 99.9427 26.1407 98.2307 26.1407C96.1507 26.1407 94.4617 27.6197 94.4617 29.4257C94.4617 31.2527 96.2077 32.6797 98.2317 32.6797C99.2837 32.6797 100.185 32.3617 100.925 31.7047C101.469 32.2287 102.393 33.1217 103.076 33.7787C101.873 34.7847 100.174 35.4207 98.2197 35.4207C94.3237 35.4207 91.3177 32.6907 91.3177 29.4257C91.3177 26.0587 94.4047 23.4007 98.2307 23.4007ZM86.6147 35.4107V19.4587H89.7707V35.4107H86.6147ZM79.0537 21.7077H82.1867V25.3717H84.0367V28.1017H82.1867V30.4527C82.1867 31.6647 83.3197 32.6597 84.6727 32.6597H85.4477V35.3897H84.6727C81.5627 35.3897 79.0537 33.1117 79.0537 30.3817V21.7077ZM71.4897 21.7077H74.6227V25.3717H76.4727V28.1017H74.6227V30.4527C74.6227 31.6647 75.7557 32.6597 77.1077 32.6597H77.8827V35.3897H77.1077C73.9977 35.3897 71.4897 33.1117 71.4897 30.3817V21.7077ZM69.6497 24.0157V35.4107H66.5167V24.0157H69.6497Z" fill="#595857"/>
<path fill-rule="evenodd" clip-rule="evenodd" d="M69.9798 20.2081L67.8228 22.0701L66.1298 20.5241L68.2868 18.6621L69.9798 20.2081Z" fill="#F09926"/>
<path d="M54.9327 19.4795H58.0657V28.4295C58.0657 30.9145 60.6097 32.6185 63.7657 32.6185H65.2797V35.4005H63.5577C58.7827 35.4005 54.9327 32.3505 54.9327 28.5635V19.4795Z" fill="#595857"/>
<path d="M60.6337 14.3023C59.6537 14.3023 58.7667 14.0873 57.9737 13.6583C57.2082 13.2375 56.5699 12.6186 56.1257 11.8663C55.6777 11.1013 55.4537 10.2423 55.4537 9.29032C55.4537 8.33832 55.6777 7.48432 56.1257 6.72832C56.5673 5.96917 57.2122 5.3485 57.9877 4.93632C58.7807 4.49732 59.6677 4.27832 60.6477 4.27832C61.4127 4.27832 62.1127 4.40832 62.7477 4.67032C63.3712 4.91446 63.9278 5.30312 64.3717 5.80432L63.4617 6.68632C62.7247 5.91132 61.8047 5.52432 60.7037 5.52432C59.9757 5.52432 59.3177 5.68732 58.7297 6.01432C58.1417 6.34132 57.6797 6.79432 57.3437 7.37232C57.0131 7.95685 56.844 8.61883 56.8537 9.29032C56.8537 10.0003 57.0167 10.6433 57.3437 11.2223C57.6755 11.7875 58.1546 12.252 58.7297 12.5663C59.3177 12.8933 59.9757 13.0563 60.7037 13.0563C61.7957 13.0563 62.7147 12.6643 63.4617 11.8803L64.3717 12.7623C63.9225 13.2672 63.3616 13.6603 62.7337 13.9103C62.0663 14.1778 61.3527 14.311 60.6337 14.3023ZM68.9397 14.2743C68.2027 14.2743 67.5397 14.1113 66.9517 13.7843C66.3766 13.47 65.8975 13.0055 65.5657 12.4403C65.2397 11.8613 65.0757 11.2083 65.0757 10.4803C65.0757 9.75232 65.2397 9.10332 65.5657 8.53432C65.8922 7.9649 66.3725 7.49908 66.9517 7.19032C67.5397 6.86332 68.2027 6.70032 68.9397 6.70032C69.6777 6.70032 70.3357 6.86332 70.9137 7.19032C71.4908 7.49702 71.9672 7.96367 72.2857 8.53432C72.6217 9.10432 72.7897 9.75232 72.7897 10.4803C72.7897 11.2083 72.6217 11.8613 72.2857 12.4403C71.9619 13.0068 71.4868 13.4722 70.9137 13.7843C70.3357 14.1113 69.6777 14.2743 68.9397 14.2743ZM68.9397 13.0983C69.4157 13.0983 69.8407 12.9913 70.2137 12.7763C70.5919 12.5568 70.902 12.237 71.1097 11.8523C71.3298 11.429 71.4405 10.9573 71.4317 10.4803C71.4317 9.96732 71.3247 9.51432 71.1097 9.12232C70.9074 8.73368 70.596 8.41255 70.2137 8.19832C69.8252 7.97976 69.3854 7.86861 68.9397 7.87632C68.4637 7.87632 68.0347 7.98332 67.6517 8.19832C67.2736 8.41786 66.9635 8.73763 66.7557 9.12232C66.5417 9.51432 66.4337 9.96732 66.4337 10.4803C66.4337 10.9933 66.5417 11.4503 66.7557 11.8523C66.9797 12.2443 67.2787 12.5523 67.6517 12.7763C68.0347 12.9913 68.4637 13.0983 68.9397 13.0983ZM78.6667 10.3263C79.1617 10.4563 79.5437 10.6663 79.8147 10.9563C80.0847 11.2463 80.2207 11.6053 80.2207 12.0343C80.2207 12.4733 80.0707 12.8643 79.7727 13.2103C79.4737 13.5463 79.0587 13.8123 78.5267 14.0083C78.0037 14.1953 77.4167 14.2883 76.7627 14.2883C76.2127 14.2883 75.6707 14.2183 75.1387 14.0783C74.6426 13.941 74.1705 13.7286 73.7387 13.4483L74.1447 12.4263C74.4997 12.6503 74.9047 12.8273 75.3627 12.9583C75.8149 13.0788 76.2808 13.1399 76.7487 13.1403C77.3837 13.1403 77.8877 13.0333 78.2607 12.8183C78.6437 12.5943 78.8347 12.2953 78.8347 11.9223C78.8347 11.5773 78.6807 11.3113 78.3727 11.1243C78.0737 10.9373 77.6497 10.8443 77.0987 10.8443H75.7407V9.87832H77.0007C77.5047 9.87832 77.9007 9.78932 78.1907 9.61232C78.4807 9.43532 78.6247 9.19232 78.6247 8.88432C78.6247 8.54832 78.4517 8.28732 78.1067 8.10032C77.7707 7.91332 77.3137 7.82032 76.7347 7.82032C75.9977 7.82032 75.2177 8.01132 74.3967 8.39432L74.0327 7.35832C74.9122 6.90724 75.8864 6.67209 76.8747 6.67232C77.4717 6.67232 78.0087 6.75632 78.4847 6.92432C78.9607 7.09232 79.3347 7.33032 79.6047 7.63832C79.8747 7.94632 80.0107 8.29632 80.0107 8.68832C80.0107 9.05232 79.8897 9.37832 79.6467 9.66832C79.4037 9.95832 79.0767 10.1773 78.6667 10.3263ZM89.3197 6.77032V13.1823C89.3197 14.4793 88.9977 15.4363 88.3537 16.0523C87.7097 16.6773 86.7487 16.9903 85.4697 16.9903C84.7697 16.9903 84.1027 16.8923 83.4677 16.6963C82.8337 16.5093 82.3197 16.2393 81.9277 15.8843L82.5717 14.8483C82.9177 15.1473 83.3417 15.3803 83.8457 15.5483C84.3545 15.7246 84.8892 15.8145 85.4277 15.8143C86.2957 15.8143 86.9357 15.6093 87.3457 15.1983C87.7657 14.7883 87.9757 14.1623 87.9757 13.3223V12.7343C87.6608 13.1156 87.2569 13.4137 86.7997 13.6023C86.3427 13.7893 85.8437 13.8823 85.3017 13.8823C84.631 13.8913 83.9681 13.7376 83.3697 13.4343C82.8144 13.1395 82.3498 12.6991 82.0257 12.1603C81.6997 11.6103 81.5357 10.9843 81.5357 10.2843C81.5357 9.58432 81.6997 8.96432 82.0257 8.42232C82.3527 7.87232 82.8007 7.44732 83.3697 7.14832C83.9681 6.84504 84.631 6.69132 85.3017 6.70032C85.8617 6.70032 86.3797 6.80332 86.8557 7.00832C87.3417 7.21332 87.7377 7.51732 88.0457 7.91832V6.77032H89.3197ZM85.4557 12.7063C85.9417 12.7063 86.3757 12.6033 86.7577 12.3983C87.1497 12.1933 87.4537 11.9083 87.6677 11.5443C87.8939 11.1634 88.0102 10.7273 88.0037 10.2843C88.0037 9.56532 87.7657 8.98732 87.2897 8.54832C86.8137 8.10032 86.2027 7.87632 85.4557 7.87632C84.6997 7.87632 84.0837 8.10032 83.6077 8.54832C83.1317 8.98732 82.8937 9.56532 82.8937 10.2843C82.8937 10.7513 83.0017 11.1713 83.2157 11.5443C83.4397 11.9083 83.7437 12.1933 84.1257 12.3983C84.5177 12.6033 84.9617 12.7063 85.4557 12.7063ZM98.9157 6.77032V14.1903H97.6277V13.0143C97.3363 13.419 96.9458 13.7419 96.4937 13.9523C96.0199 14.1706 95.5034 14.2806 94.9817 14.2743C94.2627 14.2743 93.6187 14.1153 93.0497 13.7983C92.4873 13.4878 92.0221 13.0274 91.7057 12.4683C91.3887 11.8893 91.2297 11.2273 91.2297 10.4803C91.2297 9.73332 91.3887 9.07532 91.7057 8.50632C92.0221 7.94722 92.4873 7.48682 93.0497 7.17632C93.6197 6.85932 94.2627 6.70032 94.9817 6.70032C95.4883 6.69509 95.9899 6.80019 96.4517 7.00832C96.8997 7.20432 97.2727 7.49832 97.5717 7.89032V6.77032H98.9157ZM95.0937 13.0983C95.5607 13.0983 95.9847 12.9913 96.3677 12.7763C96.7507 12.5523 97.0487 12.2443 97.2637 11.8523C97.4838 11.429 97.5945 10.9573 97.5857 10.4803C97.5857 9.96732 97.4787 9.51432 97.2637 9.12232C97.0614 8.73364 96.75 8.4125 96.3677 8.19832C95.9783 7.98192 95.5392 7.87093 95.0937 7.87632C94.6177 7.87632 94.1887 7.98332 93.8057 8.19832C93.4276 8.41786 93.1175 8.73763 92.9097 9.12232C92.6947 9.51432 92.5877 9.96732 92.5877 10.4803C92.5877 10.9933 92.6947 11.4503 92.9097 11.8523C93.1337 12.2443 93.4327 12.5523 93.8057 12.7763C94.1887 12.9913 94.6177 13.0983 95.0937 13.0983ZM101.487 6.77032H102.831V9.92032H107.059V6.77032H108.403V14.1903H107.059V11.0823H102.831V14.1903H101.487V6.77032ZM114.194 14.2743C113.457 14.2743 112.794 14.1113 112.206 13.7843C111.631 13.47 111.152 13.0055 110.82 12.4403C110.494 11.8613 110.33 11.2083 110.33 10.4803C110.33 9.75232 110.494 9.10332 110.82 8.53432C111.146 7.9649 111.627 7.49908 112.206 7.19032C112.794 6.86332 113.457 6.70032 114.194 6.70032C114.932 6.70032 115.59 6.86332 116.168 7.19032C116.745 7.49679 117.222 7.9635 117.54 8.53432C117.876 9.10432 118.044 9.75232 118.044 10.4803C118.044 11.2083 117.876 11.8613 117.54 12.4403C117.216 13.007 116.741 13.4724 116.168 13.7843C115.59 14.1113 114.932 14.2743 114.194 14.2743ZM114.194 13.0983C114.67 13.0983 115.095 12.9913 115.468 12.7763C115.851 12.5523 116.15 12.2443 116.364 11.8523C116.584 11.429 116.695 10.9573 116.686 10.4803C116.686 9.96732 116.579 9.51432 116.364 9.12232C116.162 8.73347 115.85 8.41227 115.468 8.19832C115.08 7.97967 114.64 7.86852 114.194 7.87632C113.718 7.87632 113.289 7.98332 112.906 8.19832C112.528 8.41798 112.218 8.73772 112.01 9.12232C111.796 9.51432 111.688 9.96732 111.688 10.4803C111.688 10.9933 111.796 11.4503 112.01 11.8523C112.234 12.2443 112.533 12.5523 112.906 12.7763C113.289 12.9913 113.718 13.0983 114.194 13.0983ZM128.799 10.3403C129.76 10.5833 130.241 11.1853 130.241 12.1463C130.241 12.7993 129.993 13.3033 129.499 13.6583C129.013 14.0133 128.285 14.1903 127.315 14.1903H123.745V6.77032H127.189C128.066 6.77032 128.752 6.93832 129.247 7.27432C129.741 7.60132 129.989 8.06732 129.989 8.67432C129.989 9.06632 129.881 9.40732 129.667 9.69632C129.445 9.98888 129.144 10.2122 128.799 10.3403ZM125.061 9.96232H127.077C127.59 9.96232 127.977 9.86932 128.239 9.68232C128.509 9.49532 128.645 9.22532 128.645 8.87032C128.645 8.16032 128.122 7.80632 127.077 7.80632H125.061V9.96232ZM127.217 13.1543C127.777 13.1543 128.197 13.0653 128.477 12.8883C128.757 12.7113 128.897 12.4353 128.897 12.0623C128.897 11.6793 128.766 11.3953 128.505 11.2083C128.253 11.0213 127.851 10.9283 127.301 10.9283H125.061V13.1543H127.217Z" fill="#595857"/>
<path fill-rule="evenodd" clip-rule="evenodd" d="M38.7808 10.411C29.2338 4.62309 19.8728 8.10809 16.8408 10.0911C12.5208 12.914 9.68179 16.6081 9.76079 21.9841L9.77979 23.201L12.5538 23.17L12.5358 21.952C12.4708 17.529 14.7158 14.514 18.4988 12.042C20.9488 10.442 28.9708 7.42209 37.2038 12.414L37.2058 12.415C40.1308 14.1811 41.8938 17.0161 42.8168 20.4951C43.3108 22.3421 43.4348 25.553 42.4618 28.238C41.9818 29.567 41.2598 30.687 40.2748 31.464C39.3168 32.22 38.0328 32.714 36.2488 32.706C34.6788 32.698 33.6448 31.94 32.9388 31.049C32.5466 30.5501 32.2339 29.9936 32.0118 29.399C31.9995 29.3659 31.9879 29.3326 31.9768 29.299L31.9708 29.279L31.7068 28.372L29.1558 28.359L28.8388 29.191V29.193L28.8298 29.213C28.7581 29.3797 28.6787 29.5428 28.5918 29.702C28.3594 30.1291 28.0811 30.5294 27.7618 30.896C27.0048 31.76 25.9818 32.4381 24.5938 32.4031C22.5088 32.3531 20.9858 31.405 20.0548 29.723V29.721L20.0538 29.719C19.7566 29.1873 19.522 28.6228 19.3548 28.037C22.6488 26.587 24.3518 24.259 25.2178 22.2871C25.6758 21.2451 25.9058 20.2941 26.0218 19.6C26.0823 19.2419 26.1223 18.8807 26.1418 18.518L26.1428 18.447V18.413C26.1428 18.411 26.1428 18.411 24.7568 18.406L26.1438 18.4111L26.1478 17.5291L20.1228 15.7731L19.5328 16.5371L19.5308 16.541L19.5258 16.5471L19.5098 16.5681C19.4286 16.6749 19.3502 16.784 19.2748 16.895C18.3909 18.1891 17.6724 19.5887 17.1358 21.0611C16.5768 22.612 16.1528 24.504 16.2928 26.507C13.5028 27.298 11.3498 26.992 9.86479 26.489C9.16452 26.2541 8.49764 25.9294 7.88079 25.523C7.67387 25.3859 7.4755 25.2363 7.28679 25.075L7.26979 25.059L7.26879 25.058L6.34479 24.16L4.28479 25.79L5.21479 26.694L6.24479 25.879C5.21479 26.695 5.21579 26.696 5.21579 26.696H5.21779L5.21979 26.7L5.22679 26.706L5.24679 26.724C5.32779 26.8004 5.41151 26.8738 5.49779 26.944C5.66279 27.078 5.89779 27.26 6.20379 27.462C6.81179 27.867 7.70379 28.366 8.86479 28.76C10.8348 29.427 13.5068 29.768 16.7538 28.93C16.9518 29.55 17.2168 30.17 17.5598 30.787C18.8918 33.192 21.2838 34.758 24.5158 34.837C27.1508 34.903 28.9258 33.5621 29.9618 32.3811C30.0858 32.2401 30.2018 32.099 30.3078 31.96C30.4158 32.1181 30.5328 32.279 30.6608 32.44C31.6708 33.714 33.4448 35.126 36.2338 35.14C38.6808 35.152 40.6388 34.451 42.1298 33.275C43.5938 32.12 44.5288 30.571 45.1068 28.975C46.2528 25.81 46.1088 22.147 45.5188 19.941C44.5008 16.107 42.4648 12.635 38.7808 10.411ZM17.5598 30.787V30.785L18.8068 30.254L17.5608 30.788L17.5598 30.787ZM6.24479 25.879C7.27479 25.063 7.27379 25.062 7.27379 25.062V25.064L6.24479 25.879ZM16.7538 28.93C16.5036 28.1438 16.3489 27.3303 16.2928 26.507L16.4538 27.751L16.7538 28.93ZM24.7568 18.447C24.802 18.1786 24.7414 18.6779 24.7568 18.406L23.3688 18.4011V18.4L24.7568 18.406V18.447ZM23.2748 19.257C23.148 19.9987 22.9311 20.7221 22.6288 21.4111C21.8999 23.0918 20.6422 24.4886 19.0468 25.389C19.0908 24.122 19.3848 22.8971 19.7818 21.7961C20.1785 20.7075 20.6886 19.6638 21.3038 18.6821L23.2748 19.257ZM15.7298 19.8461L17.8738 17.986L16.1668 16.4711L14.0218 18.3311L15.7298 19.8461Z" fill="#F09926"/>
<path d="M23.2258 18.1904H25.2258V19.1904H23.2258V18.1904Z" fill="#F09926"/>
</svg>
