<svg width="101" height="60" viewBox="0 0 101 60" fill="none" xmlns="http://www.w3.org/2000/svg">
<g clip-path="url(#clip0_105_449)">
<path d="M100.43 16.71C96.4861 1.86966 70.927 -4.2274 43.335 3.10495C15.7429 10.4373 -3.42972 28.4038 0.513517 43.252C4.45675 58.1002 30.0212 64.1885 57.6132 56.8605C85.2053 49.5326 104.373 31.552 100.43 16.71ZM57.2241 55.3861C33.54 61.6791 11.3117 55.41 7.58292 41.377C3.8541 27.3441 20.0426 10.8714 43.732 4.57672C67.4214 -1.71799 89.6409 4.56084 93.3635 18.5938C97.0861 32.6267 80.9144 49.1002 57.2241 55.3861Z" fill="white"/>
<path d="M89.1142 26.9409L89.1097 20.0453H68.4248V40.7347H75.3203V26.9409H89.1142Z" fill="white"/>
<path d="M64.9297 33.8409H51.1359V26.9409H64.9297V20.0462H44.2421V40.7321H64.9297V33.8409Z" fill="white"/>
<path d="M33.8489 40.7366H40.7471V20.0463H20.0594V40.7366H26.9577V26.941H33.8489V40.7366Z" fill="white"/>
<path d="M134.917 20.9277V28.7806H133.091V22.3606H127.614V28.7806H125.788V20.9277H134.917Z" fill="white"/>
<path d="M145.527 20.9277C145.968 20.8976 146.406 21.0159 146.772 21.2638C146.938 21.4109 147.065 21.5953 147.145 21.8017C147.224 22.0082 147.253 22.2307 147.229 22.4506V24.1985C147.242 24.4089 147.212 24.6197 147.141 24.8182C147.071 25.0168 146.961 25.1991 146.818 25.3544C146.417 25.6163 145.943 25.7438 145.464 25.7188H140.566V28.7771H138.743V20.9241L145.527 20.9277ZM140.565 22.268V24.3803H144.583C144.798 24.4036 145.015 24.3615 145.206 24.2594C145.277 24.1976 145.332 24.1197 145.366 24.0324C145.4 23.945 145.413 23.8507 145.403 23.7574V22.8882C145.413 22.7951 145.4 22.7009 145.366 22.6137C145.331 22.5265 145.277 22.4487 145.206 22.3871C145.015 22.2863 144.798 22.2448 144.583 22.268H140.565Z" fill="white"/>
<path d="M150.346 22.7841C150.295 22.2556 150.447 21.7275 150.773 21.3079C151.217 20.9997 151.758 20.8644 152.294 20.9277H158.074C158.611 20.8643 159.153 20.9996 159.597 21.3079C159.921 21.7283 160.073 22.256 160.022 22.7841V26.9232C160.073 27.4513 159.921 27.9791 159.597 28.3994C159.153 28.7069 158.611 28.8412 158.074 28.7771H152.294C151.758 28.8412 151.217 28.7069 150.773 28.3994C150.447 27.9799 150.295 27.4518 150.346 26.9232V22.7841ZM158.199 27.3477V22.3571H152.175V27.3477H158.199Z" fill="white"/>
<path d="M173.997 20.9277V28.7806H172.321V23.9277C172.321 23.6473 172.343 23.3674 172.385 23.0903C172.268 23.3819 172.115 23.6579 171.93 23.9118L168.977 27.8365H168.612L165.662 23.8968C165.466 23.6528 165.307 23.381 165.191 23.0903L165.235 23.9277V28.7806H163.745V20.9277H165.235L168.933 25.6747L172.55 20.9277H173.997Z" fill="white"/>
<path d="M179.469 22.3571V27.3477H184.396V25.6438L186.222 26.0241V26.9224C186.273 27.4509 186.12 27.979 185.794 28.3985C185.351 28.7064 184.809 28.8408 184.273 28.7762H179.587C179.051 28.8405 178.51 28.7062 178.067 28.3985C177.743 27.9782 177.591 27.4505 177.642 26.9224V22.7832C177.591 22.2551 177.743 21.7274 178.067 21.3071C178.51 20.9985 179.051 20.8632 179.587 20.9268H184.273C184.81 20.863 185.351 20.9983 185.794 21.3071C186.12 21.7266 186.273 22.2547 186.222 22.7832V23.5588L184.396 23.8509V22.3588L179.469 22.3571Z" fill="white"/>
<path d="M194.448 28.7771H192.622V22.3571H189.017V20.9277H198.055V22.3571H194.448V28.7771Z" fill="white"/>
<path d="M207.754 20.9277C208.195 20.8983 208.634 21.0166 209 21.2638C209.165 21.4112 209.292 21.5957 209.372 21.8021C209.451 22.0085 209.48 22.2308 209.456 22.4506V24.1985C209.468 24.4089 209.438 24.6197 209.367 24.8182C209.297 25.0168 209.187 25.1991 209.044 25.3544C208.643 25.6157 208.17 25.7433 207.692 25.7188H202.792V28.7771H200.967V20.9241L207.754 20.9277ZM202.792 22.268V24.3803H206.808C207.023 24.4046 207.24 24.3625 207.431 24.2594C207.502 24.1983 207.558 24.1206 207.593 24.0331C207.628 23.9457 207.641 23.851 207.631 23.7574V22.8882C207.641 22.7947 207.628 22.7002 207.593 22.6129C207.558 22.5256 207.502 22.4481 207.431 22.3871C207.24 22.2856 207.023 22.244 206.808 22.268H202.792Z" fill="white"/>
<path d="M212.573 22.7841C212.522 22.2556 212.675 21.7275 213 21.3079C213.443 20.9992 213.985 20.8638 214.521 20.9277H220.302C220.839 20.8647 221.38 20.9999 221.824 21.3079C222.148 21.7278 222.301 22.2558 222.25 22.7841V26.9232C222.301 27.4516 222.148 27.9796 221.824 28.3994C221.38 28.7066 220.839 28.8409 220.302 28.7771H214.522C213.986 28.8416 213.445 28.7073 213.001 28.3994C212.675 27.9799 212.523 27.4518 212.574 26.9232L212.573 22.7841ZM220.426 27.3477V22.3571H214.404V27.3477H220.426Z" fill="white"/>
<path d="M227.803 26.7229L234.343 20.9277H235.864V28.7806H234.039V22.9862L227.499 28.7806H225.978V20.9277H227.803V26.7229Z" fill="white"/>
<path d="M250.826 20.9277V22.3571H245.26V28.7771H243.434V20.9241L250.826 20.9277Z" fill="white"/>
<path d="M260.539 20.9277C260.981 20.8974 261.42 21.0157 261.786 21.2638C261.952 21.4108 262.08 21.5952 262.159 21.8016C262.239 22.008 262.269 22.2305 262.245 22.4506V24.1985C262.257 24.4089 262.227 24.6196 262.156 24.8181C262.085 25.0166 261.975 25.199 261.833 25.3544C261.431 25.6161 260.957 25.7437 260.479 25.7188H255.581V28.7771H253.754V20.9241L260.539 20.9277ZM255.581 22.268V24.3803H259.601C259.816 24.404 260.034 24.3619 260.224 24.2594C260.295 24.1974 260.349 24.1195 260.383 24.0321C260.417 23.9448 260.43 23.8506 260.42 23.7574V22.8882C260.43 22.7951 260.417 22.7011 260.383 22.6139C260.349 22.5267 260.295 22.4489 260.224 22.3871C260.033 22.286 259.816 22.2445 259.601 22.268H255.581Z" fill="white"/>
<path d="M267.122 24.3203H272.539V20.9277H274.38V27.1359C274.402 27.5956 274.25 28.0468 273.953 28.3985C273.571 28.6656 273.111 28.7984 272.645 28.7762H267.182C266.685 28.8188 266.19 28.6851 265.782 28.3985C265.458 27.9787 265.305 27.4507 265.356 26.9224V26.6744L267.121 26.3409V27.3441H272.538V25.5935H267.122C266.648 25.6205 266.178 25.4926 265.782 25.2291C265.455 24.8052 265.303 24.2724 265.356 23.7397V20.9241H267.121L267.122 24.3203Z" fill="white"/>
<path d="M287.326 20.9277V28.7806H285.495V22.3606H280.024V28.7806H278.198V20.9277H287.326Z" fill="white"/>
<path d="M229.325 23.4274L231.821 20.9285H229.325V23.4274Z" fill="white"/>
<path d="M127.368 34.2115V33.7218C127.372 33.6706 127.365 33.6191 127.347 33.5708C127.329 33.5226 127.302 33.4787 127.266 33.4421C127.23 33.4055 127.186 33.3772 127.138 33.3589C127.09 33.3406 127.039 33.3329 126.987 33.3362C126.93 33.3322 126.872 33.3412 126.818 33.3624C126.764 33.3836 126.716 33.4165 126.676 33.4588C126.637 33.5011 126.607 33.5516 126.59 33.6067C126.572 33.6618 126.567 33.7201 126.575 33.7774V35.8456C126.567 35.9029 126.572 35.9612 126.59 36.0163C126.607 36.0714 126.637 36.1219 126.676 36.1642C126.716 36.2064 126.764 36.2393 126.818 36.2606C126.872 36.2818 126.93 36.2907 126.987 36.2868C127.039 36.2898 127.09 36.2819 127.138 36.2634C127.186 36.245 127.229 36.2165 127.265 36.1799C127.301 36.1433 127.329 36.0994 127.347 36.0512C127.364 36.003 127.372 35.9515 127.368 35.9003V35.2924H128.338V35.9488C128.326 36.1129 128.281 36.2728 128.206 36.4192C128.131 36.5657 128.028 36.6957 127.902 36.8016C127.776 36.9076 127.631 36.9873 127.473 37.0362C127.316 37.085 127.151 37.102 126.987 37.0862C126.813 37.1083 126.635 37.0936 126.466 37.0431C126.298 36.9926 126.141 36.9073 126.008 36.7928C125.874 36.6783 125.765 36.5371 125.689 36.3783C125.613 36.2194 125.571 36.0464 125.566 35.8703V33.7527C125.571 33.5766 125.613 33.4036 125.689 33.2447C125.765 33.0858 125.874 32.9446 126.008 32.8301C126.141 32.7157 126.298 32.6304 126.466 32.5799C126.635 32.5294 126.813 32.5147 126.987 32.5368C127.151 32.5209 127.316 32.5379 127.473 32.5868C127.631 32.6357 127.776 32.7154 127.902 32.8214C128.028 32.9273 128.131 33.0573 128.206 33.2037C128.281 33.3502 128.326 33.5101 128.338 33.6741V34.2106L127.368 34.2115Z" fill="white"/>
<path d="M136.446 32.6479V33.4147H135.447V36.9591H134.477V33.4147H133.48V32.6479H136.446Z" fill="white"/>
<path d="M142.659 32.6488V33.1315C142.719 32.9592 142.83 32.8098 142.979 32.7036C143.127 32.5974 143.304 32.5398 143.487 32.5385C143.644 32.5291 143.802 32.5546 143.949 32.6131C144.096 32.6716 144.228 32.7617 144.336 32.877C144.444 32.9923 144.525 33.13 144.574 33.2803C144.622 33.4306 144.637 33.5897 144.618 33.7465V35.8747C144.634 36.0312 144.616 36.1893 144.566 36.3384C144.517 36.4875 144.435 36.6243 144.328 36.7394C144.221 36.8546 144.09 36.9455 143.945 37.0061C143.8 37.0666 143.644 37.0955 143.487 37.0906C143.305 37.092 143.127 37.0362 142.978 36.931C142.83 36.8259 142.718 36.6768 142.659 36.5047V38.4009H141.688V32.6524L142.659 32.6488ZM142.659 33.8577V35.7988C142.652 35.8654 142.66 35.9327 142.681 35.9962C142.702 36.0597 142.736 36.1181 142.781 36.1674C142.827 36.2167 142.882 36.2559 142.943 36.2824C143.005 36.3089 143.071 36.3221 143.138 36.3212C143.203 36.3235 143.269 36.3116 143.329 36.2865C143.39 36.2614 143.444 36.2236 143.489 36.1757C143.533 36.1278 143.567 36.0708 143.588 36.0087C143.608 35.9465 143.615 35.8807 143.608 35.8156V33.8453C143.615 33.7802 143.608 33.7143 143.588 33.6522C143.567 33.59 143.533 33.5331 143.489 33.4852C143.444 33.4372 143.39 33.3995 143.329 33.3746C143.269 33.3496 143.203 33.338 143.138 33.3406C143.071 33.3394 143.005 33.3523 142.944 33.3784C142.883 33.4045 142.828 33.4432 142.783 33.492C142.738 33.5408 142.703 33.5986 142.682 33.6616C142.66 33.7246 142.653 33.7914 142.659 33.8577Z" fill="white"/>
<path d="M153.128 33.9432V35.6806C153.143 35.8798 153.113 36.0798 153.04 36.2656C152.967 36.4515 152.852 36.6183 152.705 36.7537C152.559 36.8891 152.383 36.9895 152.192 37.0474C152.001 37.1053 151.799 37.1191 151.602 37.0879C150.449 37.0879 150.072 36.4306 150.072 35.6806V33.9432C150.072 33.1932 150.449 32.5377 151.602 32.5377C151.799 32.5065 152 32.5203 152.191 32.5781C152.382 32.6359 152.558 32.7361 152.705 32.8713C152.851 33.0065 152.966 33.1732 153.039 33.3588C153.112 33.5444 153.143 33.7442 153.128 33.9432ZM151.082 33.8162V35.8077C151.072 35.8779 151.079 35.9495 151.102 36.0166C151.124 36.0838 151.163 36.1447 151.213 36.1946C151.264 36.2444 151.325 36.2818 151.392 36.3038C151.46 36.3258 151.531 36.3317 151.602 36.3212C151.92 36.3212 152.119 36.21 152.119 35.8077V33.8162C152.119 33.4147 151.92 33.3044 151.602 33.3044C151.531 33.2933 151.46 33.2989 151.392 33.3206C151.324 33.3423 151.263 33.3796 151.212 33.4295C151.162 33.4794 151.124 33.5404 151.101 33.6078C151.078 33.6751 151.072 33.7459 151.082 33.8162Z" fill="white"/>
<path d="M159.567 32.6479V35.2218L160.61 32.6479H161.552V36.9591H160.604V34.4171L159.567 36.9591H158.626V32.6479H159.567Z" fill="white"/>
<path d="M169.732 32.6479V33.4147H168.738V36.9591H167.767V33.4147H166.77V32.6479H169.732Z" fill="white"/>
<path d="M175.904 34.9041V35.8429C175.899 35.9098 175.909 35.9769 175.934 36.0393C175.958 36.1017 175.996 36.1578 176.045 36.2036C176.095 36.2493 176.153 36.2834 176.217 36.3035C176.281 36.3235 176.349 36.329 176.415 36.3194C176.481 36.3279 176.549 36.3217 176.612 36.3013C176.676 36.2809 176.734 36.2468 176.783 36.2014C176.832 36.1559 176.871 36.1002 176.896 36.0383C176.921 35.9764 176.932 35.9097 176.929 35.8429V35.5994H177.899V35.7177C177.899 36.6882 177.273 37.0853 176.412 37.0853C175.552 37.0853 174.929 36.6979 174.929 35.7177V33.9018C174.929 32.9232 175.555 32.535 176.412 32.535C177.27 32.535 177.899 32.9303 177.899 33.9018V34.9041H175.904ZM176.929 34.1938V33.7756C176.932 33.709 176.921 33.6425 176.896 33.5808C176.87 33.5191 176.832 33.4637 176.783 33.4185C176.734 33.3734 176.675 33.3396 176.612 33.3195C176.548 33.2995 176.481 33.2938 176.415 33.3027C176.1 33.3027 175.904 33.4588 175.904 33.7756V34.1982L176.929 34.1938Z" fill="white"/>
<path d="M186.469 32.6479V36.9591H185.498V33.4147H184.699V35.1432C184.699 36.6671 184.276 37.0394 183.697 37.0394C183.508 37.0417 183.319 37.0146 183.139 36.9591V36.2488C183.208 36.2637 183.279 36.2714 183.349 36.2718C183.714 36.2718 183.754 36.1218 183.754 34.2909V32.6471L186.469 32.6479Z" fill="white"/>
<path d="M192.971 34.2918H193.596C193.771 34.2862 193.944 34.3168 194.106 34.3816C194.268 34.4464 194.415 34.5441 194.537 34.6684C194.66 34.7927 194.755 34.941 194.818 35.104C194.88 35.2669 194.908 35.441 194.899 35.6153C194.908 35.7904 194.88 35.9653 194.818 36.1292C194.755 36.2932 194.66 36.4426 194.538 36.5684C194.416 36.6941 194.27 36.7935 194.108 36.8604C193.946 36.9273 193.771 36.9603 193.596 36.9574H191.998V32.6462H192.969L192.971 34.2918ZM192.971 36.195H193.288C193.602 36.195 193.887 36.1006 193.887 35.618C193.887 35.1909 193.609 35.0568 193.288 35.0568H192.971V36.195Z" fill="white"/>
<path d="M201.364 34.2918H202.295V32.6479H203.266V36.9591H202.295V35.0559H201.364V36.9591H200.394V32.6479H201.364V34.2918Z" fill="white"/>
<path d="M209.772 34.2918H210.397C210.572 34.2861 210.745 34.3166 210.908 34.3814C211.07 34.4461 211.217 34.5437 211.339 34.668C211.462 34.7923 211.557 34.9407 211.62 35.1037C211.682 35.2667 211.71 35.4409 211.702 35.6153C211.71 35.7906 211.682 35.9656 211.62 36.1297C211.558 36.2937 211.463 36.4432 211.34 36.569C211.218 36.6948 211.071 36.7942 210.909 36.861C210.747 36.9278 210.573 36.9606 210.397 36.9574H208.8V32.6462H209.771L209.772 34.2918ZM209.772 36.195H210.09C210.404 36.195 210.689 36.1006 210.689 35.618C210.689 35.1909 210.411 35.0568 210.09 35.0568H209.772V36.195ZM213.301 36.9591H212.33V32.6479H213.301V36.9591Z" fill="white"/>
<path d="M219.779 32.648V35.2218L220.82 32.648H221.76V36.9591H220.813V34.4171L219.779 36.9591H218.826V32.648H219.779ZM219.779 31.2582C219.779 31.6297 219.997 31.6606 220.283 31.6606C220.592 31.6606 220.812 31.6138 220.812 31.2582H221.332C221.332 31.8909 221.007 32.2288 220.298 32.2288C220.165 32.2441 220.03 32.2299 219.902 32.1873C219.775 32.1446 219.659 32.0745 219.562 31.9819C219.465 31.8893 219.389 31.7765 219.34 31.6514C219.292 31.5264 219.271 31.3922 219.28 31.2582H219.779Z" fill="white"/>
<path d="M234.728 32.6479L235.219 33.8409L235.711 32.6479H236.783L235.711 34.8044L236.836 36.9591H235.711L235.219 35.7238L234.728 36.9591H233.599L234.726 34.8044L233.654 32.6479H234.728Z" fill="white"/>
<path d="M245.032 33.9432V35.6806C245.047 35.8797 245.017 36.0796 244.944 36.2654C244.871 36.4512 244.757 36.618 244.61 36.7533C244.463 36.8887 244.288 36.9891 244.097 37.0471C243.905 37.105 243.704 37.119 243.507 37.088C242.353 37.088 241.975 36.4306 241.975 35.6806V33.9432C241.975 33.1932 242.352 32.5377 243.507 32.5377C243.704 32.5067 243.905 32.5206 244.096 32.5785C244.287 32.6363 244.462 32.7366 244.609 32.8717C244.756 33.0069 244.87 33.1735 244.943 33.3591C245.017 33.5446 245.047 33.7443 245.032 33.9432ZM242.988 33.8162V35.8077C242.978 35.8779 242.985 35.9495 243.008 36.0166C243.03 36.0838 243.069 36.1447 243.119 36.1946C243.169 36.2444 243.231 36.2818 243.298 36.3038C243.366 36.3258 243.437 36.3317 243.507 36.3212C243.824 36.3212 244.021 36.21 244.021 35.8077V33.8162C244.021 33.4147 243.824 33.3044 243.507 33.3044C243.437 33.2931 243.365 33.2985 243.298 33.3202C243.23 33.3419 243.168 33.3792 243.118 33.4291C243.067 33.479 243.029 33.5402 243.006 33.6076C242.984 33.675 242.977 33.7459 242.988 33.8162Z" fill="white"/>
<path d="M253.596 32.6479V36.9591H252.626V33.4147H251.832V35.1432C251.832 36.6671 251.404 37.0394 250.827 37.0394C250.638 37.0415 250.449 37.0144 250.267 36.9591V36.2488C250.338 36.2638 250.409 36.2714 250.482 36.2718C250.843 36.2718 250.883 36.1218 250.883 34.2909V32.6471L253.596 32.6479Z" fill="white"/>
<path d="M259.58 34.0774V32.6479H262.265V36.1941H262.618V38.0012H261.703V36.9582H259.846V38.0012H258.931V36.1941H259.205C259.519 35.5352 259.648 34.8038 259.58 34.0774ZM261.295 33.4147H260.51V34.4056C260.559 35.0184 260.449 35.6334 260.189 36.1906H261.295V33.4147Z" fill="white"/>
<path d="M268.906 32.6479V35.2218L269.947 32.6479H270.888V36.9591H269.938V34.4171L268.905 36.9591H267.957V32.6479H268.906Z" fill="white"/>
<path d="M277.392 34.2918H278.323V32.6479H279.294V36.9591H278.323V35.0559H277.392V36.9591H276.422V32.6479H277.392V34.2918Z" fill="white"/>
<path d="M287.358 32.6479V33.4147H285.802V36.9591H284.832V32.6479H287.358Z" fill="white"/>
</g>
<defs>
<clipPath id="clip0_105_449">
<rect width="101" height="60" fill="white"/>
</clipPath>
</defs>
</svg>
