<svg width="132" height="60" viewBox="0 0 132 60" fill="none" xmlns="http://www.w3.org/2000/svg">
<g clip-path="url(#clip0_105_499)">
<path d="M6.60212 26.6801C8.42612 26.9721 10.2521 27.5661 11.9101 28.5181C13.5621 29.4721 15.0261 30.7801 16.2121 32.2581C16.8121 32.9921 17.3321 33.7761 17.8081 34.5761C17.9281 34.7821 18.0301 34.9701 18.1341 35.1561L18.4541 35.7521C18.6621 36.1441 18.8641 36.5381 19.0541 36.9381C19.1741 37.1781 19.2821 37.4201 19.3941 37.6681C18.4761 33.2981 17.3281 29.3841 15.9081 25.7441C14.3821 21.8441 11.7501 17.0561 8.08812 11.5241C7.80412 11.0901 7.51412 10.6601 7.21812 10.2241C3.31812 14.7401 0.742117 20.4361 0.120117 26.7061C0.462117 26.6481 0.808117 26.5961 1.15012 26.5521C2.93612 26.3401 4.77812 26.3761 6.60212 26.6801Z" fill="white"/>
<path d="M19.334 24.6981C20.488 28.8761 21.296 33.3401 21.798 38.3421C21.944 39.6321 22.066 40.9461 22.17 42.3081C22.19 41.0141 22.19 39.7701 22.17 38.5481C22.092 33.2161 21.662 28.4461 20.854 23.9621C20 19.2821 18.632 14.4921 16.654 9.31214C16.012 7.62414 15.298 5.89014 14.516 4.09814C13.444 4.74014 12.414 5.44814 11.436 6.21014C12.224 7.61414 12.96 8.99214 13.646 10.3381C16.188 15.3621 18.05 20.0621 19.334 24.6981Z" fill="white"/>
<path d="M16.9021 24.8422C18.2121 28.2442 19.1961 31.3462 19.9201 34.3382C20.4121 36.4102 20.8321 38.5542 21.1941 40.8362C21.1461 40.2242 21.0921 39.6182 21.0341 39.0242L20.9761 38.4402C20.9301 38.0202 20.8781 37.6162 20.8301 37.2082C20.5001 34.6902 20.0181 32.0662 19.3481 29.1882C18.7841 26.7642 14.6761 14.1962 12.9081 10.7082C12.2501 9.40822 11.5361 8.08222 10.7801 6.73022C9.71208 7.61022 8.71008 8.56823 7.77808 9.58423C8.11808 10.0862 8.45008 10.5742 8.77608 11.0702C10.5361 13.7302 15.8141 22.0302 16.9021 24.8422Z" fill="white"/>
<path d="M21.656 23.8181C22.458 28.2361 22.89 32.9261 22.986 38.1501C23.028 36.2081 23.146 24.3081 23.146 24.3081C23.114 23.9301 23.08 23.5521 23.048 23.1801C22.612 18.4421 21.712 13.5281 20.31 8.16809C19.804 6.23009 19.218 4.20609 18.56 2.09009C17.41 2.55609 16.302 3.08809 15.23 3.68609C16.034 5.51809 16.764 7.29009 17.422 9.01809C19.418 14.2441 20.8 19.0881 21.656 23.8181Z" fill="white"/>
<path d="M34.382 14.342C33.874 16.414 33.366 18.486 32.844 20.556C31.482 26.05 29.922 31.58 28.21 36.99C27.18 40.23 26.088 43.488 24.928 46.74C24.938 46.714 24.95 46.694 24.964 46.668C26.088 44.4 27.096 42.302 28.034 40.262C29.66 36.736 34.294 28.348 35.072 26.752C36.122 24.598 37.164 22.444 38.23 20.278C40.762 15.106 43.558 10.02 46.542 5.12601C43.876 3.29801 40.898 1.89601 37.704 1.01001C36.608 5.26601 35.566 9.50201 34.544 13.672L34.382 14.342Z" fill="white"/>
<path d="M27.7479 20.4761C27.5919 23.7601 27.2919 27.1961 26.8479 30.6821C26.7639 31.4901 26.6719 32.3141 26.5739 33.1361C26.2799 35.6461 25.9559 37.8541 25.5859 39.8821C25.2379 41.8121 24.8179 43.8281 24.3059 46.0341C25.4039 42.9421 26.4439 39.8321 27.4219 36.7441C29.1319 31.3421 30.6879 25.8281 32.0499 20.3601C32.5979 18.1501 33.1439 15.9381 33.6919 13.7201L33.7439 13.4961C34.7739 9.31612 35.8159 5.06612 36.9079 0.79812C34.6139 0.22812 32.2059 -0.0778809 29.7299 -0.0778809C28.9279 -0.0778809 28.1339 -0.0378807 27.3439 0.0301193C27.4479 1.40212 27.5319 2.73412 27.6079 4.04412C27.9419 10.0281 27.9879 15.4061 27.7479 20.4761Z" fill="white"/>
<path d="M35.894 26.9461L35.816 27.1101C32.626 33.6721 29.35 40.4041 25.834 47.1081C25.912 47.0001 25.988 46.8961 26.058 46.7861C27.524 44.6361 28.938 42.5341 30.256 40.5361C31.938 37.9681 41.41 25.2921 43.092 23.0041C46.048 18.9861 49.332 14.9561 52.88 10.9861C51.24 8.9521 49.332 7.1441 47.214 5.6001C44.256 10.4661 41.478 15.5101 38.97 20.6381C37.946 22.7241 36.924 24.8321 35.894 26.9461Z" fill="white"/>
<path d="M33.3779 38.088C31.6239 40.594 29.8519 43.128 28.0459 45.678C29.5939 43.846 31.1279 42.034 32.6279 40.246L32.6799 40.188C35.8899 36.376 39.2099 32.436 42.5759 28.562C46.1379 24.472 50.0099 20.348 54.0979 16.29C54.5779 15.82 55.0519 15.348 55.5419 14.872C54.8959 13.752 54.1799 12.67 53.3979 11.646C49.9039 15.556 46.6719 19.526 43.7559 23.494C40.2179 28.308 36.7399 33.282 33.3779 38.088Z" fill="white"/>
<path d="M41.1461 36.56C39.4581 38.072 37.7581 39.61 36.0701 41.142C43.4081 35.078 50.9461 28.938 58.6581 23.102L58.7361 23.044C58.6521 22.66 58.5541 22.274 58.4561 21.894C55.8841 23.96 53.3721 26.026 50.9621 28.052C47.5761 30.896 44.2741 33.758 41.1461 36.56Z" fill="white"/>
<path d="M41.9681 33.4782C39.2041 36.2802 36.4161 39.1602 33.7201 41.9442L33.4501 42.2242C32.9421 42.7482 32.4341 43.2742 31.9221 43.8002C31.9521 43.7742 31.9781 43.7522 32.0101 43.7282C34.7921 41.1862 37.6761 38.5642 40.6001 35.9462C43.7281 33.1442 47.0361 30.2722 50.4341 27.4222C52.9261 25.3202 55.5361 23.1802 58.2101 21.0282C57.9881 20.2882 57.7301 19.5622 57.4481 18.8442C55.7141 20.3822 54.0201 21.9142 52.3781 23.4322C48.7721 26.7542 45.2681 30.1342 41.9681 33.4782Z" fill="white"/>
<path d="M43.2 29.1001C39.908 32.8841 36.664 36.7341 33.522 40.4621C33.73 40.2401 33.94 40.0121 34.154 39.7841L34.636 39.2601C38.484 35.1081 49.822 24.6641 51.816 22.8261C53.536 21.2361 55.31 19.6401 57.12 18.0321C56.772 17.2021 56.384 16.4001 55.96 15.6121C55.53 16.0361 55.102 16.4521 54.682 16.8701C50.606 20.9121 46.744 25.0281 43.2 29.1001Z" fill="white"/>
<path d="M23.8701 23.1021C24.3061 27.7841 24.3581 32.7221 24.0401 38.2081C23.9101 40.5341 23.7081 42.9461 23.4301 45.5701C24.0861 42.5241 24.6461 39.6161 25.1181 36.8021C25.4701 34.6901 25.7741 32.5981 26.0281 30.5821C26.1841 29.1581 26.3141 27.7301 26.4521 26.3101L26.4841 25.9581L26.5361 25.9641C26.7121 24.1041 26.8381 22.2461 26.9281 20.4381C27.1701 15.3961 27.1241 10.0421 26.7841 4.08209C26.7161 2.78209 26.6281 1.45809 26.5261 0.0900879C24.0201 0.358088 21.6081 0.93809 19.3281 1.79209C20.0001 3.94009 20.5921 5.99209 21.1081 7.95809C22.5241 13.3661 23.4261 18.3241 23.8701 23.1021Z" fill="white"/>
<path d="M49.854 43.6381C46.614 43.8101 43.408 44.2701 40.274 45.0101C37.14 45.7501 34.09 46.7921 31.104 48.0181C28.12 49.2561 25.186 50.7041 22.364 52.3901L21.654 52.8101L21.79 52.1361V52.1321C21.654 50.4801 21.314 48.8181 20.878 47.2081C20.434 45.5921 19.874 44.0221 19.21 42.5021C18.538 40.9841 17.76 39.5261 16.876 38.1421C16.654 37.7961 16.432 37.4581 16.192 37.1221L15.846 36.6301C15.716 36.4601 15.592 36.2881 15.474 36.1421C14.998 35.5301 14.45 34.9821 13.878 34.4941C12.706 33.5061 11.382 32.7801 10.014 32.1741C8.64802 31.5641 7.22402 31.0461 5.72602 30.6041C3.89402 30.0701 1.97202 29.6761 -0.0259823 29.3201C-0.0259823 29.4401 -0.0319824 29.5581 -0.0319824 29.6781C-0.0319824 29.8341 -0.0219826 29.9901 -0.0219826 30.1481H-0.0159824L0.138018 32.6761C0.132018 32.6761 0.124018 32.6761 0.118018 32.6761C1.62002 47.7041 14.302 59.4361 29.728 59.4361C39.738 59.4361 48.592 54.4921 53.986 46.9161L54.142 46.8501C54.142 46.8501 55.282 45.1301 56.11 43.6101C54.018 43.5201 51.932 43.5141 49.854 43.6381Z" fill="white"/>
<path d="M59.4861 29.6782C59.4861 27.7122 59.2901 25.7942 58.9281 23.9302C50.4001 30.3962 42.0881 37.2262 34.0161 43.9122C35.8481 43.2242 37.7441 42.6782 39.6601 42.2662C43.0101 41.5482 46.4441 41.2662 49.8461 41.4162C52.1661 41.5202 54.4801 41.8202 56.7341 42.3282C56.7401 42.2862 56.7381 42.2442 56.7281 42.2042C58.4981 38.3942 59.4861 34.1542 59.4861 29.6782Z" fill="white"/>
<path d="M79.1 19.1041H72.856V25.1421H80.096V26.9201H70.51V10.0901H80.018V11.8921H72.856V17.3141H79.1V19.1041Z" fill="white"/>
<path d="M93.4042 26.9201H91.0782L84.6922 14.4021L84.6202 14.4281V26.9201H82.2742V10.0901H84.6202L91.0002 22.5741L91.0782 22.5541V10.0901H93.4042V26.9201Z" fill="white"/>
<path d="M107.814 26.9201H105.488V19.4981H99.0361V26.9201H96.6821V10.0901H99.0361V17.7061H105.488V10.0901H107.814V26.9201Z" fill="white"/>
<path d="M119.676 19.1041H113.438V25.1421H120.672V26.9201H111.086V10.0901H120.6V11.8921H113.438V17.3141H119.676V19.1041Z" fill="white"/>
<path d="M125.202 25.1421H131.764V26.9201H122.856V10.0901H125.202V25.1421Z" fill="white"/>
<path d="M74.4141 38.1921C73.4881 38.1241 72.7661 38.3421 72.2301 38.8401C71.7861 39.2901 71.5581 39.9081 71.5581 40.6901C71.5581 41.4201 71.7721 42.1721 72.2041 42.9421C72.5821 41.8381 73.2281 40.4161 74.1661 38.6641L74.4141 38.1921ZM73.0581 43.9901C73.8801 44.7761 74.7921 45.2421 75.8081 45.3921C75.9441 45.2101 76.0761 45.0301 76.2001 44.8541C76.3241 44.6821 76.4281 44.4981 76.5061 44.3161C77.0601 43.2021 77.3341 42.1661 77.3341 41.2181C77.3341 39.7881 76.7861 38.8761 75.6861 38.4901C75.3341 39.0761 74.9961 39.6761 74.6761 40.2961C74.3501 40.9081 74.0441 41.5341 73.7641 42.1661C73.4821 42.7841 73.2401 43.3901 73.0581 43.9901ZM77.2101 45.3681C78.5601 45.1501 79.7921 44.4661 80.9121 43.3181C81.0221 43.2341 81.1081 43.1901 81.1601 43.1901C81.2581 43.1901 81.3101 43.2481 81.3101 43.3621C81.3101 43.5121 81.2261 43.6481 81.0621 43.7661C79.6421 45.0301 78.2141 45.7541 76.7601 45.9361C75.7621 47.0061 74.7001 47.5401 73.5861 47.5401C72.3021 47.5401 71.6561 46.8821 71.6561 45.5661C71.6561 45.1301 71.7341 44.6241 71.8841 44.0421C70.9721 43.0261 70.5081 41.8761 70.5081 40.5941C70.5081 39.7401 70.7501 39.0361 71.2321 38.4701C71.7861 37.8681 72.5301 37.5681 73.4881 37.5681C73.6641 37.5681 73.8601 37.5821 74.0621 37.6041C74.2641 37.6301 74.4601 37.6621 74.6621 37.6961C76.7281 33.8641 78.4621 31.2701 79.8621 29.9221C80.0241 29.7721 80.2721 29.6941 80.5861 29.6941C81.1861 29.6941 81.4861 29.8381 81.4861 30.1241C81.4861 30.2061 81.4401 30.2861 81.3621 30.3721C80.0061 31.6561 78.1941 34.2141 75.9061 38.0461C77.6261 38.8441 78.4861 40.1541 78.4861 41.9721C78.4861 43.0841 78.0561 44.2141 77.2101 45.3681ZM75.3321 45.9161C74.4521 45.8021 73.6181 45.4561 72.8301 44.8921C72.7641 45.1761 72.7321 45.4761 72.7321 45.7881C72.7321 46.6061 72.9921 47.0141 73.5081 47.0141C74.0301 47.0141 74.6341 46.6481 75.3321 45.9161Z" fill="white"/>
<path d="M85.0101 41.366C85.3221 40.834 85.4861 40.372 85.4861 39.994C85.4861 39.692 85.3821 39.54 85.1801 39.54C84.8341 39.54 84.3521 39.95 83.7341 40.762C83.1341 41.596 82.6581 42.43 82.3061 43.264C83.6301 42.85 84.5221 42.216 85.0101 41.366ZM89.6061 43.716C89.0061 44.45 88.0621 45.15 86.7581 45.814C85.3241 46.564 84.0721 46.942 83.0101 46.942C81.4601 46.942 80.6841 46.092 80.6841 44.39C80.6841 43.774 80.9001 43.04 81.3101 42.19C81.7281 41.29 82.2541 40.542 82.8881 39.942C83.5981 39.258 84.2761 38.916 84.9081 38.916C85.7421 38.916 86.1601 39.326 86.1601 40.142C86.1601 40.64 85.9441 41.176 85.5081 41.742C84.7461 42.69 83.6321 43.352 82.1581 43.716C82.0921 44 82.0601 44.3 82.0601 44.616C82.0601 45.75 82.5821 46.316 83.6361 46.316C84.4701 46.316 85.5001 45.974 86.7321 45.292C87.3061 44.972 87.7881 44.66 88.2121 44.354C88.6301 44.044 88.9741 43.732 89.2621 43.416C89.5741 43.084 89.7321 43.064 89.7321 43.364C89.7301 43.468 89.6901 43.582 89.6061 43.716Z" fill="white"/>
<path d="M93.8802 40.418C92.4982 40.386 91.3062 41.35 90.3082 43.318C90.0222 43.846 89.8842 44.322 89.8842 44.738C89.8842 45.188 90.0402 45.416 90.3542 45.416C90.6542 45.416 91.0522 45.214 91.5262 44.816C92.4002 44.08 92.9602 43.35 93.2342 42.614C93.3462 41.78 93.5622 41.05 93.8802 40.418ZM100.104 43.716C98.1562 45.782 96.5002 46.74 95.1322 46.59C94.6822 46.544 94.2662 46.268 93.8802 45.768C93.4962 45.198 93.2622 44.49 93.1822 43.64C92.8622 44.074 92.5442 44.47 92.2182 44.826C91.8922 45.184 91.5542 45.514 91.1822 45.814C90.5182 46.348 89.9702 46.616 89.5342 46.616C88.9142 46.616 88.6082 46.224 88.6082 45.442C88.6082 44.774 88.8422 44.08 89.3122 43.364C90.3942 41.714 91.6062 40.574 92.9622 39.942C93.5422 39.674 94.0842 39.54 94.5782 39.54C94.7222 39.54 94.8581 39.564 95.0221 39.602C95.1781 39.644 95.3221 39.704 95.4721 39.778C95.6081 39.854 95.7262 39.942 95.8242 40.042C95.9082 40.14 95.9542 40.258 95.9542 40.39C95.9542 40.442 95.9282 40.488 95.8702 40.526C95.8122 40.568 95.7462 40.604 95.6742 40.624C95.5962 40.654 95.5242 40.68 95.4602 40.716C95.3942 40.748 95.3562 40.774 95.3562 40.788C94.7442 41.906 94.4302 42.972 94.4302 43.988C94.4302 45.256 94.9262 45.888 95.9102 45.888C96.9402 45.888 98.2361 45.064 99.7821 43.414C99.9001 43.264 100.016 43.19 100.134 43.19C100.218 43.19 100.258 43.248 100.258 43.362C100.254 43.498 100.202 43.614 100.104 43.716Z" fill="white"/>
<path d="M107.084 40.2421C106.112 42.1581 105.624 43.6501 105.624 44.7121C105.624 45.5501 105.956 45.9641 106.628 45.9641C107.678 45.9641 109 45.1061 110.604 43.3901C110.754 43.2401 110.878 43.1681 110.982 43.1681C111.06 43.1681 111.106 43.2261 111.106 43.3441C111.106 43.4741 111.048 43.5921 110.93 43.6901C108.994 45.7561 107.346 46.7241 105.976 46.5901C105.624 46.5741 105.304 46.3841 105.004 46.0161C104.652 45.6181 104.476 45.1061 104.476 44.4901C104.476 44.2241 104.522 43.9061 104.606 43.5381C103.388 44.9921 102.448 45.8721 101.778 46.1901C101.38 46.3721 101.028 46.4641 100.728 46.4641C99.9661 46.4641 99.5801 46.0301 99.5801 45.1641C99.5801 44.2321 100.042 42.9261 100.974 41.2381C101.144 40.9381 101.496 40.7881 102.03 40.7881C102.342 40.7881 102.454 40.9061 102.376 41.1401C102.246 41.4081 102.102 41.6681 101.966 41.9161C101.822 42.1641 101.686 42.4241 101.556 42.6921C101.074 43.6561 100.826 44.3901 100.826 44.8881C100.826 45.5061 100.976 45.8141 101.276 45.8141C101.98 45.8141 102.808 45.1561 103.778 43.8401C104.644 42.6741 105.31 41.4741 105.772 40.2421C105.954 40.0081 106.28 39.8901 106.75 39.8901C107.004 39.8901 107.128 39.9581 107.128 40.0921C107.13 40.1241 107.11 40.1761 107.084 40.2421Z" fill="white"/>
<path d="M110.728 39.668H111.092C111.216 39.668 111.346 39.658 111.484 39.642C111.562 39.626 111.666 39.616 111.79 39.616H112.182C112.292 39.402 112.462 39.092 112.684 38.694C112.892 38.294 113.172 37.792 113.506 37.192C113.688 36.86 113.904 36.502 114.158 36.116C114.406 35.732 114.686 35.308 115.006 34.838C115.338 34.508 115.788 34.342 116.362 34.342C116.838 34.342 117.078 34.466 117.078 34.716C117.078 34.766 117.058 34.824 117.006 34.892C116.654 35.374 116.21 36.004 115.682 36.792C115.148 37.57 114.522 38.522 113.806 39.64H117.71C117.958 39.724 118.082 39.83 118.082 39.966C118.082 40.214 117.782 40.37 117.182 40.442C117.078 40.456 116.712 40.468 116.08 40.468C115.448 40.468 114.528 40.474 113.33 40.488C112.516 42.02 112.106 43.274 112.106 44.242C112.106 45.324 112.576 45.866 113.508 45.866C113.97 45.866 114.472 45.716 115.006 45.416C115.372 45.198 115.756 44.928 116.146 44.602C116.538 44.282 116.948 43.882 117.378 43.416C117.548 43.25 117.684 43.174 117.782 43.192C117.866 43.192 117.906 43.25 117.906 43.368C117.906 43.47 117.866 43.576 117.782 43.69C115.898 45.672 114.276 46.64 112.934 46.594C111.866 46.558 111.226 46.01 111.004 44.942C110.972 44.776 110.946 44.61 110.932 44.44C110.912 44.278 110.906 44.108 110.906 43.944C110.906 42.924 111.186 41.774 111.76 40.49C111.388 40.51 111.128 40.516 110.972 40.516C110.81 40.516 110.764 40.526 110.828 40.542C110.45 40.49 110.242 40.326 110.202 40.04C110.154 39.792 110.33 39.668 110.728 39.668Z" fill="white"/>
<path d="M122.902 39.868C123 39.6 123.234 39.468 123.6 39.468C123.972 39.468 124.154 39.602 124.154 39.868C124.186 41.018 123.86 43.012 123.176 45.84C123.822 45.742 124.376 45.722 124.826 45.788C126.078 45.938 126.702 46.358 126.702 47.04C126.702 47.46 126.454 47.9 125.952 48.366C125.886 48.434 125.822 48.464 125.756 48.464C125.652 48.464 125.606 48.424 125.606 48.34C125.606 48.272 125.632 48.206 125.704 48.142C126.05 47.826 126.226 47.524 126.226 47.242C126.226 46.692 125.678 46.418 124.576 46.418C124.394 46.432 124.172 46.454 123.898 46.48C123.63 46.502 123.324 46.546 122.972 46.594C121.988 50.326 120.372 53.324 118.104 55.592C116.852 56.876 115.426 57.9 113.828 58.664C112.094 59.528 110.4 59.964 108.752 59.964C107.5 59.964 106.51 59.652 105.774 59.026C105.05 58.4 104.68 57.59 104.68 56.588C104.68 55.422 105.266 54.232 106.432 53.016C107.71 51.664 109.58 50.442 112.036 49.34C114.494 48.238 117.692 47.19 121.63 46.192C121.76 45.642 121.91 44.96 122.086 44.14C122.262 43.326 122.464 42.368 122.698 41.266C121.518 43.514 120.268 45.118 118.95 46.066C118.546 46.368 118.188 46.516 117.874 46.516C117.34 46.516 117.072 46.174 117.072 45.49C117.072 44.546 117.684 42.958 118.896 40.742C118.98 40.596 119.144 40.446 119.384 40.306C119.624 40.166 119.834 40.094 119.996 40.094C120.126 40.094 120.198 40.142 120.198 40.244C120.198 40.26 120.178 40.32 120.146 40.42C119.964 40.732 119.742 41.156 119.488 41.682C119.228 42.206 118.922 42.846 118.57 43.594C118.336 44.21 118.224 44.708 118.224 45.092C118.224 45.444 118.334 45.62 118.544 45.62C118.798 45.62 119.208 45.334 119.77 44.766C120.496 44.048 121.532 42.416 122.902 39.868ZM121.48 46.89C119.674 47.392 118.3 47.79 117.354 48.09C116.356 48.41 115.424 48.722 114.578 49.028C113.724 49.338 112.942 49.656 112.226 49.99C111.21 50.46 110.31 50.962 109.528 51.502C108.746 52.046 108.088 52.632 107.554 53.268C106.622 54.386 106.152 55.458 106.152 56.492C106.152 57.392 106.458 58.088 107.084 58.578C107.696 59.07 108.512 59.318 109.528 59.318C111.658 59.318 113.816 58.35 115.98 56.414C118.528 54.098 120.36 50.924 121.48 46.89Z" fill="white"/>
</g>
<defs>
<clipPath id="clip0_105_499">
<rect width="131.8" height="60" fill="white"/>
</clipPath>
</defs>
</svg>
