<svg width="127" height="60" viewBox="0 0 127 60" fill="none" xmlns="http://www.w3.org/2000/svg">
<path fill-rule="evenodd" clip-rule="evenodd" d="M50.7015 60C25.4486 57.9445 7.09625 49.9674 7.09625 40.4241C7.09625 32.863 18.9152 25.571 36.4356 21.7537C15.1468 24.6166 0 31.5661 0 40.4241C0 50.8238 21.9739 59.0701 50.7015 60Z" fill="white"/>
<path fill-rule="evenodd" clip-rule="evenodd" d="M76.1501 59.9756C101.427 57.9201 119.755 49.943 119.755 40.3997C119.755 32.8385 107.936 25.5465 90.416 21.7292C111.705 24.5922 126.852 31.5416 126.852 40.3997C126.876 50.7994 104.878 59.0457 76.1501 59.9756Z" fill="white"/>
<path d="M63.4258 31.0033C66.4395 31.0033 68.8825 28.856 68.8825 26.2072C68.8825 23.5584 66.4395 21.4111 63.4258 21.4111C60.4121 21.4111 57.969 23.5584 57.969 26.2072C57.969 28.856 60.4121 31.0033 63.4258 31.0033Z" fill="white"/>
<path fill-rule="evenodd" clip-rule="evenodd" d="M66.1175 3.25449C65.1876 1.46819 64.5025 0 63.4258 0C62.3736 0 61.6885 1.46819 60.7341 3.25449C59.8043 5.04078 59.0212 7.16966 59.0212 8.46656C59.0212 10.5954 60.9788 12.3328 63.4258 12.3328C65.8483 12.3328 67.8059 10.5954 67.8059 8.46656C67.8304 7.16966 67.0473 5.04078 66.1175 3.25449Z" fill="white"/>
<path fill-rule="evenodd" clip-rule="evenodd" d="M42.3328 12.8223C40.106 12.651 38.3197 12.4308 37.7814 13.2383C37.243 14.0458 38.3442 15.2937 39.6411 16.9088C40.938 18.5238 42.6264 20.1632 43.9233 20.8239C46.0277 21.9006 48.7194 21.2644 49.9184 19.4047C51.1419 17.545 50.4078 15.1959 48.3034 14.1192C47.031 13.483 44.5595 13.0181 42.3328 12.8223Z" fill="white"/>
<path fill-rule="evenodd" clip-rule="evenodd" d="M87.2349 16.9088C88.5318 15.2937 89.633 14.0458 89.0947 13.2383C88.5563 12.4308 86.77 12.651 84.5433 12.8223C82.3165 12.9936 79.8451 13.4585 78.5482 14.1192C76.4438 15.1959 75.7341 17.545 76.9331 19.4047C78.1566 21.2644 80.8239 21.8761 82.9283 20.8239C84.2252 20.1877 85.938 18.5238 87.2349 16.9088Z" fill="white"/>
<path fill-rule="evenodd" clip-rule="evenodd" d="M74.1435 19.2333C75.0489 17.863 75.6851 15.2447 75.9298 12.8712C76.1745 10.4976 76.4682 8.61342 75.367 8.05061C74.2659 7.48781 72.5285 8.66236 70.3263 10.0327C68.124 11.403 65.8483 13.2137 64.9429 14.5841C63.4747 16.8108 64.3556 19.6738 66.876 20.9462C69.4209 22.2186 72.6754 21.4601 74.1435 19.2333Z" fill="white"/>
<path fill-rule="evenodd" clip-rule="evenodd" d="M61.9086 14.5596C61.0032 13.1893 58.752 11.3786 56.5497 10.0083C54.3474 8.63794 52.6345 7.46339 51.5089 8.0262C50.4078 8.589 50.6769 10.4732 50.9461 12.8468C51.1908 15.2203 51.827 17.8386 52.7324 19.2089C54.2006 21.4357 57.4306 22.1942 59.9755 20.9218C62.4959 19.6494 63.3768 16.7864 61.9086 14.5596Z" fill="white"/>
<path fill-rule="evenodd" clip-rule="evenodd" d="M51.2154 21.5334C49.4291 21.5334 46.5172 22.3654 44.0457 23.3442C41.5987 24.3475 39.5677 25.0571 39.5677 26.1827C39.5677 27.3083 41.5743 28.0424 44.0457 29.0457C46.4927 30.0489 49.4046 30.8809 51.2154 30.8809V30.8564C54.1518 30.8564 56.5253 28.7765 56.5253 26.1827C56.5009 23.6379 54.1273 21.5334 51.2154 21.5334Z" fill="white"/>
<path fill-rule="evenodd" clip-rule="evenodd" d="M75.6607 30.8809C77.447 30.8809 80.3589 30.0489 82.8304 29.0701C85.2774 28.0668 87.2839 27.3572 87.2839 26.2316C87.2839 25.106 85.2774 24.3719 82.8059 23.3931C80.3589 22.3898 77.447 21.5579 75.6362 21.5579C72.6999 21.5579 70.3263 23.6378 70.3263 26.2316C70.3508 28.8009 72.7243 30.8809 75.6607 30.8809Z" fill="white"/>
<path fill-rule="evenodd" clip-rule="evenodd" d="M27.6264 40.1059C27.6264 38.0505 26.8189 35.9461 24.6166 35.9461C22.3654 35.9461 21.6313 38.026 21.6313 40.1059C21.6313 42.2103 22.4143 44.1924 24.6411 44.1924C26.8923 44.1924 27.6264 42.2103 27.6264 40.1059ZM18.2789 50.5056V34.1842C18.2789 33.597 18.8417 33.6214 18.8417 33.6214H20.9951C20.9951 33.6214 21.5579 33.6214 21.5579 34.1842V35.2365C21.5579 35.2609 21.5824 35.2609 21.5824 35.2609C21.6068 35.2609 21.6068 35.2365 21.6313 35.2365C22.4633 33.8906 23.8091 33.2544 25.3507 33.2544C29.2904 33.2544 31.0766 36.5334 31.0766 40.2038C31.0766 43.6541 29.2169 46.8841 25.5465 46.8841C24.0293 46.8841 22.6101 46.2234 21.7781 44.951C21.7781 44.951 21.7781 44.9265 21.7536 44.9265H21.7292C21.7292 44.9265 21.7047 44.9265 21.7047 44.951V50.4811C21.7047 51.0684 21.1419 51.0684 21.1419 51.0684H18.8417C18.8417 51.0684 18.2789 51.0684 18.2789 50.5056Z" fill="white"/>
<path fill-rule="evenodd" clip-rule="evenodd" d="M39.7146 40.2283C39.7146 40.2038 39.6901 40.2283 39.6901 40.2283C39.1028 40.7422 37.9038 40.7666 36.8516 40.9624C35.7749 41.1826 34.7961 41.5497 34.7961 42.871C34.7961 44.1924 35.7994 44.5105 36.925 44.5105C39.6167 44.5105 39.7146 42.3082 39.7146 41.5497V40.2283ZM34.7472 37.5856H32.3002C31.7374 37.5856 31.7619 37.194 31.8108 36.9983C32.3002 34.1353 35.0164 33.2544 37.6591 33.2544C40.155 33.2544 43.1893 33.8172 43.1893 36.9249V43.6541C43.1893 44.5105 43.2627 45.3425 43.4095 45.9542C43.4585 46.1745 43.6297 46.517 43.0669 46.517H40.5465C40.1306 46.517 40.0327 46.1255 39.9837 45.9542C39.9348 45.734 39.9103 45.5138 39.8859 45.2935C39.8859 45.2691 39.8614 45.2935 39.8614 45.2935C38.7602 46.4436 37.1697 46.8596 35.6526 46.8596C33.279 46.8596 31.3704 45.6361 31.3704 42.9934C31.3704 40.0815 33.5237 39.3719 35.6526 39.0782C37.7815 38.7601 39.739 38.8335 39.739 37.3898C39.739 35.8727 38.7113 35.6524 37.5123 35.6524C36.3867 35.6524 35.6036 36.044 35.3345 37.0227C35.2611 37.1696 35.1877 37.5856 34.7472 37.5856Z" fill="white"/>
<path fill-rule="evenodd" clip-rule="evenodd" d="M81.6803 40.2283C81.6803 40.2038 81.6558 40.2283 81.6558 40.2283C81.0685 40.7422 79.8695 40.7666 78.8173 40.9624C77.7406 41.1826 76.7618 41.5497 76.7618 42.871C76.7618 44.1924 77.7651 44.5105 78.8907 44.5105C81.5824 44.5105 81.6803 42.3082 81.6803 41.5497V40.2283ZM76.7129 37.5856H74.2659C73.7031 37.5856 73.7276 37.194 73.7765 36.9983C74.2659 34.1353 76.9821 33.2544 79.6248 33.2544C82.1207 33.2544 85.155 33.8172 85.155 36.9249V43.6541C85.155 44.5105 85.2284 45.3425 85.3752 45.9542C85.4241 46.1745 85.5954 46.517 85.0326 46.517H82.5122C82.0963 46.517 81.9984 46.1255 81.9494 45.9542C81.9005 45.734 81.876 45.5138 81.8516 45.2935C81.8516 45.2691 81.8271 45.2935 81.8271 45.2935C80.7259 46.4436 79.1354 46.8596 77.6183 46.8596C75.2447 46.8596 73.3361 45.6361 73.3361 42.9934C73.3361 40.0815 75.4649 39.3719 77.6183 39.0782C79.7472 38.7601 81.7047 38.8335 81.7047 37.3898C81.7047 35.8727 80.677 35.6524 79.478 35.6524C78.3524 35.6524 77.5693 36.044 77.3002 37.0227C77.2268 37.1696 77.1533 37.5856 76.7129 37.5856Z" fill="white"/>
<path fill-rule="evenodd" clip-rule="evenodd" d="M99.2007 40.2283C99.2007 40.2038 99.1762 40.2283 99.1762 40.2283C98.5889 40.7422 97.3899 40.7666 96.3377 40.9624C95.261 41.1826 94.2822 41.5497 94.2822 42.871C94.2822 44.1924 95.2855 44.5105 96.3866 44.5105C99.0783 44.5105 99.1762 42.3082 99.1762 41.5497V40.2283H99.2007ZM94.2333 37.5856H91.7863C91.2235 37.5856 91.248 37.194 91.2969 36.9983C91.7863 34.1353 94.5025 33.2544 97.1452 33.2544C99.6411 33.2544 102.675 33.8172 102.675 36.9249V43.6541C102.675 44.5105 102.749 45.3425 102.896 45.9542C102.945 46.1745 103.116 46.517 102.553 46.517H100.033C99.6166 46.517 99.5188 46.1255 99.4698 45.9542C99.4209 45.734 99.3964 45.5138 99.3719 45.2935C99.3719 45.2691 99.3475 45.2935 99.3475 45.2935C98.2463 46.4436 96.6558 46.8596 95.1387 46.8596C92.7651 46.8596 90.8564 45.6361 90.8564 42.9934C90.8564 40.0815 93.0098 39.3719 95.1387 39.0782C97.2675 38.7601 99.2251 38.8335 99.2251 37.3898C99.2251 35.8727 98.1974 35.6524 96.9739 35.6524C95.8483 35.6524 95.0653 36.044 94.7961 37.0227C94.7227 37.1696 94.6737 37.5856 94.2333 37.5856Z" fill="white"/>
<path fill-rule="evenodd" clip-rule="evenodd" d="M44.3394 45.9542V34.1842C44.3394 33.597 44.9022 33.597 44.9022 33.597H47.08C47.08 33.597 47.6428 33.597 47.6428 34.1842V35.9705C47.6428 35.995 47.6673 35.995 47.6673 35.995C47.6917 35.995 47.6917 35.9705 47.6917 35.9705C48.3279 34.3555 50.0164 33.2544 51.7048 33.2544C51.7537 33.2544 51.8271 33.2544 51.9005 33.2544C52.0963 33.2789 52.4633 33.3767 52.4633 33.8417V36.0929C52.4633 36.6802 52.1208 36.6068 51.9005 36.5823C51.6803 36.5578 51.4356 36.5578 51.2154 36.5578C48.695 36.5578 47.8141 38.442 47.8141 40.6932V45.9298C47.8141 46.4926 47.2513 46.4926 47.2513 46.4926H44.9266C44.9022 46.517 44.3394 46.517 44.3394 45.9542Z" fill="white"/>
<path fill-rule="evenodd" clip-rule="evenodd" d="M53.3687 45.9544V34.1844C53.3687 33.5971 53.9315 33.6216 53.9315 33.6216H56.0603C56.0603 33.6216 56.6231 33.6216 56.6231 34.2088V35.3589C56.6231 35.3834 56.6476 35.3834 56.6476 35.3834C56.6721 35.3834 56.6965 35.3589 56.6965 35.3589C57.6019 34.062 58.8988 33.3035 60.5138 33.3035C62.1044 33.3035 63.4992 33.9152 64.1843 35.4568C64.9184 34.3312 66.2398 33.3035 67.9771 33.3035C70.6443 33.3035 72.5775 34.5759 72.5775 37.9283V46.0033C72.5775 46.5906 72.0147 46.5661 72.0147 46.5661H69.69C69.69 46.5661 69.1272 46.5661 69.1272 46.0033V39.2496C69.1272 37.5367 68.9804 36.093 66.9983 36.093C65.0408 36.093 64.6982 37.7325 64.6982 39.372V45.9788C64.6982 46.5661 64.1354 46.5416 64.1354 46.5416H61.8107C61.8107 46.5416 61.2479 46.5416 61.2479 45.9788V39.2986C61.2479 37.8059 61.3458 36.0686 59.168 36.0686C58.4828 36.0686 56.8434 36.509 56.8434 39.0539V45.9788C56.8434 46.5416 56.2806 46.5416 56.2806 46.5416H53.9559C53.9315 46.5172 53.3687 46.5172 53.3687 45.9544Z" fill="white"/>
<path fill-rule="evenodd" clip-rule="evenodd" d="M86.4763 45.9542V30.318C86.4763 30.318 86.4763 29.7307 87.0391 29.7307H89.3638C89.9266 29.7307 89.9266 30.318 89.9266 30.318V45.9542C89.9266 46.517 89.3638 46.517 89.3638 46.517H87.0391C87.0391 46.517 86.4763 46.517 86.4763 45.9542Z" fill="white"/>
<path fill-rule="evenodd" clip-rule="evenodd" d="M108.426 30.318V33.0342C108.426 33.0342 108.426 33.6215 108.989 33.6215H110.408C110.971 33.6215 110.971 34.1843 110.971 34.1843V35.4078C110.971 35.995 110.408 35.995 110.408 35.995H108.989C108.989 35.995 108.426 35.995 108.426 36.5578V42.3817C108.426 43.5807 108.719 43.8743 109.894 43.8743C110.065 43.8743 110.237 43.8743 110.408 43.8499C110.922 43.8009 110.971 43.7764 110.971 44.4127V46.0277C110.971 46.0277 110.971 46.5415 110.408 46.6149C109.943 46.6639 109.429 46.6639 108.94 46.6639C106.811 46.6639 104.975 46.1745 104.975 43.5807V36.5334C104.975 36.5334 104.976 35.9706 104.413 35.9706H103.434C103.434 35.9706 102.871 35.9706 102.871 35.3833V34.1598C102.871 34.1598 102.871 33.597 103.434 33.597H104.413C104.976 33.597 104.975 33.0097 104.975 33.0097V30.2936C104.975 30.2936 104.975 29.7063 105.538 29.7063H107.863C108.45 29.7308 108.426 30.318 108.426 30.318Z" fill="white"/>
<path fill-rule="evenodd" clip-rule="evenodd" d="M101.697 30.4894V31.982H101.941V31.3948H102.137C102.284 31.3948 102.382 31.4192 102.431 31.4437C102.529 31.4926 102.577 31.615 102.577 31.7863V31.9086V31.9576C102.577 31.9576 102.577 31.9576 102.577 31.982C102.577 31.982 102.577 31.982 102.577 32.0065H102.822V31.982C102.822 31.982 102.822 31.9331 102.798 31.9086C102.798 31.8597 102.798 31.8352 102.798 31.7863V31.6639C102.798 31.5905 102.773 31.5171 102.724 31.4437C102.675 31.3703 102.602 31.3214 102.48 31.2969C102.577 31.2724 102.651 31.2479 102.7 31.2235C102.798 31.1745 102.847 31.0767 102.847 30.9298C102.847 30.7341 102.773 30.6117 102.626 30.5383C102.553 30.5138 102.406 30.4894 102.235 30.4894H101.697ZM102.577 30.9543C102.577 31.0767 102.529 31.1501 102.431 31.1745C102.382 31.199 102.284 31.199 102.186 31.199H101.941V30.6607H102.161C102.308 30.6607 102.406 30.6851 102.48 30.7096C102.553 30.783 102.577 30.8564 102.577 30.9543ZM103.556 31.2479C103.556 31.615 103.434 31.9331 103.165 32.2023C102.896 32.4714 102.602 32.5938 102.21 32.5938C101.843 32.5938 101.525 32.4714 101.281 32.2023C101.011 31.9331 100.889 31.615 100.889 31.2479C100.889 30.8809 101.011 30.5383 101.281 30.2936C101.55 30.0245 101.843 29.9021 102.21 29.9021C102.577 29.9021 102.896 30.0245 103.165 30.2936C103.434 30.5628 103.556 30.8809 103.556 31.2479ZM102.21 30.0734C102.529 30.0734 102.798 30.1957 103.018 30.416C103.238 30.6362 103.36 30.9298 103.36 31.2479C103.36 31.566 103.238 31.8597 103.018 32.0799C102.798 32.3001 102.529 32.4225 102.21 32.4225C101.892 32.4225 101.623 32.3001 101.403 32.0799C101.183 31.8597 101.06 31.566 101.06 31.2479C101.06 30.9298 101.158 30.6362 101.403 30.416C101.623 30.1957 101.892 30.0734 102.21 30.0734Z" fill="white"/>
</svg>
