<svg width="233" height="60" viewBox="0 0 233 60" fill="none" xmlns="http://www.w3.org/2000/svg">
<g clip-path="url(#clip0_21_1346)">
<path d="M32.3201 7.06904C32.4536 5.24996 33.0191 3.48981 33.9691 1.93675C34.2196 1.50933 34.4976 1.13431 34.7644 0.705257C37.1485 1.22766 39.4561 2.05302 41.6337 3.16496C40.8347 4.2133 40.3051 5.4441 40.092 6.74807C39.8773 8.17279 40.0432 9.63027 40.5685 10.9731C41.1331 12.2756 41.9662 13.4423 43.0128 14.3957C44.0153 15.3178 45.1427 16.0919 46.3612 16.695C48.7213 17.8591 51.2767 18.5689 53.8957 18.7878C54.4243 18.8402 54.956 18.8402 55.4895 18.8402C55.5935 19.1612 55.7545 19.5346 55.8602 19.9096C54.8731 20.0357 53.8795 20.1061 52.8842 20.1241C49.1649 20.2306 45.392 19.7507 41.9394 18.5193C38.4836 17.2272 35.2961 15.1425 33.6016 12.0949C32.6547 10.5994 32.2058 8.83891 32.3201 7.06904V7.06904ZM51.3929 32.5749C45.3367 32.254 39.2789 30.9717 33.7528 28.3499C30.9387 27.0678 28.3254 25.3791 25.9955 23.3371C23.6586 21.2393 21.6388 18.7272 20.4175 15.7844C19.1477 12.8445 18.724 9.60439 19.1945 6.43364C19.4742 4.6339 20.0109 2.88493 20.7882 1.2424C17.4423 2.19125 14.3052 3.76992 11.5429 5.89487C11.4909 6.32556 11.4372 6.80538 11.3852 7.2328C11.1185 10.7209 11.8568 14.2107 13.5107 17.2878C15.1045 20.3305 17.5406 23.0014 20.302 25.1418C23.1333 27.2744 26.2447 29.001 29.5473 30.2724C36.189 32.8926 43.4144 33.9636 50.5911 33.9096C52.668 33.8922 54.7426 33.7676 56.8067 33.5362C56.8588 33.2152 56.9141 32.8943 56.9661 32.5242C55.113 32.6752 53.2516 32.6916 51.3961 32.5733L51.3929 32.5749ZM28.4398 20.3321C30.5872 21.9673 32.9472 23.298 35.4539 24.2869C40.5034 26.2652 46.0295 27.12 51.5165 27.0136C53.3993 26.9979 55.2796 26.8732 57.1482 26.6402C57.16 26.4961 57.1417 26.351 57.0946 26.2144C57.0946 26.0507 57.0425 25.8918 57.0425 25.7297C55.6065 25.7837 54.1722 25.7837 52.7378 25.7297C48.3783 25.5026 44.1003 24.4504 40.1278 22.628C38.1394 21.6804 36.2832 20.4741 34.6066 19.04C32.8966 17.5341 31.5046 15.6974 30.5133 13.6392C29.536 11.5201 29.2033 9.15712 29.5571 6.84796C29.9018 4.64124 30.7735 2.55181 32.0973 0.759298C32.19 0.623376 32.2973 0.497279 32.4177 0.384284C30.3631 0.0713889 28.2795 -5.36268e-05 26.2086 0.171393C25.358 0.225435 24.5628 0.384284 23.7643 0.490729C22.7399 2.43223 22.1081 4.55904 21.9055 6.74807C21.6453 9.36825 22.1641 12.0081 23.3935 14.3302C24.5091 16.695 26.324 18.7272 28.4398 20.3321ZM50.4952 39.5414C42.7347 39.2187 34.9774 37.6139 27.856 34.4074C24.2431 32.815 20.8786 30.7034 17.8675 28.1386C14.8377 25.5708 12.2325 22.4692 10.533 18.7878C9.05237 15.5972 8.36369 12.092 8.52622 8.57401C4.0652 13.1193 1.24024 19.0352 0.500025 25.3821C-0.240191 31.7291 1.14678 38.1431 4.44065 43.6055C7.73452 49.0678 12.7464 53.2654 18.6803 55.5314C24.6142 57.7973 31.1298 58.0018 37.1924 56.1124C41.2137 54.857 44.9084 52.7189 48.0102 49.8523C51.112 46.9857 53.5437 43.4619 55.13 39.5348C53.5802 39.5839 52.0353 39.5823 50.4952 39.5283V39.5414ZM43.5332 4.23432C43.0625 5.08622 42.8041 6.04041 42.7802 7.015C42.7753 7.89276 43.0388 8.75087 43.5332 9.47306C44.4894 10.9698 46.1905 11.9852 48.0509 12.5747C49.5666 13.0332 51.1425 13.2543 52.7248 13.2265C50.3383 9.59877 47.2032 6.53172 43.5332 4.23432V4.23432Z" fill="white"/>
<path d="M98.9175 52.8242C97.1859 51.9254 95.745 50.5477 94.764 48.8529C93.753 47.1405 93.2345 45.1788 93.2662 43.1868C93.2343 41.1955 93.7523 39.2345 94.7624 37.5223C95.7708 35.8498 97.2055 34.4797 98.9175 33.5543C100.76 32.5718 102.821 32.0723 104.907 32.1034C106.978 32.0661 109.024 32.5663 110.848 33.556C112.568 34.4681 114.005 35.8413 115 37.5239C116.01 39.2386 116.544 41.1959 116.544 43.1901C116.544 45.1842 116.01 47.1415 115 48.8562C113.992 50.5283 112.558 51.8987 110.848 52.8258C109.022 53.81 106.978 54.3099 104.907 54.2784C102.826 54.2663 100.776 53.7686 98.9175 52.8242V52.8242ZM108.286 49.1428C109.279 48.5683 110.098 47.7321 110.654 46.724C111.224 45.6345 111.522 44.4215 111.522 43.1901C111.522 41.9586 111.224 40.7456 110.654 39.6561C110.098 38.6473 109.279 37.81 108.286 37.234C107.233 36.6624 106.054 36.3632 104.857 36.3632C103.66 36.3632 102.482 36.6624 101.428 37.234C100.437 37.8107 99.6202 38.6472 99.0639 39.6544C98.4936 40.7442 98.1955 41.9574 98.1955 43.1892C98.1955 44.421 98.4936 45.6343 99.0639 46.724C99.6202 47.7328 100.439 48.5701 101.432 49.1461C102.476 49.732 103.655 50.0329 104.85 50.0189C106.053 50.0412 107.239 49.7387 108.286 49.1428ZM86.4538 7.22635C85.7301 6.06364 84.6682 5.19243 83.2647 4.56194C81.8596 3.93146 80.2187 3.64815 78.3371 3.64815H69.1162V24.9519H74.0438V19.0368H78.342C80.2236 19.0368 81.8677 18.747 83.2696 18.1231C84.5692 17.5709 85.6785 16.6453 86.4587 15.4619C87.2068 14.2239 87.5938 12.7975 87.571 11.3499C87.6017 9.89455 87.2137 8.46137 86.4538 7.22307V7.22635ZM82.6402 11.3908C82.6402 12.5519 82.2548 13.4722 81.4791 14.1011C80.705 14.7283 79.5487 15.0689 78.0997 15.0689H74.091V7.66031H78.0997C79.5959 7.66031 80.7066 7.99766 81.4791 8.62651C82.2515 9.25535 82.6402 10.1773 82.6402 11.3892V11.3908ZM95.1478 3.6416H90.2723V24.9929H94.9071L105.05 11.096V24.9929H109.929V3.6416H105.292L95.1478 17.5368V3.6416ZM128.764 20.3944H118.864L116.98 24.9929H111.91L121.423 3.6416H126.302L135.817 24.9929H130.649L128.764 20.3944ZM127.171 16.6656L123.788 8.4824L120.409 16.6656H127.171ZM88.6265 53.8886V32.5374H83.7038V40.9613H74.0438V32.5374H69.1162V53.8886H74.0438V45.1257H83.7038V53.8886H88.6265ZM139.872 47.8851C139.872 46.5783 139.535 45.5106 138.859 44.641C138.084 43.7311 137.058 43.0733 135.912 42.7512C136.822 42.3614 137.597 41.7047 138.132 40.8679C138.667 40.0311 138.935 39.0502 138.906 38.0561C138.906 36.3137 138.223 34.9561 136.829 33.9883C135.437 33.0188 133.5 32.5374 131.036 32.5374H121.135V53.8886H131.618C134.276 53.8886 136.302 53.3564 137.753 52.2887C139.15 51.2733 139.875 49.7733 139.875 47.8835L139.872 47.8851ZM130.599 41.3494H126.013V36.1205H130.602C131.664 36.1205 132.436 36.3612 133.017 36.805C133.287 37.0472 133.5 37.3462 133.642 37.6807C133.784 38.0152 133.851 38.3771 133.838 38.7407C133.838 39.6135 133.549 40.2407 133.017 40.678C132.487 41.1136 131.664 41.3494 130.602 41.3494H130.599ZM131.42 44.7753C133.737 44.7753 134.897 45.6481 134.897 47.4397C134.897 49.2804 133.737 50.2007 131.42 50.1991H126.011V44.7851L131.42 44.7753ZM148.712 52.816C146.98 51.9175 145.538 50.5398 144.557 48.8448C143.547 47.1321 143.029 45.1704 143.061 43.1786C143.029 41.1868 143.547 39.2251 144.557 37.5124C145.565 35.8395 147 34.4693 148.712 33.5445C150.556 32.5639 152.616 32.0682 154.702 32.1034C156.773 32.0657 158.819 32.566 160.642 33.556C162.363 34.468 163.801 35.8412 164.796 37.5239C165.807 39.2386 166.34 41.1959 166.34 43.1901C166.34 45.1842 165.807 47.1415 164.796 48.8562C163.788 50.5293 162.354 51.9 160.642 52.8258C158.817 53.8105 156.772 54.311 154.702 54.28C152.621 54.261 150.573 53.7624 148.714 52.8225L148.712 52.816ZM158.087 49.1444C159.081 48.5681 159.899 47.7302 160.455 46.7208C161.025 45.6314 161.323 44.4188 161.323 43.1876C161.323 41.9564 161.025 40.7438 160.455 39.6544C159.899 38.6455 159.08 37.8077 158.087 37.2308C157.033 36.6593 155.855 36.3602 154.658 36.3602C153.46 36.3602 152.282 36.6593 151.228 37.2308C150.236 37.8078 149.418 38.6456 148.862 39.6544C148.292 40.744 147.994 41.9569 147.994 43.1884C147.994 44.4199 148.292 45.6329 148.862 46.7224C149.417 47.7312 150.235 48.5685 151.228 49.1444C152.273 49.7298 153.451 50.0301 154.646 50.0157C155.85 50.0403 157.038 49.7395 158.087 49.1444V49.1444ZM170.937 48.9021C171.959 50.5501 173.39 51.9018 175.088 52.8242C176.874 53.792 178.808 54.226 181.029 54.226C182.748 54.2412 184.452 53.9122 186.043 53.2581C187.507 52.6226 188.798 51.6433 189.809 50.4021L186.619 47.497C185.17 49.1919 183.384 50.0091 181.257 50.0091C180.026 50.0312 178.811 49.7304 177.731 49.1363C176.725 48.5622 175.891 47.7262 175.316 46.7159C174.745 45.6262 174.447 44.4129 174.447 43.1811C174.447 41.9492 174.745 40.7359 175.316 39.6463C175.891 38.6363 176.725 37.8003 177.731 37.2259C178.811 36.6323 180.026 36.332 181.257 36.3546C183.384 36.3546 185.17 37.2259 186.619 38.8684L189.809 35.9616C188.795 34.7358 187.503 33.7732 186.043 33.1547C184.452 32.5012 182.748 32.1717 181.029 32.1853C178.808 32.1853 176.827 32.6225 175.088 33.5904C173.36 34.4698 171.919 35.8305 170.937 37.5108C169.922 39.1583 169.439 41.0481 169.439 43.177C169.439 45.3059 169.917 47.2546 170.932 48.9021H170.937ZM209.816 36.5659H203.005V53.8984H198.128V36.5561H191.359V32.5374H209.819L209.816 36.5659ZM218.558 32.5472H213.68V53.8984H218.316L228.457 40.0016V53.8984H233.336V32.5374H228.7L218.558 46.4325V32.5472Z" fill="white"/>
</g>
<defs>
<clipPath id="clip0_21_1346">
<rect width="233" height="60" fill="white"/>
</clipPath>
</defs>
</svg>
