<svg width="167" height="91" viewBox="0 0 167 91" fill="none" xmlns="http://www.w3.org/2000/svg">
<path d="M95.6313 54.0123H91.7559V48.6768H75.8995V29.1087H80.3071V44.9105H88.4127V29.1087H92.8339V44.9105H95.6313V54.0123ZM110.587 48.6768H98.8517V29.1087H110.137V32.6976H103.259V37.0506H109.659V40.6258H103.259V45.1016H110.587V48.6768ZM130.66 48.6768H126.239V40.7076H118.133V48.6768H113.726V29.1087H118.133V36.9141H126.239V29.1087H130.66V48.6768ZM148.891 32.6976H143.31V48.6768H138.888V32.6976H133.335V29.1087H148.891V32.6976ZM155.932 41.9357V48.6768H151.524V29.1087H158.429C163.36 29.1087 165.825 31.1874 165.825 35.3448C165.825 37.3098 165.116 38.9018 163.696 40.1209C162.286 41.3308 160.399 41.9357 158.033 41.9357H155.932ZM155.932 32.4929V38.5925H157.665C160.012 38.5925 161.186 37.5646 161.186 35.5086C161.186 33.4981 160.012 32.4929 157.665 32.4929H155.932Z" fill="#777F88"/>
<path d="M82.2792 67.6665H81.0605V58.3669H78.1735C77.8398 60.988 77.5762 62.8402 77.3828 63.9235C77.1893 65.0067 76.9935 65.8047 76.7952 66.3173C76.5969 66.8299 76.3285 67.2119 75.99 67.4634C75.6515 67.71 75.2453 67.8333 74.7714 67.8333C74.3893 67.8333 74.058 67.7826 73.7776 67.681V66.5349C74.0242 66.6751 74.2974 66.7453 74.5973 66.7453C74.8971 66.7453 75.1776 66.5663 75.4387 66.2085C75.7047 65.8506 75.9731 64.9197 76.2439 63.4157C76.5196 61.9117 76.8242 59.8612 77.1579 57.2643H82.2792V67.6665ZM90.8316 64.2499H85.587C85.6064 65.0768 85.8288 65.7152 86.2544 66.1649C86.6799 66.6147 87.2651 66.8396 88.0098 66.8396C88.8465 66.8396 89.6154 66.5639 90.3166 66.0126V67.1297C89.6637 67.6036 88.8005 67.8406 87.7269 67.8406C86.6775 67.8406 85.853 67.5045 85.2533 66.8323C84.6537 66.1553 84.3538 65.205 84.3538 63.9815C84.3538 62.8257 84.6803 61.8851 85.3331 61.1597C85.9908 60.4295 86.8057 60.0644 87.7777 60.0644C88.7497 60.0644 89.5017 60.3787 90.0337 61.0074C90.5656 61.636 90.8316 62.5089 90.8316 63.626V64.2499ZM89.613 63.2416C89.6081 62.5549 89.4413 62.0205 89.1124 61.6385C88.7884 61.2564 88.3363 61.0654 87.7559 61.0654C87.195 61.0654 86.7186 61.2661 86.3269 61.6675C85.9352 62.0689 85.6934 62.5936 85.6015 63.2416H89.613ZM96.7654 61.254H93.8275V67.6665H92.6379V60.2384H96.7654V61.254ZM103.642 67.6665H102.452V66.5059H102.423C101.906 67.3957 101.144 67.8406 100.138 67.8406C99.3985 67.8406 98.8182 67.6447 98.3975 67.253C97.9816 66.8613 97.7737 66.3414 97.7737 65.6934C97.7737 64.3055 98.5909 63.4979 100.225 63.2706L102.452 62.9587C102.452 61.6965 101.942 61.0654 100.922 61.0654C100.027 61.0654 99.2196 61.3701 98.4991 61.9794V60.7607C99.2293 60.2965 100.071 60.0644 101.023 60.0644C102.769 60.0644 103.642 60.988 103.642 62.8354V67.6665ZM102.452 63.909L100.661 64.1556C100.109 64.233 99.6935 64.3708 99.4131 64.5691C99.1326 64.7625 98.9923 65.1083 98.9923 65.6064C98.9923 65.9691 99.1205 66.2665 99.3768 66.4986C99.6379 66.7259 99.9837 66.8396 100.414 66.8396C101.004 66.8396 101.49 66.634 101.872 66.223C102.259 65.8071 102.452 65.2824 102.452 64.6489V63.909ZM111.302 67.6665H110.12V61.2467H108.393C108.195 63.6502 107.854 65.338 107.371 66.31C106.892 67.282 106.246 67.7681 105.434 67.7681C105.187 67.7681 104.974 67.7342 104.795 67.6665V66.6437C104.965 66.7307 105.149 66.7743 105.347 66.7743C106.411 66.7743 107.095 64.5957 107.4 60.2384H111.302V67.6665ZM119.942 67.6665H118.868V61.74C118.762 61.948 118.6 62.2405 118.382 62.6177L114.951 67.6665H113.718V60.2384H114.806V66.0924C114.864 65.9522 114.99 65.7128 115.183 65.3743L118.709 60.2384H119.942V67.6665ZM121.726 67.4561V66.2883C122.374 66.6509 123.131 66.8323 123.997 66.8323C125.307 66.8323 125.963 66.4164 125.963 65.5846C125.963 64.7625 125.244 64.3514 123.808 64.3514H123.075V63.3431H123.772C125.034 63.3431 125.665 62.9514 125.665 62.168C125.665 61.8343 125.52 61.5683 125.23 61.3701C124.94 61.1718 124.543 61.0727 124.04 61.0727C123.32 61.0727 122.597 61.254 121.871 61.6167V60.5068C122.693 60.207 123.448 60.0571 124.135 60.0571C125.943 60.0571 126.848 60.722 126.848 62.0519C126.848 62.4823 126.712 62.8547 126.441 63.169C126.175 63.4786 125.801 63.6841 125.317 63.7856V63.8219C125.868 63.8654 126.311 64.0516 126.644 64.3805C126.978 64.7093 127.145 65.1252 127.145 65.6281C127.145 66.3052 126.872 66.8444 126.325 67.2458C125.779 67.6472 125.027 67.8479 124.069 67.8479C123.049 67.8479 122.268 67.7173 121.726 67.4561ZM134.297 67.6665H133.108V66.5059H133.079C132.561 67.3957 131.8 67.8406 130.794 67.8406C130.054 67.8406 129.473 67.6447 129.053 67.253C128.637 66.8613 128.429 66.3414 128.429 65.6934C128.429 64.3055 129.246 63.4979 130.881 63.2706L133.108 62.9587C133.108 61.6965 132.598 61.0654 131.577 61.0654C130.682 61.0654 129.875 61.3701 129.154 61.9794V60.7607C129.885 60.2965 130.726 60.0644 131.679 60.0644C133.424 60.0644 134.297 60.988 134.297 62.8354V67.6665ZM133.108 63.909L131.316 64.1556C130.765 64.233 130.349 64.3708 130.068 64.5691C129.788 64.7625 129.648 65.1083 129.648 65.6064C129.648 65.9691 129.776 66.2665 130.032 66.4986C130.293 66.7259 130.639 66.8396 131.069 66.8396C131.659 66.8396 132.145 66.634 132.527 66.223C132.914 65.8071 133.108 65.2824 133.108 64.6489V63.909ZM143.8 70.3722H142.777V67.6665H136.539V60.2384H137.728V66.6582H141.515V60.2384H142.705V66.6582H143.8V70.3722ZM151.685 67.6665H150.612V61.74C150.505 61.948 150.343 62.2405 150.125 62.6177L146.694 67.6665H145.461V60.2384H146.549V66.0924C146.607 65.9522 146.733 65.7128 146.926 65.3743L150.452 60.2384H151.685V67.6665ZM160.317 67.6665H159.244V61.74C159.137 61.948 158.975 62.2405 158.758 62.6177L155.327 67.6665H154.093V60.2384H155.181V66.0924C155.24 65.9522 155.365 65.7128 155.559 65.3743L159.084 60.2384H160.317V67.6665Z" fill="#31363A"/>
<path d="M28.4733 75.856V29.7682H37.0325V68.6136H61.1298V75.856H28.4733Z" fill="#E05863"/>
<path d="M27.5209 61.6584C24.0095 61.6584 20.7395 61.0878 17.7108 59.9466C14.7261 58.7615 12.1145 57.1155 9.87594 55.0086C7.68129 52.8578 5.96946 50.334 4.74045 47.437C3.51144 44.5401 2.89694 41.3798 2.89694 37.9561C2.89694 34.5325 3.51144 31.3722 4.74045 28.4752C5.96946 25.5783 7.70323 23.0764 9.94178 20.9695C12.1803 18.8188 14.792 17.1728 17.7767 16.0316C20.7614 14.8464 24.0315 14.2539 27.5868 14.2539C31.3616 14.2539 34.8072 14.9123 37.9236 16.2291C41.04 17.502 43.6736 19.4113 45.8244 21.9571L40.2938 27.1585C38.6259 25.3588 36.7604 24.0201 34.6975 23.1422C32.6345 22.2205 30.3959 21.7596 27.9818 21.7596C25.5677 21.7596 23.3511 22.1546 21.332 22.9447C19.3568 23.7348 17.6231 24.8541 16.1307 26.3025C14.6822 27.751 13.541 29.4628 12.707 31.438C11.917 33.4132 11.5219 35.5859 11.5219 37.9561C11.5219 40.3264 11.917 42.4991 12.707 44.4743C13.541 46.4495 14.6822 48.1613 16.1307 49.6098C17.6231 51.0582 19.3568 52.1775 21.332 52.9676C23.3511 53.7576 25.5677 54.1527 27.9818 54.1527C30.3959 54.1527 32.6345 53.7138 34.6975 52.8359C36.7604 51.9141 38.6259 50.5315 40.2938 48.688L45.8244 53.9552C43.6736 56.4571 41.04 58.3664 37.9236 59.6832C34.8072 61 31.3396 61.6584 27.5209 61.6584Z" fill="#DADADA"/>
</svg>
