<svg width="38" height="39" viewBox="0 0 38 39" fill="none" xmlns="http://www.w3.org/2000/svg">
<path d="M17.208 38.8062V10.6033H22.4457V34.3743H37.1918V38.8062H17.208Z" fill="#E05863"/>
<path d="M15.6875 29.4931C13.5388 29.4931 11.5377 29.1439 9.68435 28.4456C7.85789 27.7204 6.25975 26.7131 4.88986 25.4238C3.54688 24.1077 2.49934 22.5632 1.74726 20.7905C0.995184 19.0177 0.619141 17.0838 0.619141 14.9888C0.619141 12.8937 0.995184 10.9598 1.74726 9.18702C2.49934 7.41423 3.5603 5.88322 4.93019 4.59392C6.30002 3.27782 7.89816 2.27057 9.72468 1.57222C11.5511 0.847011 13.5522 0.484375 15.7279 0.484375C18.0378 0.484375 20.1463 0.887277 22.0534 1.69308C23.9604 2.47202 25.572 3.6404 26.8881 5.19827L23.5038 8.38122C22.4831 7.27991 21.3416 6.46071 20.0791 5.92348C18.8168 5.35946 17.4469 5.07741 15.9696 5.07741C14.4923 5.07741 13.1359 5.31919 11.9003 5.80263C10.6916 6.28612 9.63062 6.97106 8.71742 7.8574C7.83103 8.74379 7.13268 9.79131 6.62232 11C6.13883 12.2087 5.89711 13.5383 5.89711 14.9888C5.89711 16.4392 6.13883 17.7688 6.62232 18.9775C7.13268 20.1862 7.83103 21.2337 8.71742 22.1201C9.63062 23.0064 10.6916 23.6914 11.9003 24.1748C13.1359 24.6583 14.4923 24.9001 15.9696 24.9001C17.4469 24.9001 18.8168 24.6315 20.0791 24.0943C21.3416 23.5302 22.4831 22.6841 23.5038 21.556L26.8881 24.7792C25.572 26.3102 23.9604 27.4786 22.0534 28.2844C20.1463 29.0902 18.0244 29.4931 15.6875 29.4931Z" fill="#9DA0A8"/>
</svg>
