<svg width="44" height="45" viewBox="0 0 44 45" fill="none" xmlns="http://www.w3.org/2000/svg">
<g clip-path="url(#clip0_1087_5010)">
<path d="M7.83594 9.15918L9.51524 15.3045L12.4074 13.7216L7.83594 9.15918Z" fill="#9C1006"/>
<path d="M35.7316 35.323L34.0523 29.1777L31.1602 30.7606L35.7316 35.323Z" fill="#9C1006"/>
<path d="M28.7344 34.485L34.8918 36.161L30.3204 31.5986L28.7344 34.485Z" fill="#9C1006"/>
<path d="M14.9265 9.99727L8.67578 8.32129L13.2472 12.8837L14.9265 9.99727Z" fill="#9C1006"/>
<path d="M34.8918 8.32129L28.7344 9.99727L30.3204 12.8837L34.8918 8.32129Z" fill="#9C1006"/>
<path d="M9.51524 29.1777L7.83594 35.323L12.4074 30.7606L9.51524 29.1777Z" fill="#9C1006"/>
<path d="M34.0523 15.3976L35.7316 9.15918L31.1602 13.7216L34.0523 15.3976Z" fill="#9C1006"/>
<path d="M8.67578 36.161L14.8332 34.485L13.2472 31.5986L8.67578 36.161Z" fill="#9C1006"/>
<path d="M9.34895 27.474C9.33088 27.4605 9.31191 27.4482 9.29217 27.4372L1.9292 23.3464H19.1292L12.9716 29.4918L10.0339 27.9002L10.019 27.8925L9.68607 27.7264L9.34895 27.474Z" stroke="#9C1006" stroke-linejoin="round"/>
<path d="M27.4479 10.5006C27.453 10.5108 27.4584 10.5207 27.4642 10.5305L29.1333 13.3623L22.8906 19.5926V2.39233L27.0806 9.76736L27.2613 10.1281L27.4479 10.5006Z" stroke="#9C1006" stroke-linejoin="round"/>
<path d="M33.846 16.8221C33.87 16.84 33.8956 16.8558 33.9224 16.8692L34.2857 17.0505L41.639 21.1359H24.439L30.5966 14.9905L33.5022 16.5647L33.846 16.8221Z" stroke="#9C1006" stroke-linejoin="round"/>
<path d="M10.0193 16.5899C10.0294 16.5849 10.0394 16.5795 10.0492 16.5737L12.8882 14.907L19.1295 21.136H1.89893L9.2846 16.9566L9.64612 16.7762L10.0193 16.5899Z" stroke="#9C1006" stroke-linejoin="round"/>
<path d="M33.5492 27.8925C33.5391 27.8975 33.5291 27.9029 33.5194 27.9087L30.6804 29.5754L24.439 23.3464H41.6696L34.2839 27.5258L33.9224 27.7062L33.5492 27.8925Z" stroke="#9C1006" stroke-linejoin="round"/>
<path d="M27.0288 34.6502C27.0152 34.6682 27.0028 34.6872 26.9918 34.707L22.8906 42.0594V24.8789L29.1355 31.0326L27.461 33.9572C27.4564 33.9653 27.4521 33.9734 27.4479 33.9817L27.2815 34.3138L27.0288 34.6502Z" stroke="#9C1006" stroke-linejoin="round"/>
<path d="M16.3547 10.2046C16.3728 10.1806 16.3886 10.155 16.4021 10.1282L16.5837 9.76562L20.6795 2.42285V19.5926L14.5205 13.4458L16.0969 10.5477L16.3547 10.2046Z" stroke="#9C1006" stroke-linejoin="round"/>
<path d="M16.1213 33.9819C16.1162 33.9718 16.1108 33.9618 16.105 33.952L14.436 31.1202L20.6787 24.8899V42.0901L16.4886 34.7151L16.3079 34.3543L16.1213 33.9819Z" stroke="#9C1006" stroke-linejoin="round"/>
</g>
<defs>
<clipPath id="clip0_1087_5010">
<rect width="44" height="44" fill="white" transform="translate(0 0.5)"/>
</clipPath>
</defs>
</svg>
