<svg width="41" height="41" viewBox="0 0 41 41" fill="none" xmlns="http://www.w3.org/2000/svg">
<g clip-path="url(#clip0_67_4781)">
<path d="M38.5 0.927246H2.5C1.39531 0.927246 0.5 1.82256 0.5 2.92725V28.9272C0.5 30.0319 1.39531 30.9272 2.5 30.9272H15.5413L10.634 39.4266C10.3573 39.9053 10.5213 40.5166 11 40.7926C11.4787 41.0693 12.0893 40.9053 12.366 40.4266L17.8507 30.9273H23.1487L28.6334 40.4266C28.91 40.9053 29.5207 41.0693 29.9994 40.7926C30.478 40.516 30.642 39.9053 30.3654 39.4266L25.4587 30.9272H38.5C39.6047 30.9272 40.5 30.0319 40.5 28.9272V2.92725C40.5 1.82264 39.6047 0.927246 38.5 0.927246ZM38.5 28.9272H2.5V2.92725H38.5V28.9272Z" fill="#E0545F"/>
<path d="M33.0149 8.06987C32.5416 7.78253 31.9263 7.9412 31.6429 8.41386L26.2317 17.4313L17.1249 10.1459C16.9049 9.96987 16.621 9.89386 16.347 9.93854C16.0696 9.9812 15.8236 10.1399 15.6683 10.3719L7.66831 22.3719C7.36167 22.8306 7.48565 23.4519 7.94565 23.7585C8.11565 23.8725 8.30831 23.9272 8.49901 23.9272C8.82237 23.9272 9.13971 23.7712 9.33237 23.4819L16.7264 12.3899L25.875 19.7085C26.1003 19.8885 26.3917 19.9625 26.6771 19.9119C26.961 19.8612 27.2091 19.6892 27.3578 19.4412L33.3578 9.4412C33.6417 8.96854 33.4883 8.35323 33.0149 8.06987Z" fill="#E0545F"/>
</g>
<defs>
<clipPath id="clip0_67_4781">
<rect width="40" height="40" fill="white" transform="translate(0.5 0.927246)"/>
</clipPath>
</defs>
</svg>
