<svg width="40" height="41" viewBox="0 0 40 41" fill="none" xmlns="http://www.w3.org/2000/svg">
<path d="M27.3362 36.1361V34.6174C27.3362 33.8119 27.0162 33.0393 26.4466 32.4697C25.877 31.9001 25.1044 31.5801 24.2989 31.5801H5.31538C4.50982 31.5801 3.73726 31.9001 3.16764 32.4697C2.59802 33.0393 2.27802 33.8119 2.27802 34.6174V36.1361C1.67385 36.1361 1.09443 36.3761 0.667216 36.8033C0.240005 37.2305 0 37.81 0 38.4141C0 39.0183 0.240005 39.5977 0.667216 40.0249C1.09443 40.4521 1.67385 40.6922 2.27802 40.6922H27.3362C27.9404 40.6922 28.5198 40.4521 28.947 40.0249C29.3742 39.5977 29.6142 39.0183 29.6142 38.4141C29.6142 37.81 29.3742 37.2305 28.947 36.8033C28.5198 36.3761 27.9404 36.1361 27.3362 36.1361ZM3.7967 34.6174C3.7967 34.2147 3.9567 33.8284 4.24151 33.5436C4.52632 33.2588 4.9126 33.0988 5.31538 33.0988H24.2989C24.7016 33.0988 25.0879 33.2588 25.3727 33.5436C25.6575 33.8284 25.8175 34.2147 25.8175 34.6174V36.1361H3.7967V34.6174ZM27.3362 39.1735H2.27802C2.07663 39.1735 1.88349 39.0935 1.74108 38.9511C1.59868 38.8087 1.51868 38.6155 1.51868 38.4141C1.51868 38.2127 1.59868 38.0196 1.74108 37.8772C1.88349 37.7348 2.07663 37.6548 2.27802 37.6548H27.3362C27.5376 37.6548 27.7308 37.7348 27.8732 37.8772C28.0156 38.0196 28.0956 38.2127 28.0956 38.4141C28.0956 38.6155 28.0156 38.8087 27.8732 38.9511C27.7308 39.0935 27.5376 39.1735 27.3362 39.1735Z" fill="#E0545F"/>
<path d="M39.3336 32.7645L23.7596 17.1905L27.0779 13.8722C27.3936 14.031 27.742 14.1142 28.0954 14.1152C28.5457 14.1148 28.9857 13.9809 29.3599 13.7306C29.7342 13.4803 30.0259 13.1246 30.1981 12.7086C30.3704 12.2926 30.4155 11.8349 30.3277 11.3933C30.24 10.9516 30.0234 10.5459 29.7052 10.2273L21.0791 1.61643C20.6986 1.22554 20.1906 0.984132 19.6472 0.936099C19.1039 0.888066 18.5613 1.0366 18.1182 1.35469C17.6751 1.67278 17.3608 2.13931 17.2325 2.66948C17.1042 3.19965 17.1704 3.75825 17.4191 4.24375L14.1008 7.56206L12.4834 5.91429C12.0591 5.49344 11.4864 5.25619 10.8888 5.25367C10.5873 5.24792 10.2878 5.30351 10.0084 5.41708C9.72907 5.53064 9.47573 5.69981 9.26377 5.91429C8.83644 6.3411 8.59609 6.92013 8.59556 7.52409C8.59609 8.12806 8.83644 8.70709 9.26377 9.13389L10.8736 10.7513L7.54767 14.1152C7.12375 13.9217 6.65181 13.8588 6.19201 13.9345C5.73221 14.0102 5.30538 14.2212 4.96591 14.5404C4.75354 14.752 4.58504 15.0035 4.47006 15.2804C4.35508 15.5573 4.2959 15.8542 4.2959 16.154C4.2959 16.4538 4.35508 16.7507 4.47006 17.0276C4.58504 17.3045 4.75354 17.5559 4.96591 17.7676L13.5616 26.3177C13.9426 26.6888 14.4413 26.9149 14.9715 26.9569C15.5016 26.9988 16.0297 26.854 16.4642 26.5474C16.8988 26.2409 17.2124 25.792 17.3507 25.2785C17.4891 24.765 17.4434 24.2193 17.2217 23.736L20.54 20.4101L36.114 35.9841C36.5411 36.4107 37.1201 36.6504 37.7238 36.6504C38.3275 36.6504 38.9065 36.4107 39.3336 35.9841C39.7602 35.557 39.9998 34.978 39.9998 34.3743C39.9998 33.7707 39.7602 33.1917 39.3336 32.7645ZM22.1498 16.6514L21.0791 17.7296L16.2421 22.559L8.72464 15.0416L12.5213 11.2828L13.5996 10.2122L18.429 5.37516L22.2257 9.17186L25.9844 12.9306L22.2257 16.6893L22.1498 16.6514ZM18.9302 2.72507C19.0724 2.58364 19.2649 2.50426 19.4655 2.50426C19.6661 2.50426 19.8586 2.58364 20.0008 2.72507L28.5966 11.2828C28.6677 11.3534 28.7242 11.4374 28.7628 11.5299C28.8013 11.6225 28.8212 11.7217 28.8212 11.822C28.8212 11.9222 28.8013 12.0214 28.7628 12.114C28.7242 12.2065 28.6677 12.2905 28.5966 12.3611C28.526 12.4323 28.442 12.4887 28.3494 12.5273C28.2569 12.5659 28.1577 12.5857 28.0574 12.5857C27.9572 12.5857 27.8579 12.5659 27.7654 12.5273C27.6729 12.4887 27.5889 12.4323 27.5183 12.3611L18.9302 3.76536C18.7978 3.62454 18.724 3.43852 18.724 3.24522C18.724 3.05192 18.7978 2.8659 18.9302 2.72507ZM10.342 8.04044C10.2703 7.97012 10.2132 7.88625 10.1741 7.79371C10.135 7.70116 10.1147 7.60178 10.1142 7.50131C10.1171 7.30102 10.199 7.10997 10.342 6.96978C10.4102 6.89782 10.4928 6.84103 10.5844 6.80309C10.6759 6.76515 10.7745 6.74691 10.8736 6.74957C11.0701 6.75238 11.258 6.83132 11.3975 6.96978L13.0073 8.57958L12.4682 9.11111L11.9366 9.65024L10.342 8.04044ZM15.7106 25.2243C15.64 25.2955 15.556 25.352 15.4635 25.3905C15.3709 25.4291 15.2717 25.4489 15.1714 25.4489C15.0712 25.4489 14.9719 25.4291 14.8794 25.3905C14.7869 25.352 14.7029 25.2955 14.6323 25.2243L6.07455 16.6514C5.93312 16.5091 5.85374 16.3166 5.85374 16.116C5.85374 15.9154 5.93312 15.723 6.07455 15.5807C6.21682 15.4393 6.40928 15.3599 6.60988 15.3599C6.81049 15.3599 7.00295 15.4393 7.14522 15.5807L15.7106 24.1688C15.7817 24.2394 15.8382 24.3234 15.8768 24.4159C15.9153 24.5085 15.9352 24.6077 15.9352 24.7079C15.9352 24.8082 15.9153 24.9074 15.8768 25C15.8382 25.0925 15.7817 25.1765 15.7106 25.2471V25.2243ZM38.2554 34.9059C38.1131 35.0473 37.9206 35.1267 37.72 35.1267C37.5194 35.1267 37.327 35.0473 37.1847 34.9059L21.6106 19.3394L22.1498 18.8003L22.6889 18.2612L38.2554 33.858C38.39 33.9992 38.4651 34.1868 38.4651 34.3819C38.4651 34.577 38.39 34.7647 38.2554 34.9059Z" fill="#E0545F"/>
</svg>
