<svg width="20" height="20" viewBox="0 0 20 20" fill="none" xmlns="http://www.w3.org/2000/svg">
<path d="M0.5 10C0.5 4.75992 4.74336 0.5 9.953 0.5C15.2191 0.5 19.5 4.76435 19.5 10C19.5 15.2379 15.2379 19.5 10 19.5C4.76214 19.5 0.5 15.2379 0.5 10ZM1.5 10C1.5 14.6871 5.31286 18.5 10 18.5C14.6871 18.5 18.5 14.6871 18.5 10C18.5 5.31014 14.6644 1.5 9.953 1.5C5.28805 1.5 1.5 5.31568 1.5 10Z" stroke="#FF4747"/>
<path d="M9.5 5.5H10.5V11.5H9.5V5.5ZM9.5 13.5H10.5V14.5H9.5V13.5Z" stroke="#FF4747"/>
</svg>
