<svg width="41" height="41" viewBox="0 0 41 41" fill="none" xmlns="http://www.w3.org/2000/svg">
<path d="M33.333 10.9272H33.458C33.833 10.9272 34.1768 10.6772 34.333 10.3647C34.3955 10.2397 34.4268 10.1147 34.4268 9.98975C34.4268 9.9585 34.4268 9.896 34.4268 9.86475C34.3955 7.98975 33.6455 6.23975 32.333 4.896C30.9268 3.55225 29.1455 2.80225 27.208 2.80225H10.333C8.08301 2.80225 6.27051 4.61475 6.27051 6.86475V34.9897C6.27051 37.271 8.11426 39.0522 9.70801 39.0522H30.333C31.4268 39.0522 32.4268 38.6147 33.208 37.8647C33.9893 37.1147 34.3955 36.0835 34.3955 34.9897V14.0522C34.3955 13.521 33.9893 13.1147 33.458 13.1147C32.9268 13.1147 32.5205 13.521 32.5205 14.0522V34.9897C32.5205 35.5835 32.3018 36.1147 31.8955 36.5522C31.4893 36.9897 30.9268 37.2085 30.333 37.2085H9.70801C9.17676 37.2085 8.14551 36.271 8.14551 35.021V6.86475C8.14551 5.646 9.11426 4.67725 10.333 4.67725H26.2705V6.86475C26.2705 9.11475 28.083 10.9272 30.333 10.9272H33.333ZM28.1455 6.86475V4.771C29.208 4.9585 30.1768 5.4585 30.958 6.23975C31.7393 7.021 32.2393 7.98975 32.4268 9.05225H30.333C29.1143 9.05225 28.1455 8.0835 28.1455 6.86475Z" fill="#E0545F"/>
<path d="M12.5205 19.3647C12.5205 19.896 12.9268 20.3022 13.458 20.3022H27.208C27.7393 20.3022 28.1455 19.896 28.1455 19.3647C28.1455 18.8335 27.7393 18.4272 27.208 18.4272H13.458C12.9268 18.4272 12.5205 18.8335 12.5205 19.3647Z" fill="#E0545F"/>
<path d="M24.083 10.9272C24.6143 10.9272 25.0205 10.521 25.0205 9.98975C25.0205 9.4585 24.6143 9.05225 24.083 9.05225H16.583C16.0518 9.05225 15.6455 9.4585 15.6455 9.98975C15.6455 10.521 16.0518 10.9272 16.583 10.9272H24.083Z" fill="#E0545F"/>
<path d="M13.458 24.9897H22.5205C23.0518 24.9897 23.458 24.5835 23.458 24.0522C23.458 23.521 23.0518 23.1147 22.5205 23.1147H13.458C12.9268 23.1147 12.5205 23.521 12.5205 24.0522C12.5205 24.5835 12.9268 24.9897 13.458 24.9897Z" fill="#E0545F"/>
<path d="M28.1455 29.7085C28.5205 30.0835 29.1143 30.0835 29.458 29.7085C29.833 29.3335 29.833 28.7397 29.458 28.396C27.8643 26.8022 25.3018 26.8022 23.708 28.396C22.958 29.146 22.5205 30.146 22.5205 31.2397C22.5205 32.3335 22.958 33.3335 23.708 34.1147C24.4893 34.896 25.5518 35.3022 26.583 35.3022C27.6143 35.3022 28.6768 34.896 29.458 34.1147C29.833 33.7397 29.833 33.146 29.458 32.8022C29.083 32.4272 28.4893 32.4272 28.1455 32.8022C27.3018 33.646 25.8955 33.646 25.0518 32.8022C24.6455 32.396 24.4268 31.8335 24.4268 31.2397C24.4268 30.646 24.6455 30.1147 25.0518 29.7085C25.8955 28.8335 27.2705 28.8335 28.1455 29.7085Z" fill="#E0545F"/>
<path d="M27.208 24.9897C27.7258 24.9897 28.1455 24.57 28.1455 24.0522C28.1455 23.5345 27.7258 23.1147 27.208 23.1147C26.6902 23.1147 26.2705 23.5345 26.2705 24.0522C26.2705 24.57 26.6902 24.9897 27.208 24.9897Z" fill="#E0545F"/>
</svg>
