<svg width="50" height="50" viewBox="0 0 50 50" fill="none" xmlns="http://www.w3.org/2000/svg">
<g clip-path="url(#clip0_21_667)">
<path d="M35.5489 42.3606H9.20041C7.993 42.3606 7 43.3423 7 44.561V47.7996C7 49.0182 7.993 50 9.20041 50H35.5376C36.745 50 37.738 49.007 37.7493 47.7996V44.561C37.7493 43.3423 36.7675 42.3606 35.5489 42.3606ZM35.673 44.561V47.7996C35.673 47.8673 35.6166 47.9237 35.5489 47.9237H9.20041C9.1327 47.9237 9.07628 47.8673 9.07628 47.7996V44.561C9.07628 44.4933 9.1327 44.4369 9.20041 44.4369H35.5489C35.6166 44.4369 35.673 44.4933 35.673 44.561Z" fill="#708879"/>
<path d="M42.7594 5.52924C41.5858 3.15958 39.566 1.37668 37.0609 0.530373C34.5558 -0.315937 31.8702 -0.146675 29.5005 1.02688C27.1196 2.20042 25.348 4.22028 24.5017 6.71408C23.7795 8.81293 23.3732 11.0133 23.283 13.2363L22.8655 23.471L20.7779 22.7601C19.6495 22.3765 18.4534 22.4554 17.3927 22.9858C16.3319 23.5162 15.5308 24.4189 15.1471 25.536L14.944 26.1341C14.2331 28.2442 15.181 30.5462 17.167 31.5392L16.693 32.9497C16.5463 33.3785 16.5802 33.8411 16.7833 34.2586C16.9864 34.6649 17.3362 34.9696 17.765 35.1162L31.2609 39.7089C31.4301 39.7653 31.6107 39.7992 31.8138 39.7992H32.5134L32.299 39.7315C32.8181 39.5735 33.2469 39.1785 33.4274 38.6369L33.9126 37.2151C34.206 37.2715 34.4994 37.3054 34.7815 37.3054C35.4698 37.3054 36.1243 37.1474 36.7337 36.8427C37.7944 36.3124 38.5955 35.4096 38.9792 34.2925L39.1823 33.6944C39.566 32.566 39.487 31.3699 38.9566 30.3092C38.4263 29.2485 37.5235 28.4473 36.4064 28.0637L34.3189 27.3528L40.2317 18.9912C41.5181 17.1632 42.5337 15.1772 43.2446 13.0783C44.1022 10.5845 43.9217 7.89891 42.7594 5.52924ZM31.9379 36.5832L31.5881 37.6326L18.7919 33.2769L19.1417 32.2275L31.9379 36.5832ZM38.5391 17.7951L32.2764 26.6644L24.9305 24.1594L25.3818 13.3153C25.4608 11.2954 25.8332 9.30943 26.4877 7.37984C27.1534 5.40512 28.5527 3.81406 30.4371 2.88876C32.3103 1.96346 34.4317 1.82805 36.4064 2.5051C38.3811 3.17086 39.9722 4.57009 40.8975 6.45454C41.8228 8.32771 41.9582 10.4491 41.2924 12.4239C40.6267 14.3422 39.7014 16.1476 38.5391 17.7951ZM19.3561 24.5994C19.6156 24.5994 19.8752 24.6446 20.1121 24.7236L35.7407 30.0384C36.3387 30.2415 36.8126 30.659 37.0948 31.2232C37.3769 31.7874 37.4107 32.4306 37.2076 33.0287L37.0045 33.6267C36.8014 34.2248 36.3839 34.6987 35.8196 34.9808C35.2554 35.2629 34.6122 35.2968 34.0142 35.0937L18.3969 29.7788C17.167 29.3613 16.5012 28.0185 16.93 26.7886L17.1331 26.1905C17.3362 25.5924 17.7537 25.1185 18.318 24.8364C18.6452 24.6784 18.995 24.5994 19.3561 24.5994Z" fill="#708879"/>
</g>
<defs>
<clipPath id="clip0_21_667">
<rect width="36.7863" height="50" fill="white" transform="translate(7)"/>
</clipPath>
</defs>
</svg>
