<svg width="56" height="55" viewBox="0 0 56 55" fill="none" xmlns="http://www.w3.org/2000/svg">
<g clip-path="url(#clip0_352_11996)">
<path d="M54.8437 47C54.8437 48.1042 54.4583 49.0417 53.6875 49.8125L50.3437 53.1875C49.5312 53.9583 48.5833 54.3437 47.5 54.3437C46.3958 54.3437 45.4583 53.9583 44.6875 53.1875L33.3437 41.8125C32.5521 41.0625 32.1562 40.125 32.1562 39C32.1562 37.8958 32.6042 36.8958 33.5 36L25.5 28L21.5625 31.9375C21.2708 32.2292 20.9167 32.375 20.5 32.375C20.0833 32.375 19.7292 32.2292 19.4375 31.9375C19.4792 31.9792 19.6094 32.1042 19.8281 32.3125C20.0469 32.5208 20.1771 32.6562 20.2187 32.7187C20.2604 32.7812 20.3646 32.901 20.5312 33.0781C20.6979 33.2552 20.8021 33.3958 20.8437 33.5C20.8854 33.6042 20.9479 33.7448 21.0312 33.9219C21.1146 34.099 21.1719 34.2708 21.2031 34.4375C21.2344 34.6042 21.25 34.7917 21.25 35C21.25 35.7917 20.9583 36.5 20.375 37.125C20.3125 37.1875 20.1406 37.375 19.8594 37.6875C19.5781 38 19.3802 38.2135 19.2656 38.3281C19.151 38.4427 18.9583 38.6146 18.6875 38.8437C18.4167 39.0729 18.1875 39.2344 18 39.3281C17.8125 39.4219 17.5833 39.5156 17.3125 39.6094C17.0417 39.7031 16.7708 39.75 16.5 39.75C15.6667 39.75 14.9583 39.4583 14.375 38.875L1.625 26.125C1.04167 25.5417 0.75 24.8333 0.75 24C0.75 23.7292 0.796875 23.4583 0.890625 23.1875C0.984375 22.9167 1.07812 22.6875 1.17187 22.5C1.26562 22.3125 1.42708 22.0833 1.65625 21.8125C1.88542 21.5417 2.05729 21.349 2.17187 21.2344C2.28646 21.1198 2.5 20.9219 2.8125 20.6406C3.125 20.3594 3.3125 20.1875 3.375 20.125C4 19.5417 4.70833 19.25 5.5 19.25C5.70833 19.25 5.89583 19.2656 6.0625 19.2969C6.22917 19.3281 6.40104 19.3854 6.57812 19.4687C6.75521 19.5521 6.89583 19.6146 7 19.6562C7.10417 19.6979 7.24479 19.8021 7.42187 19.9687C7.59896 20.1354 7.71875 20.2396 7.78125 20.2812C7.84375 20.3229 7.97917 20.4531 8.1875 20.6719C8.39583 20.8906 8.52083 21.0208 8.5625 21.0625C8.27083 20.7708 8.125 20.4167 8.125 20C8.125 19.5833 8.27083 19.2292 8.5625 18.9375L19.4375 8.0625C19.7292 7.77083 20.0833 7.625 20.5 7.625C20.9167 7.625 21.2708 7.77083 21.5625 8.0625C21.5208 8.02083 21.3906 7.89583 21.1719 7.6875C20.9531 7.47917 20.8229 7.34375 20.7812 7.28125C20.7396 7.21875 20.6354 7.09896 20.4687 6.92187C20.3021 6.74479 20.1979 6.60417 20.1562 6.5C20.1146 6.39583 20.0521 6.25521 19.9687 6.07812C19.8854 5.90104 19.8281 5.72917 19.7969 5.5625C19.7656 5.39583 19.75 5.20833 19.75 5C19.75 4.20833 20.0417 3.5 20.625 2.875C20.6875 2.8125 20.8594 2.625 21.1406 2.3125C21.4219 2 21.6198 1.78646 21.7344 1.67187C21.849 1.55729 22.0417 1.38542 22.3125 1.15625C22.5833 0.927083 22.8125 0.765625 23 0.671875C23.1875 0.578125 23.4167 0.484375 23.6875 0.390625C23.9583 0.296875 24.2292 0.25 24.5 0.25C25.3333 0.25 26.0417 0.541667 26.625 1.125L39.375 13.875C39.9583 14.4583 40.25 15.1667 40.25 16C40.25 16.2708 40.2031 16.5417 40.1094 16.8125C40.0156 17.0833 39.9219 17.3125 39.8281 17.5C39.7344 17.6875 39.5729 17.9167 39.3437 18.1875C39.1146 18.4583 38.9427 18.651 38.8281 18.7656C38.7135 18.8802 38.5 19.0781 38.1875 19.3594C37.875 19.6406 37.6875 19.8125 37.625 19.875C37 20.4583 36.2917 20.75 35.5 20.75C35.2917 20.75 35.1042 20.7344 34.9375 20.7031C34.7708 20.6719 34.599 20.6146 34.4219 20.5312C34.2448 20.4479 34.1042 20.3854 34 20.3437C33.8958 20.3021 33.7552 20.1979 33.5781 20.0312C33.401 19.8646 33.2812 19.7604 33.2187 19.7187C33.1562 19.6771 33.0208 19.5469 32.8125 19.3281C32.6042 19.1094 32.4792 18.9792 32.4375 18.9375C32.7292 19.2292 32.875 19.5833 32.875 20C32.875 20.4167 32.7292 20.7708 32.4375 21.0625L28.5 25L36.5 33C37.3958 32.1042 38.3958 31.6562 39.5 31.6562C40.5833 31.6562 41.5312 32.0417 42.3437 32.8125L53.6875 44.1562C54.4583 44.9687 54.8437 45.9167 54.8437 47Z" fill="#DA4551"/>
</g>
<defs>
<clipPath id="clip0_352_11996">
<rect width="55" height="55" fill="white" transform="translate(0.5)"/>
</clipPath>
</defs>
</svg>
