<svg width="225" height="60" viewBox="0 0 225 60" fill="none" xmlns="http://www.w3.org/2000/svg">
<path d="M46.8001 14.5V14.2L46.9001 14L46.7001 13.7L46.5001 13.6V13.9L46.4001 14.1L46.3001 14.5L46.7001 14.6L46.8001 14.5Z" fill="white"/>
<path d="M58.1001 21.8C57.8001 20.8 57.5001 19.9 57.2001 19V18.8C55.8001 15.2 53.8001 11.9 51.1001 9.1H51.0001C48.2001 6.3 44.9001 4 41.3001 2.4C37.6001 0.8 33.7001 0 29.7001 0C25.7001 0 21.8001 0.8 18.1001 2.3C14.5001 3.9 11.2001 6.2 8.4001 9H8.3001C5.6001 11.9 3.4001 15.2 2.0001 18.9V19C1.9001 19.1 1.9001 19.1 1.9001 19.2C1.6001 20.1 1.3001 20.9 1.1001 21.8C-0.399902 27.3 -0.299902 33.1 1.4001 38.5V38.6C3.2001 44.5 6.9001 49.6 11.8001 53.3C16.9001 57.1 23.0001 59.2 29.4001 59.2C35.8001 59.2 42.0001 57.2 47.1001 53.4C52.0001 49.8 55.6001 44.8 57.6001 39C59.4001 33.5 59.6001 27.6 58.1001 21.8ZM25.5001 1.3H25.8001L25.7001 1.1C26.0001 1.1 26.2001 1 26.5001 1L26.7001 1.1L27.7001 1L29.1001 1.2H29.2001V2C28.1001 2 27.0001 2.1 26.0001 2.3L25.7001 2V1.7L25.4001 1.6L25.5001 1.3ZM29.1001 4V4.5L28.5001 4.4V4.1L28.6001 3.9H28.9001L29.1001 4ZM25.4001 3.5L26.3001 3.3L26.4001 3C26.7001 3 27.0001 2.9 27.3001 2.9L27.5001 3L27.2001 3.6V4.2L27.0001 4.6H26.6001L26.4001 4.5L26.6001 4.3L26.4001 4.2V3.9L26.2001 3.7L25.9001 3.8L25.7001 4.1L25.4001 3.8V3.5ZM25.4001 5.5L25.7001 5.7L26.1001 5.6L26.7001 6L27.6001 6.2L27.8001 6L28.5001 5.9L28.7001 6L29.1001 5.9V6.1H28.7001L27.9001 6.2L27.5001 6.5L27.8001 6.9L28.0001 7.1L27.6001 7.5V8L26.9001 7.7L26.1001 7.3L25.0001 7.8L24.6001 7.6C23.7001 6.5 22.8001 5.4 21.8001 4.4C22.1001 4.3 22.3001 4.2 22.6001 4.1L22.4001 4.7L22.5001 5L22.9001 4.8L24.0001 5.1L24.8001 5.5H25.4001ZM12.0001 22.6L11.6001 23.1L11.4001 23.2C11.3001 22.8 11.3001 22.5 11.2001 22.1L11.9001 21.9L13.1001 22.2L13.4001 22H13.8001L14.1001 22.3L13.8001 22.9L12.8001 22.6H12.0001ZM12.4001 25.6C12.3001 25.6 12.3001 25.7 12.2001 25.7C12.1001 25.6 12.1001 25.6 12.1001 25.5L12.4001 25.6ZM7.5001 23.4L7.4001 22.2L7.6001 21.7L6.9001 20.1L6.3001 20L6.2001 19.5L6.8001 19.4H7.2001L7.3001 19.1C8.3001 18.7 9.4001 18.3 10.5001 18C10.4001 18.3 10.4001 18.6 10.4001 18.9L10.1001 19.1L9.5001 19.4L9.3001 20L9.8001 21L9.4001 21.2L9.0001 20.9L8.9001 20.6L8.7001 20.5L8.4001 21.6L8.1001 21.9L8.5001 23.1L9.1001 23.4L9.8001 23L10.0001 23.2L10.6001 23.1C10.7001 23.5 10.8001 23.8 10.9001 24.2L10.8001 24.3L10.9001 24.4C11.0001 24.6 11.0001 24.8 11.1001 25L10.7001 24.5L10.3001 24.8L10.2001 25.2L9.8001 25.1L9.9001 24.7L9.6001 24.6L9.2001 24.7L8.9001 25L8.5001 25.3V25.9L8.3001 26.1L8.0001 25.5V24.8L8.1001 24.7V24.2L7.5001 23.4ZM16.9001 9.5L16.8001 9.6C16.1001 9.4 15.5001 9.2 14.8001 9.1C15.4001 8.4 16.1001 7.8 16.8001 7.2L16.9001 8.2L16.8001 8.8L16.9001 9.5ZM16.9001 10.4L17.1001 11.4L18.5001 11.5L19.1001 12.1L19.7001 12L20.3001 12.2L20.6001 12.5L21.2001 12.4L22.7001 13L23.2001 13.6L23.9001 13.3L24.1001 13.1C25.4001 13.7 26.6001 14.2 27.9001 14.8C22.3001 14.8 16.7001 15.4 11.2001 16.7C11.7001 14.2 12.8001 11.8 14.4001 9.8C15.2001 9.9 16.0001 10.2 16.9001 10.4ZM19.6001 5.4C20.0001 5.1 20.4001 4.9 20.9001 4.7C21.4001 5.3 22.0001 5.9 22.7001 6.7H22.2001L21.8001 6.2H21.1001L20.9001 5.7L20.5001 5.5H19.9001L19.6001 5.4ZM22.7001 6.7C22.9001 6.9 23.0001 7.1 23.2001 7.3L23.0001 7.2L22.7001 6.7ZM25.8001 11.3L26.0001 11.2L26.1001 11.1C26.8001 12.1 27.5001 13.1 28.3001 14.2C27.3001 13.7 26.3001 13.2 25.3001 12.8L25.9001 12.1L26.0001 11.8L25.8001 11.3ZM27.7001 15.5C24.2001 17.3 20.8001 19.4 17.5001 21.6L17.6001 21.1L17.1001 20.5L16.0001 19.8L14.5001 19.4L12.4001 19.2L11.8001 18.9L11.3001 18.4L10.9001 18.2H10.8001C10.8001 18 10.9001 17.7 10.9001 17.5C16.4001 16.2 22.0001 15.5 27.7001 15.5ZM16.8001 22.3C16.2001 22.7 15.6001 23.2 15.0001 23.6L15.3001 23.1L16.4001 22.1L16.8001 22.3ZM14.4001 23.9C14.3001 24 14.2001 24 14.1001 24.1L14.2001 24L14.4001 23.9ZM9.8001 27.3L10.8001 26L11.3001 25.7L11.4001 25.6C11.5001 25.8 11.5001 26 11.6001 26.2C11.0001 26.7 10.4001 27.2 9.8001 27.7V27.3ZM28.3001 16.1C24.7001 21.8 21.4001 27.7 18.7001 33C16.1001 31.4 13.9001 29.1 12.5001 26.3C17.5001 22.4 22.8001 19 28.3001 16.1ZM29.1001 16.5V36.1C25.7001 36.1 22.3001 35.2 19.4001 33.5C22.3001 27.9 25.7001 21.8 29.1001 16.5ZM26.7001 10.5L26.8001 10.4V10.5L27.4001 10.8L28.7001 10.5L29.1001 10.2V13.9C28.2001 12.7 27.5001 11.5 26.7001 10.5ZM21.0001 3.1L22.0001 3.2L22.1001 3L23.0001 2.5L23.4001 2.9L23.9001 2.8H24.0001C23.5001 2.9 23.1001 3 22.6001 3.2L22.3001 3.3C21.9001 3.5 21.5001 3.6 21.1001 3.8C20.8001 3.5 20.5001 3.3 20.3001 3.1H21.0001ZM17.0001 3.7L17.4001 3.6L17.6001 3.5H17.9001L18.5001 3.4L19.0001 3.3L19.2001 3.2C19.6001 3.5 19.9001 3.8 20.3001 4.1C19.5001 4.4 18.8001 4.8 18.1001 5.3H17.6001L17.1001 5.7L16.5001 5.9L16.1001 6.3L16.4001 6.6C15.5001 7.3 14.7001 8.1 14.0001 9C12.6001 8.7 11.1001 8.6 9.7001 8.7C11.9001 6.6 14.4001 4.9 17.0001 3.7ZM8.7001 9.7C10.2001 9.3 11.8001 9.3 13.4001 9.7C11.7001 11.8 10.6001 14.3 10.2001 17C9.4001 17.2 8.6001 17.5 7.9001 17.7L8.2001 17.4L8.6001 17.2L9.1001 17.1L9.2001 16.5L9.6001 16.8L9.8001 16L9.4001 15.8H8.9001L8.6001 16L8.3001 15.9L8.4001 15.6L7.9001 15.1L7.5001 15.3L7.2001 15.1L7.0001 15.7V16.3L7.4001 16.5L7.8001 16.1V16.7L7.5001 17L7.2001 16.6L7.0001 16.5L6.7001 16.8L6.3001 16.6L6.1001 17L6.2001 17.2L6.1001 17.6V17.9H5.8001V17.3L5.4001 17.6L5.1001 18.3L4.7001 18.9C4.5001 19 4.3001 19.1 4.1001 19.2L4.6001 17.1V16.4L4.1001 17L3.8001 17.1L3.3001 17.6C4.7001 14.7 6.5001 12 8.7001 9.7ZM3.0001 18.3V18.5H2.9001C2.9001 18.4 2.9001 18.4 3.0001 18.3ZM2.7001 33.9L2.5001 32.8L2.2001 31.8L1.9001 31.6C1.8001 31 1.7001 30.4 1.6001 29.8L1.7001 29.4V26.9L2.0001 26.7V26.5L2.2001 26L2.1001 25L2.2001 21.8L2.5001 21.3H3.0001V21.7L3.2001 22.1L3.4001 21.9V22.3L3.3001 23.2L3.6001 23.9V24.6L3.0001 25.9L2.8001 27.5H2.4001V26.8L2.1001 27V28.6H2.5001L3.0001 29L3.3001 28.8L3.4001 28.3L3.5001 27.7L3.8001 26.2L4.0001 25.8L4.1001 25.3L4.3001 25.4V25.8L4.2001 26.2L4.1001 27.9L3.9001 29L3.4001 29.7L3.0001 31.2L3.2001 32.3L3.7001 31.9L4.1001 32.8L3.8001 33.8C3.5001 34.2 3.2001 34.5 3.0001 34.9L2.7001 33.9ZM4.5001 36.9L5.0001 37.4L5.5001 37.5L5.3001 38L4.5001 38.3L4.2001 37.9L3.8001 36.9L3.3001 36.2L3.2001 35.9C3.4001 35.5 3.6001 35.2 3.9001 34.8L4.0001 35L4.3001 35.3L4.5001 35.7L5.5001 37L5.4001 37.3L4.9001 36.9L4.8001 36.5L4.4001 36.1V36.6L4.5001 36.9ZM8.0001 36.4L7.9001 36.7L8.1001 37.3L7.6001 37.5L7.0001 36.8L6.0001 34.5L5.3001 33.9L5.1001 33.2C5.5001 32.8 5.9001 32.3 6.3001 31.9H6.6001L6.7001 32.3L6.9001 33L7.2001 33.1L7.4001 33.5L7.5001 33.8V33.7L8.0001 33.9L8.2001 34.2L8.8001 34.4L8.9001 34.3L9.1001 34.4L9.6001 34.3L10.0001 34.1L9.6001 33.3L9.2001 32.1V31.4L9.5001 30.8L9.0001 30.2L9.6001 29.5L9.8001 29C10.5001 28.3 11.3001 27.7 12.1001 27C13.6001 29.8 15.9001 32.2 18.6001 33.9C17.8001 35.6 17.0001 37.2 16.3001 38.8L16.1001 38.5L15.5001 38.1H15.0001L14.1001 36.6L13.6001 36.2H12.6001L12.3001 36.5L11.6001 36.4L11.2001 36.6L11.3001 37.2L11.5001 37.4V38.3L11.8001 38.6L12.3001 38.7L12.5001 39L12.9001 39.3L12.8001 39.6L12.6001 39.9L12.0001 39.4L11.8001 39.7L11.5001 40V40.6L11.7001 41.2V41.3L11.5001 41.5V42.1L11.3001 42.4V42.8L11.6001 43.2L11.4001 43.9L10.3001 43L9.8001 42.2V41.7L10.6001 41.3L10.3001 40.2L10.2001 40.1V40.2H9.8001L9.7001 40L9.1001 38.4L8.9001 38.3L8.6001 37.5L8.0001 36.4ZM17.1001 39.1L16.9001 39.3L16.7001 39.2C16.7001 39 16.8001 38.9 16.9001 38.7L17.1001 39.1ZM11.6001 52.2C10.7001 51.4 9.8001 50.6 8.9001 49.7C9.1001 49.7 9.3001 49.7 9.5001 49.7L9.7001 49.6L10.3001 49.5L10.9001 50L11.2001 50.1L11.5001 50.3L11.8001 50.4C11.7001 51 11.6001 51.6 11.6001 52.2ZM12.1001 49.1L11.9001 48.9L11.6001 48.1L10.7001 47.9L9.8001 47.1L9.6001 46.5L9.2001 46.3V46L9.0001 45.6C9.2001 45.8 9.4001 46 9.6001 46.2V46.3L10.0001 46.7L11.4001 47.8L11.7001 47.9C11.8001 47.9 11.8001 48 11.9001 48V48.5L12.2001 48.8C12.2001 48.9 12.1001 49.1 12.1001 49.1ZM29.2001 58.3C23.2001 58.2 17.3001 56.3 12.5001 52.7C12.4001 52 12.4001 51.2 12.6001 50.5H13.2001V50.3L13.0001 50.1L12.7001 49.7C12.7001 49.6 12.8001 49.5 12.8001 49.4L15.4001 51.1L16.3001 51.5L16.9001 52.1L17.9001 52.8L18.5001 53.5L19.6001 53.8L19.7001 54.2L20.1001 54.9L22.0001 56.2L23.6001 56.5L23.8001 56.7L24.8001 56.9L25.0001 56.8L24.0001 56.3L23.8001 56H25.0001L27.4001 55.6L27.8001 55.3H29.2001V58.3ZM29.0001 43.4L28.3001 43.5L28.1001 43.1H27.5001L26.6001 42.1L25.9001 42.2L25.0001 42L23.8001 39.5L22.8001 39.7L21.6001 38.2L20.9001 37.8L20.5001 37.9L19.2001 37.8L17.7001 37.3L17.6001 38L17.2001 38.1C17.2001 38 17.3001 38 17.3001 37.9C17.8001 36.7 18.5001 35.5 19.1001 34.2C22.1001 35.9 25.6001 36.9 29.1001 36.9L29.3001 43.3L29.0001 43.4ZM56.1001 35.1C53.7001 31.7 50.7001 28.8 47.4001 26.3C48.6001 23.7 49.1001 20.8 48.8001 17.9C52.9001 19 55.7001 20.5 57.1001 22C57.9001 26.4 57.6001 30.9 56.1001 35.1ZM42.3001 39.6L41.9001 40.3L40.9001 40.6L39.3001 41.6L39.0001 41.9L38.0001 42.2L37.2001 41.8L35.8001 42.3L35.1001 42.2L34.9001 41.7L33.4001 41.5L33.0001 42.2L33.2001 42.5L32.8001 43L31.7001 42.9L31.4001 42.6L30.5001 42.4L29.9001 42.7V36.9C33.4001 36.9 36.8001 35.9 39.9001 34.2C40.4001 35.3 40.9001 36.4 41.4001 37.4C41.7001 38 42.0001 38.5 42.2001 39.1V39.3L42.3001 39.6ZM29.9001 36.1V16.5C33.5001 22 36.7001 27.6 39.6001 33.5C36.6001 35.1 33.3001 36.1 29.9001 36.1ZM30.7001 16.2C36.2001 19.2 41.5001 22.6 46.5001 26.5C45.0001 29.2 42.9001 31.5 40.3001 33.1C37.4001 27.3 34.2001 21.6 30.7001 16.2ZM31.1001 15.5C36.8001 15.6 42.5001 16.2 48.0001 17.6C48.4001 20.4 48.0001 23.2 46.8001 25.7C41.9001 21.9 36.6001 18.5 31.1001 15.5ZM56.3001 19.3C56.5001 19.7 56.6001 20.1 56.7001 20.5C54.2001 18.8 51.5001 17.6 48.6001 16.9C48.4001 15.8 48.1001 14.7 47.7001 13.7L47.9001 13.2L47.5001 12.8L47.6001 12.6L47.5001 12.2H47.9001L47.8001 11.9L47.5001 11.5L47.6001 11.1L49.8001 13.4L50.0001 13.3L49.6001 12.7L48.4001 11.3L47.7001 10.7L47.5001 10.6L47.4001 10L46.7001 9.5C48.0001 9.4 49.2001 9.5 50.4001 9.8C53.0001 12.6 55.1001 15.8 56.3001 19.3ZM42.8001 4.2C42.9001 4.2 43.0001 4.3 43.1001 4.4V4.3L43.2001 4.4C45.4001 5.6 47.5001 7.1 49.4001 8.9C48.0001 8.7 46.6001 8.8 45.3001 9L45.2001 8.8L45.0001 8.6L44.8001 8.7L44.6001 8.5L44.3001 7.8L44.0001 7.5L43.6001 6.9L43.2001 6.1L42.6001 5.6L42.7001 5.4L42.4001 4.1L42.8001 4.2ZM46.6001 9.4V9.6L46.4001 9.7L45.9001 9.6C46.2001 9.6 46.4001 9.6 46.6001 9.4ZM41.3001 11.4V11.6L42.2001 12.3H42.5001L42.8001 12.5L43.0001 12.9L43.5001 13.1L43.9001 12.4L44.1001 12.6L45.0001 13.6L45.5001 13.2V12.8L45.3001 12.4L45.5001 12.2L45.8001 12.4L46.0001 12.8L46.7001 13.1C47.3001 14.3 47.7001 15.5 47.9001 16.8C42.4001 15.5 36.8001 14.8 31.2001 14.8C34.3001 13.3 37.5001 12 40.8001 10.9V11.2L41.3001 11.4ZM35.6001 5.5L36.0001 5.7C35.9001 5.9 35.7001 6 35.6001 6.2L35.5001 5.8L35.6001 5.5ZM35.5001 7.9V7.4L36.5001 7L36.3001 6.4C36.4001 6.3 36.5001 6.2 36.6001 6.1L36.7001 6.2L38.0001 7.2L39.0001 7.6L39.5001 8.1L39.8001 8.9L40.1001 9.1L40.5001 10L40.6001 10.1C37.2001 11.2 33.8001 12.6 30.6001 14.2C32.3001 11.7 33.9001 9.6 35.3001 7.8L35.5001 7.9ZM30.0001 1.3H30.2001L30.7001 1.9L30.3001 2.1C30.2001 2.1 30.1001 2.1 30.0001 2.1V1.3ZM29.9001 4.7L30.2001 5.3L29.9001 5.7V4.7ZM29.7001 6.1V5.8L29.9001 5.9L30.1001 6.4L30.4001 6.5L30.6001 6.2L30.5001 5.9L30.9001 5.8L31.2001 6L31.8001 5.7L31.9001 5.5L31.5001 5.1L30.7001 5L30.9001 4.5L31.3001 4.6L31.5001 4.4V3.9L32.1001 4L32.2001 4.2L31.9001 4.7L32.3001 5.1V5.7L32.2001 6.2L32.5001 6.3L33.5001 6.1L33.8001 6.5H34.1001L34.4001 7.2L34.7001 7.4C34.6001 7.6 34.4001 7.7 34.3001 7.9H34.2001L34.0001 7.8L34.3001 7.5L34.0001 7.3L33.8001 6.9L33.4001 6.8L32.2001 6.7L32.0001 6.9L31.9001 7.2L32.2001 7.3V7.6L32.4001 7.8L32.7001 7.6H32.9001L33.3001 8L33.0001 8.5L33.6001 8.6H33.7001C32.5001 10.1 31.2001 11.9 29.9001 13.9V9.6L30.0001 9.5L30.3001 8.9V8.7L30.2001 8.5L30.1001 8.1H30.4001V7.6L30.3001 7.3V7L30.2001 6.8L29.8001 6.6L29.7001 6.1ZM46.4001 52.8C41.6001 56.3 35.8001 58.2 29.9001 58.3V55.2L30.4001 55.1L30.5001 55.3L31.1001 55.6L31.6001 56.2H32.5001L33.5001 55.9L34.0001 56.4L32.3001 56.9V57.2L36.7001 56.4L36.6001 56.1L35.7001 56.3L35.2001 56.2L36.0001 56L37.3001 55.9H37.8001L39.2001 55.3L40.1001 54.9L40.0001 54.4L39.2001 54.5L39.0001 54L39.7001 53.6L40.4001 53.4L40.5001 53.5L39.9001 53.9L40.4001 54.1L40.9001 53.8L41.4001 53.3L41.1001 53.1L42.6001 52.2H42.8001L44.4001 51L45.5001 49.8L46.0001 48.9C46.0001 49.1 46.1001 49.2 46.1001 49.4L45.6001 50.1L45.7001 50.3L46.0001 50.4L46.3001 50.2C46.3001 50.4 46.4001 50.6 46.4001 50.7L46.2001 50.8L45.9001 51L45.7001 51.3L45.4001 51.6V51.8L45.1001 52.1L45.2001 52.7L46.5001 52C46.5001 52.3 46.5001 52.6 46.4001 52.8ZM43.7001 45.4L44.1001 45.1L44.3001 44.6L44.5001 44.5C44.6001 44.8 44.7001 45.1 44.8001 45.3L44.6001 45.6L44.2001 45.5L43.8001 45.7L43.7001 45.4ZM44.9001 46.5L45.1001 46.2C45.1001 46.3 45.2001 46.5 45.3001 46.7H45.2001L44.9001 46.5ZM45.9001 45.9C45.8001 45.8 45.8001 45.6 45.7001 45.4L46.0001 45.1L45.9001 45L45.6001 45.2C45.5001 45 45.5001 44.9 45.4001 44.7L45.6001 44.5L46.3001 43.6L46.7001 43.8L46.6001 44.3L47.0001 44.4L47.2001 44.2L47.7001 44.7V45L47.9001 45.3L48.3001 44.9L48.9001 44.1L49.0001 43.7L48.6001 43L47.8001 42.8L47.7001 42.7L48.3001 41.5L48.1001 41.2L48.2001 40.7L48.3001 40.5L48.1001 40.2L48.3001 40L47.8001 39.1L48.4001 38.3L48.1001 36.1L47.5001 37.2L47.0001 37.7L46.1001 37.3L45.4001 37.6L44.0001 36.4L42.6001 36.9L42.3001 37.3C42.3001 37.2 42.2001 37.1 42.2001 37C41.8001 36 41.2001 34.9 40.7001 33.8C43.5001 32.1 45.7001 29.7 47.2001 26.9C52.1001 30.9 54.7001 33.8 55.9001 35.9C54.0001 40.6 50.7001 44.7 46.5001 47.6C46.3001 47.1 46.1001 46.5 45.9001 45.9ZM47.2001 52.2C47.3001 51.9 47.2001 51.6 47.2001 51.3L47.9001 50.6L47.8001 50.4L47.2001 50.6C47.1001 49.9 46.9001 49.1 46.7001 48.4C50.9001 45.5 54.2001 41.5 56.3001 36.8C56.6001 37.4 56.7001 38.1 56.8001 38.8C55.0001 44.1 51.7001 48.8 47.2001 52.2ZM58.3001 28.6C58.3001 28.9 58.3001 29.3 58.3001 29.6C58.3001 32.2 58.0001 34.8 57.3001 37.3C57.2001 36.8 56.9001 36.3 56.7001 35.9C57.6001 33.6 58.1001 31.1 58.3001 28.6Z" fill="white"/>
<path d="M51.0001 42.1L51.4001 41.9L51.7001 40.9L52.5001 39.5L52.4001 38.4L52.2001 38.1L52.3001 37.4L51.6001 36.7L51.5001 36.3L52.1001 36L52.4001 34.5L51.9001 34L51.4001 34.9H50.7001L51.1001 36.1L50.8001 36.5L50.9001 37.1L51.6001 38.2L51.3001 40.1L51.0001 40.2L50.9001 41.3L49.9001 42.4L48.9001 44.4L49.4001 44.8L49.8001 44.6L51.0001 42.1Z" fill="white"/>
<path d="M32.5001 8.6L32.9001 8.3L32.7001 8H32.3001L31.9001 8.4L32.2001 8.7L32.5001 8.6Z" fill="white"/>
<path d="M20.9001 17.4V18L21.5001 18.3L22.0001 17.9L23.0001 17.8L23.2001 17L22.0001 15.9L20.5001 16.8L20.1001 17.3L20.2001 17.6L20.9001 17.4Z" fill="white"/>
<path d="M43.3001 5.1L43.5001 5.2L43.6001 5L43.5001 4.9L43.4001 4.6L43.2001 4.4C43.1001 4.4 43.1001 4.3 43.0001 4.3L42.8001 4.6L43.3001 5.1Z" fill="white"/>
<path d="M2.9001 25.2L3.3001 24.7L3.4001 24.1H3.2001L3.0001 24L2.8001 24.5L2.5001 24.8L2.4001 25.1L2.5001 25.6L2.9001 25.2Z" fill="white"/>
<path d="M30.8001 7.8V8.4L31.4001 8.8L31.7001 8.2L31.1001 7.9L30.8001 7.8Z" fill="white"/>
<path d="M13.2001 11.9V12.9L13.5001 13.2L14.3001 12.9L14.7001 11.8V11.5L15.2001 11.2L15.3001 10.8L14.8001 10.4L14.0001 10.8L13.2001 11.9Z" fill="white"/>
<path d="M31.1001 7.4L31.5001 7.3L31.6001 6.8L31.1001 6.4L30.9001 6.5L30.6001 7.1L30.8001 7.4H31.1001Z" fill="white"/>
<path d="M154.5 24.5C156.3 24.6 158.2 24.2 159.8 23.5C161.4 22.8 162.8 21.8 164 20.4L161.6 17.9C160.8 18.9 159.7 19.6 158.5 20.1C157.3 20.6 156 20.9 154.7 20.8C153.6 20.9 152.5 20.7 151.5 20.3C150.5 19.9 149.5 19.4 148.8 18.6C148 17.9 147.4 17 147 16C146.6 15 146.4 14 146.5 12.9C146.5 8.2 149.7 5.1 154.6 5.1C155.8 5.1 157 5.3 158.1 5.7C159.2 6.2 160.2 6.8 161 7.7L163.7 5.3C162.1 3 158.7 1.4 154.4 1.4C152.8 1.3 151.2 1.6 149.7 2.2C148.2 2.8 146.8 3.6 145.7 4.7C144.6 5.8 143.7 7.1 143.1 8.5C142.5 9.9 142.2 11.5 142.3 13C142.3 20 147 24.5 154.5 24.5Z" fill="white"/>
<path d="M81.4001 1.8H71.8001V24.3H75.9001V16.6H81.4001C88.8001 16.6 91.3001 12.9 91.3001 9.2C91.3001 5.6 89.4001 1.8 81.4001 1.8ZM81.3001 12.9H75.9001V5.4H81.5001C85.6001 5.4 87.0001 6.9 87.0001 9.1C87.0001 11.5 85.3001 12.9 81.3001 12.9Z" fill="white"/>
<path d="M183.3 8.7V24.3H187.4V1.8H183.9L170.9 17.4V1.8H166.8V24.3H170.2L183.3 8.7Z" fill="white"/>
<path d="M206.7 24.3H210.8V1.8H201.1C194.6 1.8 191.5 5 191.5 9.1C191.5 12.5 193.6 14.8 197.2 15.7L189.9 24.3H194.8L201.5 16.4H206.7V24.3ZM200.5 12.7C197.6 12.6 195.8 11.1 195.9 9.1C195.9 6.9 197.3 5.4 200.9 5.4H206.8V12.7H200.5Z" fill="white"/>
<path d="M131.8 24.6C133.6 24.7 135.5 24.3 137.1 23.6C138.8 22.9 140.2 21.8 141.4 20.4L139 17.9C138.2 18.9 137.1 19.6 135.9 20.1C134.7 20.6 133.4 20.9 132.1 20.8C131 20.9 129.9 20.7 128.9 20.3C127.9 19.9 126.9 19.4 126.2 18.6C125.4 17.9 124.8 17 124.4 16C124 15 123.8 14 123.9 12.9C123.9 8.2 127.1 5.1 132 5.1C133.2 5.1 134.4 5.3 135.5 5.7C136.6 6.2 137.6 6.8 138.4 7.7L141.1 5.3C139.5 3 136.1 1.4 131.8 1.4C130.2 1.3 128.6 1.6 127.1 2.2C125.6 2.8 124.2 3.6 123.1 4.7C122 5.8 121.1 7.1 120.5 8.5C119.9 9.9 119.6 11.5 119.7 13C119.6 20 124.4 24.6 131.8 24.6Z" fill="white"/>
<path d="M113.9 4.8C111.6 2.6 108.5 1.4 105.3 1.4C102.1 1.4 99.0001 2.6 96.7001 4.8C94.4001 7 93.1001 9.9 93.1001 13C93.1001 16.1 94.4001 19 96.7001 21.2C99.0001 23.4 102.1 24.6 105.3 24.6C108.5 24.6 111.6 23.4 113.9 21.2C116.2 19 117.5 16.1 117.5 13C117.5 9.9 116.2 7 113.9 4.8ZM112.7 16C112.3 16.9 111.7 17.8 111 18.5C110.3 19.2 109.4 19.8 108.4 20.2C107.4 20.6 106.4 20.8 105.3 20.8C104.2 20.8 103.2 20.6 102.2 20.2C101.2 19.8 100.3 19.2 99.6001 18.5C98.8001 17.8 98.3001 16.9 97.9001 16C97.5001 15 97.4001 14 97.4001 13C97.3001 12 97.5001 11 97.9001 10C98.3001 9.1 98.9001 8.2 99.6001 7.5C100.3 6.8 101.2 6.2 102.2 5.8C103.2 5.4 104.2 5.2 105.3 5.2C106.4 5.2 107.4 5.4 108.4 5.8C109.4 6.2 110.3 6.8 111 7.5C111.8 8.2 112.3 9.1 112.7 10C113.1 11 113.2 12 113.2 13C113.2 14 113.1 15.1 112.7 16Z" fill="white"/>
<path d="M214.9 33C208.4 33 205.3 36.2 205.3 40.3C205.3 43.7 207.4 46 211 46.9L203.7 55.5H208.6L215.3 47.6H220.6V55.5H224.7V33H214.9ZM220.6 43.9H214.3C211.5 43.8 209.7 42.3 209.7 40.3C209.7 38.1 211.1 36.6 214.7 36.6H220.6V43.9Z" fill="white"/>
<path d="M98.2001 45.8H110.8V42.3H98.2001V36.6H111.7V32.9H94.1001V55.5H112V51.8H98.2001V45.8Z" fill="white"/>
<path d="M129.3 32.9H115.9V55.5H120V36.6H129.3V32.9Z" fill="white"/>
<path d="M85.7001 51.2C84.5001 51.7 83.2001 52 81.9001 51.9C80.8001 52 79.7001 51.8 78.7001 51.4C77.7001 51 76.7001 50.5 76.0001 49.7C75.2001 49 74.6001 48.1 74.2001 47.1C73.8001 46.1 73.6001 45.1 73.7001 44C73.7001 39.3 76.9001 36.2 81.8001 36.2C83.0001 36.2 84.2001 36.4 85.3001 36.8C86.4001 37.3 87.4001 37.9 88.2001 38.8L90.9001 36.4C89.3001 34.1 85.9001 32.5 81.6001 32.5C80.0001 32.4 78.4001 32.7 76.9001 33.3C75.4001 33.9 74.0001 34.7 72.9001 35.8C71.8001 36.9 70.9001 38.2 70.3001 39.6C69.7001 41 69.4001 42.6 69.5001 44.1C69.4001 51.2 74.2001 55.7 81.6001 55.7C83.4001 55.8 85.3001 55.4 86.9001 54.7C88.6001 54 90.0001 52.9 91.2001 51.5L88.8001 49C88.0001 50 86.9001 50.7 85.7001 51.2Z" fill="white"/>
<path d="M175 51.9V33H158.2V36.3C158.2 46.3 157.2 49.7 155.6 51.9H153.1V59.5H157.1V55.5H174V59.5H178V51.9H175ZM170.9 51.8H159.9C161.4 49.2 162.2 45 162.2 38V36.6H170.9V51.8Z" fill="white"/>
<path d="M149.8 36.2C147.5 34 144.4 32.8 141.2 32.8C138 32.8 134.9 34 132.6 36.2C130.3 38.3 129 41.2 129 44.3C129 47.3 130.3 50.2 132.6 52.4C134.9 54.6 138 55.8 141.2 55.8C144.4 55.8 147.5 54.6 149.8 52.4C152.1 50.3 153.4 47.4 153.4 44.3C153.4 41.2 152.1 38.3 149.8 36.2ZM148.6 47.3C148.2 48.2 147.6 49.1 146.9 49.8C146.2 50.5 145.3 51.1 144.3 51.5C143.3 51.9 142.3 52.1 141.2 52.1C140.1 52.1 139.1 51.9 138.1 51.5C137.1 51.1 136.2 50.5 135.5 49.8C134.7 49.1 134.2 48.2 133.8 47.3C133.4 46.3 133.3 45.3 133.3 44.3C133.3 43.2 133.4 42.2 133.8 41.3C134.2 40.4 134.8 39.5 135.5 38.8C136.2 38.1 137.1 37.5 138.1 37.1C139.1 36.7 140.1 36.5 141.2 36.5C142.3 36.5 143.3 36.7 144.3 37.1C145.3 37.5 146.2 38.1 146.9 38.8C147.7 39.5 148.2 40.4 148.6 41.3C149 42.3 149.1 43.3 149.1 44.3C149.2 45.3 149 46.3 148.6 47.3Z" fill="white"/>
<path d="M197.2 42.3H184.8V33H180.7V55.5H184.8V45.9H197.2V55.5H201.3V33H197.2V42.3Z" fill="white"/>
</svg>
