<svg width="42" height="49" viewBox="0 0 42 49" fill="none" xmlns="http://www.w3.org/2000/svg">
<path d="M23 0.583496V14.3335C22.9997 14.9356 23.118 15.5318 23.3482 16.0882C23.5784 16.6445 23.916 17.15 24.3416 17.5759C24.7673 18.0017 25.2726 18.3395 25.8288 18.57C26.3851 18.8005 26.9813 18.9191 27.5833 18.9191H41.3333V41.8381C41.3333 43.0537 40.8505 44.2194 39.9909 45.079C39.1314 45.9385 37.9656 46.4214 36.75 46.4214H16.125V38.0087C17.5386 36.2623 18.3431 34.1019 18.4162 31.8563C18.4893 29.6106 17.8271 27.4026 16.5301 25.5678C15.2331 23.7331 13.3724 22.3722 11.231 21.6921C9.08958 21.0119 6.78462 21.0497 4.66667 21.7997V5.16683C4.66667 3.95125 5.14955 2.78547 6.0091 1.92592C6.86864 1.06638 8.03443 0.583496 9.25 0.583496H23ZM26.4375 1.72933V14.3335C26.4375 14.6374 26.5582 14.9288 26.7731 15.1437C26.988 15.3586 27.2794 15.4793 27.5833 15.4793H40.1875L26.4375 1.72933ZM16.125 31.5256C16.125 32.5789 15.9175 33.6219 15.5145 34.595C15.1114 35.5682 14.5206 36.4524 13.7758 37.1972C13.031 37.942 12.1467 38.5328 11.1736 38.9359C10.2005 39.339 9.15748 39.5464 8.10417 39.5464C7.05086 39.5464 6.00786 39.339 5.03473 38.9359C4.0616 38.5328 3.17739 37.942 2.43258 37.1972C1.68778 36.4524 1.09697 35.5682 0.693885 34.595C0.290801 33.6219 0.0833359 32.5789 0.0833359 31.5256C0.0833359 29.3983 0.928385 27.3582 2.43258 25.854C3.93678 24.3498 5.97691 23.5047 8.10417 23.5047C10.2314 23.5047 12.2716 24.3498 13.7758 25.854C15.28 27.3582 16.125 29.3983 16.125 31.5256ZM2.375 40.101V47.0768C2.37459 47.3988 2.46971 47.7137 2.64833 47.9815C2.82694 48.2494 3.08102 48.4583 3.3784 48.5817C3.67578 48.7051 4.00309 48.7375 4.31889 48.6749C4.6347 48.6122 4.92481 48.4572 5.1525 48.2295L8.10417 45.2779L11.0558 48.2295C11.2835 48.4572 11.5736 48.6122 11.8894 48.6749C12.2053 48.7375 12.5326 48.7051 12.8299 48.5817C13.1273 48.4583 13.3814 48.2494 13.56 47.9815C13.7386 47.7137 13.8337 47.3988 13.8333 47.0768V40.101C12.1387 41.2365 10.1441 41.8412 8.10417 41.8381C6.0642 41.8416 4.06951 41.2368 2.375 40.101Z" fill="#DA4551"/>
</svg>
