<svg width="24" height="20" viewBox="0 0 24 20" fill="none" xmlns="http://www.w3.org/2000/svg">
<path d="M7.54782 19.2C16.605 19.2 21.5577 11.8139 21.5577 5.40917C21.5577 5.19938 21.5534 4.99054 21.5438 4.78264C22.5053 4.09846 23.341 3.24465 24 2.27272C23.1178 2.65875 22.1683 2.91863 21.1723 3.03581C22.1889 2.43573 22.9694 1.48648 23.3376 0.354846C22.3862 0.910033 21.3326 1.31355 20.2108 1.53137C19.3123 0.589206 18.0331 0 16.6166 0C13.8973 0 11.6922 2.17066 11.6922 4.84642C11.6922 5.22678 11.7354 5.59675 11.8199 5.9516C7.72736 5.7489 4.09852 3.82016 1.67018 0.887354C1.2473 1.60366 1.00345 2.43573 1.00345 3.32356C1.00345 5.00518 1.87274 6.48978 3.19468 7.35823C2.38683 7.33366 1.62794 7.11536 0.964574 6.75201C0.963849 6.77235 0.963849 6.79218 0.963849 6.81391C0.963849 9.16129 2.66115 11.1212 4.91429 11.5654C4.50052 11.6764 4.06516 11.7359 3.61588 11.7359C3.29907 11.7359 2.99043 11.7052 2.69043 11.6485C3.31731 13.5744 5.13509 14.9759 7.29031 15.0151C5.60501 16.3154 3.48195 17.0898 1.17457 17.0898C0.777606 17.0898 0.385444 17.0676 0 17.0227C2.17922 18.3977 4.76693 19.2 7.54807 19.2" fill="white"/>
</svg>
