<svg width="13" height="13" viewBox="0 0 13 13" fill="none" xmlns="http://www.w3.org/2000/svg">
<path fill-rule="evenodd" clip-rule="evenodd" d="M5.95833 2.03125C3.78946 2.03125 2.03125 3.78946 2.03125 5.95833C2.03125 8.1272 3.78946 9.88542 5.95833 9.88542C8.1272 9.88542 9.88542 8.1272 9.88542 5.95833C9.88542 3.78946 8.1272 2.03125 5.95833 2.03125ZM1.21875 5.95833C1.21875 3.34073 3.34073 1.21875 5.95833 1.21875C8.57593 1.21875 10.6979 3.34073 10.6979 5.95833C10.6979 8.57593 8.57593 10.6979 5.95833 10.6979C3.34073 10.6979 1.21875 8.57593 1.21875 5.95833Z" fill="#494949"/>
<path fill-rule="evenodd" clip-rule="evenodd" d="M8.73149 8.73129C8.89014 8.57264 9.14736 8.57264 9.30602 8.73129L11.6623 11.0875C11.8209 11.2462 11.8209 11.5034 11.6623 11.6621C11.5036 11.8207 11.2464 11.8207 11.0877 11.6621L8.73149 9.30582C8.57284 9.14717 8.57284 8.88994 8.73149 8.73129Z" fill="#494949"/>
</svg>
