<svg width="40" height="41" viewBox="0 0 40 41" fill="none" xmlns="http://www.w3.org/2000/svg">
<g clip-path="url(#clip0_67_4762)">
<path d="M16 0.927246L8 8.92725H10.8287L16 3.75592L17.8673 5.62256L19.66 4.58725L16 0.927246Z" fill="#E0545F"/>
<path d="M29.9996 0.927246L16.1436 8.92725H20.1436L29.2675 3.65928L32.3089 8.92725H34.6182L29.9996 0.927246Z" fill="#E0545F"/>
<path d="M38 10.9272H2C0.895312 10.9272 0 11.8226 0 12.9272V38.9272C0 40.0319 0.895312 40.9272 2 40.9272H38C39.1047 40.9272 40 40.0319 40 38.9272V12.9272C40 11.8226 39.1047 10.9272 38 10.9272ZM38 30.9272H24V20.9272H38V30.9272ZM38 18.9272H24C22.8953 18.9272 22 19.8226 22 20.9272V30.9272C22 32.0319 22.8953 32.9272 24 32.9272H38V38.9272H2V12.9272H38V18.9272Z" fill="#E0545F"/>
<path d="M29 22.9272C27.3434 22.9272 26 24.2706 26 25.9272C26 27.5839 27.3434 28.9272 29 28.9272C30.6566 28.9272 32 27.5839 32 25.9272C32 24.2706 30.6566 22.9272 29 22.9272ZM29 26.9272C28.4487 26.9272 28 26.4786 28 25.9272C28 25.3759 28.4487 24.9272 29 24.9272C29.5513 24.9272 30 25.3759 30 25.9272C30 26.4786 29.5513 26.9272 29 26.9272Z" fill="#E0545F"/>
</g>
<defs>
<clipPath id="clip0_67_4762">
<rect width="40" height="40" fill="white" transform="translate(0 0.927246)"/>
</clipPath>
</defs>
</svg>
