<svg width="104" height="60" viewBox="0 0 104 60" fill="none" xmlns="http://www.w3.org/2000/svg">
<path d="M84.1433 27.8125C83.0973 27.7256 82.0663 27.5083 81.0742 27.1655C79.7517 26.7183 78.535 26.0049 77.4989 25.0693C76.4741 24.1177 75.6614 22.9609 75.1137 21.6742C74.503 20.2075 74.2012 18.6306 74.2273 17.0421V0.0766602H65.1433V18.1014C65.1433 18.5952 65.1779 19.2273 65.2544 20.0051C65.3509 20.917 65.5286 21.8185 65.7853 22.6989C66.0952 23.766 66.4984 24.8037 66.9902 25.8001C67.576 26.9804 68.3058 28.0834 69.1631 29.0841C70.1463 30.2284 71.2573 31.2565 72.4742 32.1483C73.9427 33.2165 75.5427 34.0912 77.2347 34.7507L77.3754 34.7976C79.3271 35.3574 81.319 35.766 83.3334 36.0199C84.4597 36.1584 85.5938 36.2227 86.7285 36.2125C87.2742 36.2125 87.8199 36.2125 88.3729 36.1927L89.1779 36.1804L93.3162 35.7458V0.0766602H84.1433V27.8125Z" fill="white"/>
<path d="M103.696 27.4321H95.2617V41.4346H103.696V27.4321Z" fill="white"/>
<path d="M60.7037 31.9013C60.442 31.0125 60.0913 29.9878 59.6592 28.8544C59.2271 27.7211 58.6938 26.489 58.0765 25.2051C57.4301 23.8768 56.6805 22.6012 55.8345 21.3902C54.9617 20.1443 53.9694 18.9865 52.8716 17.9334C52.6543 17.7244 52.4247 17.5219 52.1827 17.326C53.1689 16.3566 54.0671 15.3014 54.8666 14.173C55.7064 12.9608 56.4494 11.6844 57.0889 10.3557C57.7086 9.07419 58.2395 7.84703 58.6716 6.70876C59.1037 5.57049 59.4543 4.55073 59.716 3.66185C59.9778 2.77296 60.1506 2.1458 60.2444 1.74826L60.5457 0.0766602H51.1629L51.0518 1.1458C50.7382 2.72006 50.2667 4.2587 49.6444 5.73839C49.0369 7.21393 48.2176 8.59303 47.2123 9.83221C46.2784 10.9808 45.1409 11.9475 43.8568 12.6841C43.3411 12.9757 42.7912 13.2022 42.2197 13.3581V0.0766602H33.2197V35.6051H42.2271V22.0248C43.1475 22.1445 44.0361 22.4404 44.8444 22.8964C46.1279 23.6308 47.2653 24.595 48.2 25.7409C49.2044 26.9802 50.0229 28.3593 50.6296 29.8347C51.2519 31.3144 51.7234 32.853 52.037 34.4273L52.2642 35.6075H61.6469L61.2345 33.8248C61.1382 33.4273 60.9679 32.8026 60.7037 31.9013Z" fill="white"/>
<path d="M18.916 8.26914V0H0V7.91358H9.71111V35.5728H18.9259V8.26914H18.916Z" fill="white"/>
<path d="M28.9284 0H20.9802V7.91358H28.9284V0Z" fill="white"/>
<path fill-rule="evenodd" clip-rule="evenodd" d="M0 41.4814H103.951V60H0V41.4814ZM17.5309 52.5165H16.2822L16.2973 45.679H13.9403V52.4717H10.5102V45.679H8.14819V54.2184H15.4247V57.2839H17.5309V52.5165ZM26.1287 54.3131C25.5423 54.3484 24.9547 54.2654 24.4009 54.0692C23.847 53.873 23.3382 53.5675 22.9044 53.1708C22.4994 52.7416 22.1868 52.2337 21.9862 51.6784C21.7856 51.1232 21.7012 50.5326 21.7383 49.9434C21.6607 48.7375 22.0457 47.5475 22.8147 46.6161C23.1981 46.2147 23.6641 45.9015 24.1804 45.6982C24.6967 45.495 25.2509 45.4065 25.8048 45.4389C26.3206 45.4079 26.8372 45.4836 27.3225 45.6613C27.8078 45.8389 28.2513 46.1147 28.6254 46.4715C28.9734 46.8574 29.2409 47.309 29.4121 47.7999C29.5832 48.2908 29.6546 48.8109 29.6221 49.3298V50.4621H24.0855C24.0751 51.0372 24.2856 51.5943 24.6736 52.0185C24.8796 52.2118 25.1229 52.3611 25.3885 52.4571C25.6541 52.5532 25.9365 52.594 26.2184 52.5772C26.7099 52.5798 27.2 52.5245 27.6786 52.4126C28.1734 52.2981 28.6545 52.1308 29.1138 51.9137V53.7195C28.6998 53.9262 28.261 54.0788 27.8081 54.1735C27.2546 54.2774 26.6918 54.3242 26.1287 54.3131ZM25.7998 47.1L25.7894 47.0996C26.0063 47.0902 26.2228 47.127 26.4245 47.2076C26.6291 47.2894 26.8138 47.4143 26.9659 47.5739C27.276 47.9464 27.436 48.4214 27.4144 48.9058H24.1403C24.153 48.4185 24.3285 47.9496 24.6387 47.5739C24.7864 47.4155 24.9667 47.291 25.1672 47.2092C25.3645 47.1287 25.5766 47.0913 25.7894 47.0996L25.7799 47.1H25.7998ZM36.8687 48.9078V45.679H34.5679V54.074H36.8935V50.6152H40.1435V54.074H42.4691V45.679H40.1186V48.9078H36.8687ZM55.3085 45.679V47.401H52.4372V54.074H50.0419V47.401H47.1604V45.679H55.3085ZM63.3058 54.121C63.7385 54.3135 64.2129 54.4035 64.6893 54.3832C65.3319 54.4012 65.9641 54.2234 66.4951 53.8752C67.0458 53.4833 67.4644 52.9446 67.6991 52.326C68.0063 51.5508 68.1556 50.7261 68.1388 49.8967C68.2081 48.7402 67.8948 47.5923 67.2437 46.6173C66.9625 46.2376 66.5877 45.9309 66.1529 45.7246C65.718 45.5183 65.2367 45.4189 64.7521 45.4353C64.2468 45.4118 63.7442 45.5183 63.2961 45.7437C62.848 45.9692 62.4706 46.3055 62.2029 46.7179H62.093L61.7475 45.5963H59.7532V58.0247H62.2029V54.5291C62.2029 54.4184 62.161 54.0009 62.0773 53.2767H62.2029C62.4949 53.6389 62.8731 53.9284 63.3058 54.121ZM63.2324 47.4542C63.4627 47.3615 63.7127 47.3229 63.9617 47.3416V47.3215C64.2186 47.3095 64.4739 47.3661 64.6994 47.4851C64.9248 47.6041 65.1115 47.7807 65.2389 47.9955C65.5452 48.5876 65.6842 49.2467 65.6419 49.9067C65.6419 51.647 65.0941 52.5172 63.9983 52.5172C63.7359 52.5373 63.4725 52.4923 63.2333 52.3866C62.9941 52.281 62.7871 52.1181 62.6321 51.9136C62.2931 51.2958 62.1442 50.5979 62.2029 49.9017V49.6502C62.159 49.0299 62.3104 48.4113 62.6374 47.8747C62.7981 47.6911 63.0021 47.5469 63.2324 47.4542ZM71.605 45.679H74.1532L75.7657 50.505C75.9186 50.9916 76.0138 51.4947 76.0494 52.0037H76.0942C76.1484 51.4935 76.2585 50.9909 76.4227 50.505L78.0054 45.679H80.4939L76.8856 55.361C76.6208 56.1536 76.1271 56.8493 75.4671 57.3593C74.8406 57.8077 74.0864 58.0408 73.3171 58.0238C72.9186 58.0259 72.5212 57.9823 72.1325 57.8939V56.0404C72.4331 56.1081 72.7403 56.1416 73.0483 56.1403C73.4431 56.1455 73.8272 56.0111 74.1333 55.7606C74.4762 55.4529 74.7262 55.0548 74.8549 54.6116L74.9893 54.1919L71.605 45.679ZM93.6075 54.074H95.8024V45.7034H92.5979L91.061 49.3775C90.9505 49.6514 90.845 49.9548 90.7495 50.2825C90.6541 50.6103 90.5235 51.1485 90.3528 51.9019C90.2912 51.4681 90.2023 51.0384 90.0865 50.6152C89.9731 50.1649 89.8305 49.7221 89.6596 49.2894L88.1729 45.679H84.9382V54.074H87.1483V47.4842L87.2939 47.9734C87.4809 48.7598 87.7175 49.5342 88.0021 50.2923L89.5541 54.074H91.2267L92.7335 50.3217C93.032 49.5379 93.2819 48.7374 93.4819 47.9245L93.6075 47.4597V54.074Z" fill="white"/>
</svg>
