<svg width="24" height="24" viewBox="0 0 24 24" fill="none" xmlns="http://www.w3.org/2000/svg">
<path d="M13.0718 19.747C4.87196 19.747 0.194878 13.82 0 3.95752H4.10743C4.24235 11.1963 7.27046 14.2626 9.66896 14.8948V3.95752H13.5365V10.2006C15.9051 9.93191 18.3935 7.08696 19.233 3.95752H23.1006C22.7842 5.58054 22.1537 7.11728 21.2483 8.47162C20.3429 9.82596 19.1823 10.9688 17.8389 11.8285C19.3384 12.6142 20.6629 13.7261 21.7249 15.0911C22.7869 16.456 23.5624 18.0429 24 19.747H19.7427C19.3498 18.2669 18.5513 16.9419 17.4473 15.9381C16.3433 14.9344 14.9829 14.2966 13.5365 14.1045V19.747H13.0718Z" fill="white"/>
</svg>
