<svg width="41" height="41" viewBox="0 0 41 41" fill="none" xmlns="http://www.w3.org/2000/svg">
<g clip-path="url(#clip0_67_8772)">
<path d="M24.4482 14.0522H28.7607L26.6045 8.271L24.4482 14.0522Z" fill="#E0545F"/>
<path d="M38.167 18.1772V4.36475C38.167 2.646 36.7607 1.23975 35.042 1.23975H17.8545C16.1357 1.23975 14.7295 2.646 14.7295 4.36475V15.3022H5.04199C2.79199 15.3022 0.979492 17.1147 0.979492 19.3647V36.5522C0.979492 38.8022 2.79199 40.6147 5.04199 40.6147H18.4482C18.9795 40.6147 19.3857 40.2085 19.3857 39.6772C19.3857 39.146 18.9795 38.7397 18.4482 38.7397H5.04199C3.82324 38.7397 2.85449 37.771 2.85449 36.5522V19.3647C2.85449 18.146 3.82324 17.1772 5.04199 17.1772H22.2295C23.4482 17.1772 24.417 18.146 24.417 19.3647V33.1772C24.417 35.3335 25.292 37.3022 26.7607 38.7397H26.0107C24.8232 38.7397 23.7295 38.271 22.8857 37.4585C22.5107 37.0835 21.917 37.0835 21.5732 37.4585C21.1982 37.8335 21.1982 38.4272 21.5732 38.771C22.7607 39.9585 24.3232 40.6147 26.0107 40.6147H30.042C30.5107 40.6147 30.8857 40.271 30.9795 39.8335C31.042 39.3647 30.792 38.9272 30.3545 38.8022C27.9482 37.9897 26.3232 35.7397 26.3232 33.1772V24.6772H31.292C32.6982 24.6772 34.0732 24.1147 35.0732 23.1147C36.0732 24.1147 37.417 24.6772 38.8545 24.6772H39.6045C40.4482 24.6772 40.8545 23.646 40.2607 23.0522C38.9482 21.8022 38.167 20.0522 38.167 18.1772ZM31.6357 18.3647C31.5107 18.396 31.417 18.4272 31.292 18.4272C30.917 18.4272 30.542 18.2085 30.417 17.8335L29.4795 15.3022H22.2295H21.7295L25.7295 4.646C25.8545 4.271 26.2295 4.05225 26.6045 4.05225C26.9795 4.05225 27.3545 4.30225 27.4795 4.646L32.167 17.146C32.3545 17.646 32.1045 18.1772 31.6357 18.3647Z" fill="#E0545F"/>
<path d="M34.1045 40.6147C34.6223 40.6147 35.042 40.195 35.042 39.6772C35.042 39.1595 34.6223 38.7397 34.1045 38.7397C33.5867 38.7397 33.167 39.1595 33.167 39.6772C33.167 40.195 33.5867 40.6147 34.1045 40.6147Z" fill="#E0545F"/>
<path d="M16.4165 34.1772C16.3228 34.271 16.1978 34.3647 16.104 34.4897C15.729 34.8647 15.729 35.4585 16.104 35.8022C16.479 36.1772 17.0728 36.1772 17.4165 35.8022C17.5103 35.7085 17.604 35.6147 17.6978 35.521C19.104 34.1147 21.5103 31.771 19.3853 28.396C19.0415 27.8335 18.5728 27.3647 18.0103 26.9897C18.0103 26.9585 18.0415 26.9272 18.0415 26.9272C18.1665 26.4272 17.8853 25.9272 17.3853 25.771C16.9478 25.646 16.479 25.8647 16.2915 26.271C16.1978 26.2397 16.104 26.2397 16.0103 26.2085C15.0103 26.021 13.9165 26.0522 12.8228 26.271C12.8228 25.5522 12.854 24.896 12.8853 24.3022H19.354C19.8853 24.3022 20.2915 23.896 20.2915 23.3647C20.2915 22.8335 19.8853 22.4272 19.354 22.4272H13.0728C13.1978 21.521 13.2915 20.9897 13.2915 20.9897C13.3853 20.4897 13.0728 19.9897 12.5728 19.896C12.0728 19.8022 11.5728 20.1147 11.479 20.6147C11.4478 20.7085 11.3228 21.3647 11.1978 22.4585H8.35403C7.82278 22.4585 7.41653 22.8647 7.41653 23.396C7.41653 23.9272 7.82278 24.3335 8.35403 24.3335H11.0415C10.979 25.0835 10.979 25.9585 10.979 26.8647C10.2915 27.146 9.66653 27.4897 9.07278 27.9272C7.72903 28.9272 6.85403 30.271 6.69778 31.646C6.57278 32.7397 6.88528 33.8022 7.60403 34.6772C8.44778 35.7085 9.60403 36.146 10.7603 36.146C11.729 36.146 12.6978 35.8335 13.4478 35.271C15.354 33.8647 16.6978 30.896 17.4165 28.9272C17.5728 29.0835 17.6978 29.2397 17.8228 29.4272C19.0728 31.3335 18.1353 32.4897 16.4165 34.1772ZM9.04153 33.4272C8.63528 32.9585 8.47903 32.396 8.54153 31.8022C8.63528 30.9585 9.26028 30.0522 10.1665 29.3647C10.4478 29.1772 10.729 28.9897 11.0415 28.8335C11.1665 30.4585 11.479 32.1772 12.0103 33.896C11.1978 34.3335 9.88528 34.4585 9.04153 33.4272ZM13.5415 32.4272C13.1665 30.9897 12.979 29.5522 12.8853 28.1772C13.479 28.0522 14.0415 27.9585 14.604 27.9585C14.979 27.9585 15.3228 27.9897 15.6665 28.0522H15.729C15.229 29.4272 14.479 31.146 13.5415 32.4272Z" fill="#E0545F"/>
</g>
<defs>
<clipPath id="clip0_67_8772">
<rect width="40" height="40" fill="white" transform="translate(0.666992 0.927246)"/>
</clipPath>
</defs>
</svg>
