<svg width="181" height="60" viewBox="0 0 181 60" fill="none" xmlns="http://www.w3.org/2000/svg">
<g clip-path="url(#clip0_235_58)">
<path d="M180.2 13.3001C179.4 9.90009 176.3 7.1001 170.9 4.9001C165.7 2.8001 158.6 1.3001 149.8 0.500096C131.7 -0.999904 108.5 0.600096 84.5 5.0001C64 8.8001 45.1 14.1001 30.2 20.3001C30.1 20.3001 30 20.3001 29.8 20.3001C29.7 20.3001 29.5 20.3001 29.4 20.3001C29.4 20.3001 25.8 20.5001 24.5 22.5001C24.5 22.5001 24.4 22.6001 24.3 22.9001C23.7 23.2001 23.1 23.5001 22.5 23.7001C14.7 27.5001 8.8 31.3001 5 35.1001C1 39.1001 -0.6 42.9001 0.2 46.4001C1 49.8001 4.2 52.7001 9.9 55.0001C15.3 57.2001 22.6 58.6001 31.7 59.4001C36.4 59.8001 41.4 60.0001 46.6 60.0001C62.1 60.0001 79.9 58.3001 98 55.0001C118.2 51.3001 136.8 45.8001 151.5 39.4001C151.8 39.4001 152.1 39.4001 152.1 39.4001C155.1 39.1001 156 38.1001 156 38.1001C156.6 37.7001 156.8 37.2001 157 36.9001C157.7 36.6001 158.3 36.3001 159 35.9001C166.4 32.1001 172.1 28.2001 175.8 24.4001C179.4 20.4001 180.9 16.7001 180.2 13.3001ZM174.9 23.6001C171.3 27.4001 165.7 31.2001 158.4 34.9001C158 35.1001 157.6 35.3001 157.2 35.5001C157.3 35.0001 157.3 34.4001 157.3 34.4001V28.8001H151.2V31.5001H152.5V34.3001C152.5 35.7001 151.3 35.7001 151.3 35.7001C149.9 35.7001 149.9 34.4001 149.9 34.4001V24.5001C149.9 23.5001 151.2 23.4001 151.2 23.4001C152.4 23.4001 152.4 24.6001 152.4 24.6001V26.1001H157.1C157.3 23.2001 156.7 22.5001 156.7 22.5001C155.7 20.2001 152.1 20.0001 151.3 20.0001C151.2 20.0001 151.1 20.0001 151.1 20.0001C144.3 20.0001 145 25.3001 145 25.3001V34.8001C145.1 37.7001 147.4 38.7001 149.3 39.0001C135 45.1001 117.1 50.2001 97.7 53.8001C73.6 58.2001 50.1 59.8001 31.7 58.3001C22.7 57.5001 15.5 56.1001 10.2 54.0001C4.9 51.9001 1.9 49.2001 1.2 46.1001C0.5 43.0001 2 39.6001 5.7 35.9001C9.5 32.2001 15.2 28.4001 22.9 24.7001C23.3 24.5001 23.6 24.4001 24 24.2001C24 24.5001 24 24.7001 24 25.1001V26.5001C24 26.5001 23.9 28.1001 24.8 29.2001C24.8 29.2001 25.3 29.9001 26.4 30.6001C26.4 30.6001 28.8 31.9001 30.2 32.6001C30.2 32.6001 31.6 33.4001 31.4 34.7001C31.4 34.7001 31.3 36.0001 29.9 36.0001C29.9 36.0001 28.6 35.9001 28.6 34.6001V33.0001H23.6V35.2001C23.6 35.2001 23.5 39.5001 29.9 39.5001C29.9 39.5001 36.1 39.6001 36.4 35.1001V33.3001C36.4 33.3001 36.6 30.5001 34.2 29.1001C34.2 29.1001 32.9 28.3001 32.1 28.0001C32.1 28.0001 29.6 26.9001 29.1 26.3001C29.1 26.3001 28.1 25.4001 28.7 24.3001C28.7 24.3001 28.9 23.6001 29.9 23.6001C29.9 23.6001 31.2 23.7001 31.2 24.8001V26.3001H35.9V24.0001C35.9 24.0001 36.2 21.1001 32.2 20.3001C46.8 14.7001 65 9.6001 84.7 6.0001C102.6 2.7001 120 1.0001 135.2 1.0001C140.3 1.0001 145.2 1.2001 149.7 1.6001C158.4 2.4001 165.4 3.8001 170.5 5.9001C175.6 8.0001 178.5 10.6001 179.2 13.6001C179.9 16.6001 178.4 20.0001 174.9 23.6001Z" fill="white"/>
<path d="M96.3001 29.1001C96.3001 29.1001 95.0001 28.3001 94.2001 28.0001C94.2001 28.0001 91.7001 26.9001 91.2001 26.3001C91.2001 26.3001 90.2001 25.4001 90.8001 24.3001C90.8001 24.3001 91.0001 23.6001 92.1001 23.6001C92.1001 23.6001 93.4001 23.7001 93.4001 24.8001V26.3001H98.1001V24.0001C98.1001 24.0001 98.5001 20.3001 92.5001 20.1001C92.5001 20.1001 92.2001 20.1001 91.7001 20.1001C90.3001 20.1001 87.4001 20.4001 86.4001 22.3001C86.4001 22.3001 85.9001 22.9001 85.9001 24.8001V26.2001C85.9001 26.2001 85.8001 27.8001 86.7001 28.9001C86.7001 28.9001 87.2001 29.6001 88.3001 30.3001C88.3001 30.3001 90.7001 31.6001 92.1001 32.3001C92.1001 32.3001 93.5001 33.1001 93.3001 34.4001C93.3001 34.4001 93.2001 35.7001 91.8001 35.7001C91.8001 35.7001 90.5001 35.6001 90.5001 34.3001V33.0001H85.5001V35.2001C85.5001 35.2001 85.4001 39.5001 91.8001 39.5001C91.8001 39.5001 98.0001 39.6001 98.3001 35.1001V33.3001C98.5001 33.3001 98.7001 30.6001 96.3001 29.1001Z" fill="white"/>
<path d="M44.2001 20.9001L41.1001 38.9001H46.1001L48.0001 24.9001H48.4001L50.2001 38.9001H55.3001L52.2001 20.9001H44.2001Z" fill="white"/>
<path d="M72.1 20.8L70.5 30.7001H70.1L68.6 20.9H60.7001L60.3 38.9001H65V25.3H65.4001L67.9001 38.9001H72.8001L75.3001 25.3H75.6L75.7 38.9001H80.4001L79.9001 20.8H72.1Z" fill="white"/>
<path d="M134.3 31.8H134.1L129.3 20.8H123.5V38.9001H128.2L127.9 27.9H128.1L133.1 38.9001H138.7V20.8H133.9L134.3 31.8Z" fill="white"/>
<path d="M112 34.4001C112 34.4001 112.1 35.9001 110.7 35.9001C110.7 35.9001 109.3 36 109.3 34.5V20.9H104.2V34.4001C104.2 34.4001 103.7 39.5 110.9 39.5C110.9 39.5 117.2 39.6 117.2 34.6V20.8H112.2V34.4001H112Z" fill="white"/>
</g>
<defs>
<clipPath id="clip0_235_58">
<rect width="180.4" height="60" fill="white"/>
</clipPath>
</defs>
</svg>
