<svg width="99" height="40" viewBox="0 0 99 40" fill="none" xmlns="http://www.w3.org/2000/svg">
<path d="M14.3383 0.941365L7.79432 19.5622H19.6513V0.941365H14.3383ZM20.4237 0.941365V19.5622H32.3692L25.8252 0.941365H20.4237ZM7.52612 20.3313L0.94458 39.0589H10.4736L13.1797 31.4509H19.6513V20.3313H7.52612ZM20.4237 20.3313V31.4509H26.9838L29.6228 39.0589H39.2189L32.6374 20.3313H20.4237ZM41.8579 0.941365V19.5622H53.0069V0.941365H41.8579ZM53.7766 0.941365V19.5622H65.4163C64.3171 18.4717 62.9961 17.6023 61.5275 17.0253C64.1607 15.5561 65.9366 12.7504 65.9366 9.52943C65.9366 4.78629 62.0842 0.941365 57.3195 0.941365C57.2827 0.941365 57.2462 0.940908 57.2095 0.941365H53.7766ZM41.8579 20.3313V39.0589H53.0069V20.3313H41.8579ZM53.7766 20.3313V39.0589H57.2095C57.2463 39.0593 57.2826 39.0589 57.3195 39.0589C63.6539 39.0589 68.7876 33.9505 68.7876 27.6456C68.7876 24.8615 67.7831 22.3121 66.119 20.3313H53.7766ZM71.6921 0.941365V19.5622H82.774V0.941365H71.6921ZM83.5464 0.941365V19.5622H95.2398C94.141 18.4718 92.8222 17.6023 91.3536 17.0253C93.9902 15.5561 95.7735 12.7504 95.7735 9.52943C95.7735 4.78629 91.9104 0.941365 87.1456 0.941365C87.1115 0.941365 87.0777 0.940972 87.0437 0.941365H83.5464ZM71.6921 20.3313V39.0589H82.774V20.3313H71.6921ZM83.5464 20.3313V39.0589H87.0437C87.0775 39.0592 87.1117 39.0589 87.1456 39.0589C93.4801 39.0589 98.611 33.9505 98.611 27.6456C98.611 24.8615 97.6085 22.3121 95.9451 20.3313H83.5464Z" fill="white"/>
</svg>
