<svg width="172" height="60" viewBox="0 0 172 60" fill="none" xmlns="http://www.w3.org/2000/svg">
<mask id="mask0_107_557" style="mask-type:alpha" maskUnits="userSpaceOnUse" x="0" y="32" width="172" height="13">
<path d="M171.254 44.1232C147.124 37.6569 117.595 33.852 85.7006 33.852C53.8063 33.852 24.2777 37.6569 0.148315 44.124C49.6869 28.7409 121.715 28.7409 171.254 44.124" fill="white"/>
</mask>
<g mask="url(#mask0_107_557)">
<path fill-rule="evenodd" clip-rule="evenodd" d="M171.254 44.1232C147.124 37.6569 117.595 33.852 85.7006 33.852C53.8063 33.852 24.2777 37.6569 0.148315 44.124C49.6869 28.7409 121.715 28.7409 171.254 44.124" fill="white"/>
</g>
<path fill-rule="evenodd" clip-rule="evenodd" d="M31.8111 45.9704C30.2914 45.9704 29.5286 46.5198 29.5286 48.5641C29.5286 50.6453 30.2846 51.2307 31.8111 51.2307C33.3308 51.2307 34.0877 50.6453 34.0877 48.565C34.0877 46.5198 33.3308 45.9704 31.8111 45.9704ZM107.409 58.6133C106.672 56.995 106.349 56.7635 105.999 56.6187C106.185 56.467 106.652 55.8893 107.326 54.9353H106.315C105.751 55.723 105.235 56.3881 104.961 56.7053V54.9353H104.108V58.6124H104.961V56.9075C105.407 57.0095 105.82 57.3053 106.412 58.6133H107.409ZM109.437 58.7144C110.565 58.7144 111.116 58.2661 111.116 56.7558C111.116 55.2532 110.559 54.8273 109.437 54.8273C108.33 54.8273 107.773 55.2532 107.773 56.7558C107.773 58.2661 108.323 58.7144 109.437 58.7144ZM109.437 55.5567C110.049 55.5567 110.235 55.7161 110.235 56.7704C110.235 57.7895 110.049 57.9841 109.437 57.9841C108.839 57.9841 108.653 57.7895 108.653 56.7704C108.653 55.7161 108.839 55.5567 109.437 55.5567ZM112.793 55.7084C112.972 55.6364 113.241 55.6004 113.475 55.6004C114.08 55.6004 114.279 55.7804 114.279 56.7918C114.279 57.703 114.08 57.9558 113.481 57.9558C113.103 57.9558 112.793 57.8187 112.793 57.6018V55.7084ZM111.94 60.0001H112.793V58.5044C112.986 58.6055 113.234 58.7144 113.633 58.7144C114.567 58.7144 115.152 58.2661 115.152 56.7704C115.152 55.2678 114.629 54.8273 113.475 54.8273C112.965 54.8273 112.319 54.9353 111.94 55.1015V60.0001ZM116.837 55.7161H118.213V58.6133H119.065V54.9361H115.984V58.6133H116.837V55.7161ZM121.562 58.7144C122.69 58.7144 123.24 58.2661 123.24 56.7558C123.24 55.2532 122.683 54.8273 121.562 54.8273C120.454 54.8273 119.897 55.2532 119.897 56.7558C119.897 58.2661 120.447 58.7144 121.562 58.7144ZM121.562 55.5567C122.174 55.5567 122.359 55.7161 122.359 56.7704C122.359 57.7895 122.174 57.9841 121.562 57.9841C120.963 57.9841 120.777 57.7895 120.777 56.7704C120.777 55.7161 120.963 55.5567 121.562 55.5567ZM124.917 55.7084C125.097 55.6364 125.365 55.6004 125.598 55.6004C126.203 55.6004 126.404 55.7804 126.404 56.7918C126.404 57.703 126.203 57.9558 125.606 57.9558C125.227 57.9558 124.917 57.8187 124.917 57.6018V55.7084ZM124.065 60.0001H124.917V58.5044C125.11 58.6055 125.358 58.7144 125.757 58.7144C126.692 58.7144 127.276 58.2661 127.276 56.7704C127.276 55.2678 126.753 54.8273 125.598 54.8273C125.09 54.8273 124.443 54.9353 124.065 55.1015V60.0001ZM131.031 56.2578C131.031 55.1598 130.557 54.8264 129.519 54.8264C129.016 54.8264 128.487 54.9207 128.122 55.0218L128.281 55.759C128.57 55.651 128.955 55.5927 129.339 55.5927C130.068 55.5927 130.213 55.7375 130.213 56.3804C129.929 56.3147 129.639 56.2808 129.347 56.2792C128.528 56.2792 127.971 56.4455 127.971 57.4861C127.971 58.4461 128.343 58.7144 129.449 58.7144C129.938 58.7144 130.591 58.6055 131.031 58.4255V56.257V56.2578ZM130.213 57.9053C130.013 57.9773 129.759 58.0278 129.512 58.0278C128.996 58.0278 128.865 57.9481 128.865 57.4501C128.865 56.9804 129.037 56.9221 129.519 56.9221C129.773 56.9221 130.021 56.9435 130.213 56.9873V57.9044V57.9053ZM135.04 57.8324V54.9353H134.188V57.8324H132.813V54.9353H131.96V58.6124H134.937V59.6324H135.625L135.825 57.8324H135.04ZM138.609 58.6124H139.462V54.9353H138.609C138.189 55.723 137.661 56.6478 137.187 57.2761V54.9361H136.334V58.6133H137.187C137.714 57.8992 138.19 57.1482 138.609 56.3658V58.6133V58.6124ZM142.688 56.5973H141.711C141.429 56.5973 141.279 56.4524 141.279 56.1198C141.279 55.7735 141.423 55.6578 141.691 55.6578H142.688V56.5973ZM141.354 57.0233C140.865 57.0953 140.604 57.3413 140.109 58.6133H141.086C141.477 57.5007 141.705 57.3053 142.159 57.3053H142.688V58.6133H143.541V54.9361H141.464C140.625 54.9361 140.356 55.4195 140.356 56.0118C140.356 56.5321 140.605 56.995 141.354 57.0233ZM31.8111 50.371C30.7594 50.371 30.498 50.0967 30.498 48.5795C30.498 47.0538 30.7594 46.831 31.8111 46.831C32.8637 46.831 33.1251 47.0538 33.1251 48.5795C33.1251 50.0967 32.8637 50.371 31.8111 50.371ZM35.6974 49.3595C35.6974 48.5144 35.8346 48.2753 36.4466 48.2753C36.9968 48.2753 37.182 48.4775 37.182 49.3595C37.182 50.3633 36.9831 50.4935 36.3986 50.4935C35.9237 50.4935 35.6974 50.2484 35.6974 49.3595ZM35.6906 47.9367C35.7728 47.2638 35.8894 46.9458 36.5906 46.8815C37.134 46.8301 37.5608 46.7727 37.8634 46.6278V45.8333C37.4846 45.9995 37.0517 46.0715 36.5494 46.1153C35.3048 46.2164 34.8309 46.5995 34.8309 49.0055C34.8309 50.8184 35.394 51.2307 36.378 51.2307C37.5334 51.2307 38.0563 50.8115 38.0563 49.345C38.0563 47.8853 37.5403 47.5021 36.6394 47.5021C36.1988 47.5021 35.8826 47.6615 35.6906 47.9358V47.9367ZM39.9746 48.781V47.4524H38.448V48.2324H39.1217V51.1295H41.2054C41.9211 51.1295 42.2923 50.8115 42.2923 49.945C42.2923 49.1787 41.9203 48.781 41.2054 48.781H39.9746ZM39.9746 50.4644V49.4753H40.992C41.2603 49.4753 41.3983 49.6047 41.3983 49.9587C41.3983 50.3127 41.2671 50.4644 41.0066 50.4644H39.9746ZM45.7517 50.3204C45.4312 50.4111 45.1007 50.4621 44.7677 50.4721C44.1557 50.4721 43.8677 50.3127 43.86 49.5258H46.1229C46.1846 47.7413 45.7028 47.3435 44.5963 47.3435C43.578 47.3435 42.966 47.7978 42.966 49.2721C42.966 50.7824 43.6534 51.2307 44.6649 51.2307C45.0806 51.2238 45.493 51.1557 45.8888 51.0284L45.7517 50.3204ZM44.6443 48.0515C45.1328 48.0515 45.3111 48.1887 45.3386 48.8393H43.8669C43.9217 48.2324 44.1077 48.0515 44.6443 48.0515ZM47.5534 47.4515C47.4911 48.4315 47.3273 49.4024 47.0648 50.3487H46.4391L46.632 52.1487H47.3194V51.1287H49.9594V52.147H50.6409L50.8406 50.3487H50.166V47.4515H47.5543H47.5534ZM49.3131 48.2315V50.3487H47.9588C48.138 49.6407 48.282 48.8607 48.33 48.2315H49.3131ZM53.6254 51.1295H54.4783V47.4524H53.6254C53.2054 48.2393 52.6766 49.1641 52.2026 49.7924V47.4524H51.3497V51.1295H52.2026C52.7302 50.4155 53.2057 49.6644 53.6254 48.8821V51.1295ZM57.6557 49.5695V51.1295H58.5086V47.4524H57.6557V48.8033H56.28V47.4515H55.4271V51.1295H56.28V49.5695H57.6557ZM62.1257 50.3204C61.8514 50.407 61.3903 50.4721 61.1426 50.4721C60.5306 50.4721 60.2417 50.3127 60.234 49.5258H62.4969C62.5586 47.7413 62.0769 47.3435 60.9711 47.3435C59.9529 47.3435 59.3409 47.7978 59.3409 49.2721C59.3409 50.7824 60.0283 51.2307 61.0388 51.2307C61.4546 51.224 61.8671 51.1558 62.2628 51.0284L62.1257 50.3204ZM61.0183 48.0515C61.5069 48.0515 61.6851 48.1887 61.7126 48.8393H60.2417C60.2966 48.2324 60.4817 48.0515 61.0183 48.0515ZM65.4883 49.5687V51.1295H66.3411V47.4524H65.4883V48.8033H64.1143V47.4515H63.2614V51.1295H64.1143V49.5695H65.4891L65.4883 49.5687ZM69.5254 49.5687V51.1295H70.3783V47.4524H69.5254V48.8033H68.1497V47.4515H67.2977V51.1295H68.1497V49.5695H69.5254V49.5687ZM74.2569 48.7741C74.2569 47.6761 73.7828 47.3435 72.744 47.3435C72.2722 47.3488 71.803 47.4142 71.3477 47.5381L71.5063 48.2753C71.7951 48.1673 72.18 48.109 72.5648 48.109C73.2934 48.109 73.4391 48.2547 73.4391 48.8975C73.1549 48.8316 72.8643 48.7974 72.5726 48.7955C71.754 48.7955 71.1969 48.9618 71.1969 50.0024C71.1969 50.9633 71.568 51.2307 72.6754 51.2307C73.164 51.2307 73.8171 51.1218 74.2569 50.9418V48.7741ZM73.4383 50.4215C73.2394 50.4935 72.984 50.5441 72.7371 50.5441C72.2211 50.5441 72.0909 50.4644 72.0909 49.9664C72.0909 49.4967 72.2623 49.4384 72.744 49.4384C72.9986 49.4384 73.2463 49.4607 73.4383 49.5035V50.4207V50.4215ZM77.4617 49.1135H76.4846C76.2034 49.1135 76.0517 48.9687 76.0517 48.637C76.0517 48.2898 76.1966 48.1741 76.4649 48.1741H77.4617V49.1144V49.1135ZM76.1271 49.5395C75.6386 49.6124 75.378 49.8575 74.8826 51.1295H75.8597C76.2514 50.017 76.4786 49.8215 76.932 49.8215H77.4617V51.1295H78.3146V47.4524H76.2377C75.3986 47.4524 75.1303 47.9358 75.1303 48.5281C75.1303 49.0484 75.378 49.5113 76.1271 49.5395ZM30.4911 55.6081C30.6694 55.537 30.9377 55.5001 31.1717 55.5001C31.7768 55.5001 31.9766 55.681 31.9766 56.6924C31.9766 57.6027 31.7768 57.8555 31.1794 57.8555C30.8006 57.8555 30.4911 57.7184 30.4911 57.5015V55.609V55.6081ZM29.6383 59.9007H30.4911V58.405C30.684 58.5061 30.9317 58.6141 31.3303 58.6141C32.2654 58.6141 32.85 58.1667 32.85 56.671C32.85 55.1684 32.3271 54.7278 31.1717 54.7278C30.6626 54.7278 30.0163 54.8358 29.6383 55.0021V59.9007ZM36.6051 56.1584C36.6051 55.0595 36.1303 54.727 35.0914 54.727C34.59 54.727 34.0603 54.8212 33.696 54.9224L33.8537 55.6595C34.1426 55.5507 34.5274 55.4932 34.9131 55.4932C35.6417 55.4932 35.7866 55.6381 35.7866 56.281C35.5023 56.2154 35.2117 56.1814 34.92 56.1798C34.1014 56.1798 33.5443 56.3461 33.5443 57.3858C33.5443 58.3467 33.9154 58.6141 35.0229 58.6141C35.5114 58.6141 36.1646 58.5061 36.6051 58.3252V56.1584ZM35.7866 57.805C35.5614 57.8852 35.3244 57.927 35.0854 57.9284C34.5694 57.9284 34.4383 57.8487 34.4383 57.3498C34.4383 56.8801 34.6097 56.8227 35.0914 56.8227C35.346 56.8227 35.5937 56.8441 35.7857 56.8878V57.805H35.7866ZM40.8343 58.513C40.098 56.8947 39.7748 56.6641 39.4243 56.5193C39.6103 56.3675 40.0774 55.7898 40.752 54.8358H39.7406C39.1766 55.6235 38.6606 56.2878 38.3863 56.6058V54.8358H37.5334V58.513H38.3863V56.8081C38.8328 56.9093 39.246 57.2058 39.8374 58.5138H40.8343V58.513ZM43.9834 57.7038C43.7091 57.7904 43.248 57.8555 43.0003 57.8555C42.3883 57.8555 42.1003 57.697 42.0926 56.9092H44.3554C44.4171 55.1247 43.9354 54.7278 42.8288 54.7278C41.8106 54.7278 41.1986 55.1821 41.1986 56.6564C41.1986 58.1667 41.886 58.6141 42.8974 58.6141C43.2549 58.6141 43.7708 58.5353 44.1214 58.4118L43.9843 57.7038H43.9834ZM42.8768 55.4358C43.3654 55.4358 43.5437 55.573 43.5711 56.2227H42.0994C42.1543 55.6158 42.3394 55.4358 42.8768 55.4358ZM46.734 55.6158H47.9451V54.8358H44.6786V55.6158H45.882V58.513H46.7348V55.6158H46.734ZM50.682 56.953V58.513H51.5349V54.8358H50.682V56.1867H49.3071V54.8358H48.4543V58.513H49.3071V56.953H50.682ZM54.0317 58.6141C55.1588 58.6141 55.7091 58.1667 55.7091 56.6564C55.7091 55.1538 55.152 54.7278 54.0317 54.7278C52.9243 54.7278 52.3671 55.1538 52.3671 56.6564C52.3671 58.1667 52.9174 58.6141 54.0317 58.6141ZM54.0317 55.4572C54.6437 55.4572 54.8288 55.6158 54.8288 56.671C54.8288 57.6901 54.6437 57.8847 54.0317 57.8847C53.4326 57.8847 53.2474 57.6901 53.2474 56.671C53.2474 55.6167 53.4326 55.4572 54.0317 55.4572ZM56.2603 56.9092H57.9514V56.0573H56.2594V56.9101L56.2603 56.9092ZM61.926 58.513C61.1906 56.8947 60.8674 56.6641 60.516 56.5193C60.702 56.3675 61.17 55.7898 61.8437 54.8358H60.8323C60.2691 55.6235 59.7531 56.2878 59.478 56.6058V54.8358H58.6251V58.513H59.478V56.8081C59.9246 56.9093 60.3377 57.2058 60.9291 58.5138H61.926V58.513ZM63.9548 58.6141C65.0828 58.6141 65.6331 58.1667 65.6331 56.6564C65.6331 55.1538 65.076 54.7278 63.9548 54.7278C62.8474 54.7278 62.2911 55.1538 62.2911 56.6564C62.2911 58.1667 62.8406 58.6141 63.9548 58.6141ZM63.9548 55.4572C64.5668 55.4572 64.752 55.6158 64.752 56.671C64.752 57.6901 64.5668 57.8847 63.9548 57.8847C63.3566 57.8847 63.1706 57.6901 63.1706 56.671C63.1706 55.6167 63.3566 55.4572 63.9548 55.4572ZM68.9408 57.6601C68.6842 57.7705 68.4085 57.8296 68.1291 57.8341C67.5103 57.8341 67.2146 57.6464 67.2146 56.671C67.2146 55.6518 67.5103 55.5078 68.1291 55.5078C68.412 55.5078 68.7206 55.5798 68.9408 55.6664L69.1329 54.901C68.8723 54.7998 68.4043 54.7278 68.0674 54.7278C67.0089 54.7278 66.3343 55.1538 66.3343 56.6564C66.3343 58.1667 67.0011 58.6141 68.0674 58.6141C68.3974 58.6141 68.8586 58.5421 69.1329 58.4264L68.9408 57.661V57.6601ZM71.8431 57.025C71.5625 56.2862 71.2595 55.5562 70.9346 54.8358H69.6908V58.513H70.536V55.8327C70.8454 56.5407 71.2174 57.5744 71.4711 58.297H72.1114C72.366 57.5744 72.7508 56.5621 73.074 55.8327V58.513H73.92V54.8358H72.7303C72.4061 55.5537 72.1102 56.284 71.8431 57.025ZM77.1454 58.513H77.9983V54.8358H77.1454C76.7254 55.6235 76.1957 56.5484 75.7217 57.1758V54.8358H74.8689V58.513H75.7217C76.2493 57.7992 76.7248 57.0484 77.1446 56.2664V58.513H77.1454ZM78.7337 55.7315C78.7337 57.1047 79.1811 57.4004 79.9989 57.4004C80.364 57.4004 80.742 57.271 80.9623 57.1475V58.513H81.8143V54.8358H80.9623V56.2664C80.9623 56.4832 80.6391 56.5921 80.2946 56.5921C79.8274 56.5921 79.5866 56.4395 79.5866 55.6595V54.8358H78.7337V55.7315ZM85.4323 57.7038C85.1117 57.7945 84.7812 57.8454 84.4483 57.8555C83.8363 57.8555 83.5483 57.697 83.5406 56.9092H85.8034C85.8651 55.1247 85.3834 54.7278 84.2768 54.7278C83.2594 54.7278 82.6466 55.1821 82.6466 56.6564C82.6466 58.1667 83.3349 58.6141 84.3454 58.6141C84.7029 58.6141 85.2188 58.5353 85.5694 58.4118L85.4323 57.7038ZM84.3248 55.4358C84.8134 55.4358 84.9917 55.573 85.0191 56.2227H83.5474C83.6031 55.6158 83.7883 55.4358 84.3248 55.4358ZM89.0494 57.661C88.7927 57.771 88.517 57.8298 88.2377 57.8341C87.6189 57.8341 87.3231 57.6464 87.3231 56.671C87.3231 55.6518 87.6189 55.5078 88.2377 55.5078C88.5206 55.5078 88.8291 55.5798 89.0494 55.6664L89.2423 54.901C88.9809 54.7998 88.5137 54.7278 88.176 54.7278C87.1174 54.7278 86.4428 55.1538 86.4428 56.6564C86.4428 58.1667 87.1097 58.6141 88.176 58.6141C88.506 58.6141 88.9671 58.5421 89.2423 58.4264L89.0494 57.661ZM93.1003 58.513C92.364 56.8947 92.0409 56.6641 91.6903 56.5193C91.8763 56.3675 92.3434 55.7898 93.018 54.8358H92.0066C91.4426 55.6235 90.9266 56.2878 90.6523 56.6058V54.8358H89.7994V58.513H90.6514V56.8081C91.0989 56.9093 91.5111 57.2058 92.1026 58.5138H93.1003V58.513ZM96.5117 56.1584C96.5117 55.0595 96.0368 54.727 94.998 54.727C94.4957 54.727 93.9669 54.8212 93.6017 54.9224L93.7603 55.6595C94.0491 55.5507 94.434 55.4932 94.8188 55.4932C95.5474 55.4932 95.6931 55.6381 95.6931 56.281C95.4089 56.2154 95.1183 56.1814 94.8266 56.1798C94.008 56.1798 93.4509 56.3461 93.4509 57.3858C93.4509 58.3467 93.822 58.6141 94.9294 58.6141C95.418 58.6141 96.0711 58.5061 96.5108 58.3252V56.1584H96.5117ZM95.6931 57.805C95.4934 57.8778 95.2389 57.9284 94.9911 57.9284C94.4751 57.9284 94.3449 57.8487 94.3449 57.3498C94.3449 56.8801 94.5163 56.8227 94.998 56.8227C95.2526 56.8227 95.5003 56.8441 95.6923 56.8878V57.805H95.6931ZM99.7157 56.4978H98.7386C98.4574 56.4978 98.3057 56.353 98.3057 56.0204C98.3057 55.6741 98.4506 55.5575 98.7188 55.5575H99.7157V56.4978ZM98.382 56.9238C97.8934 56.9958 97.632 57.241 97.1366 58.513H98.1137C98.5054 57.4004 98.7326 57.2058 99.186 57.2058H99.7157V58.513H100.569V54.8358H98.4917C97.6526 54.8358 97.3843 55.3201 97.3843 55.9124C97.3843 56.4327 97.6328 56.8947 98.382 56.9238Z" fill="white"/>
<path fill-rule="evenodd" clip-rule="evenodd" d="M42.9395 0C33.4664 0 28.7084 3.00686 28.7084 15.4603C28.7084 23.886 30.7929 28.2831 34.9852 30.2863C41.2536 29.3479 47.5483 28.5953 53.8612 28.0294C56.0401 25.5309 57.1278 21.546 57.1278 15.4603C57.1278 3.00686 52.4127 0 42.9395 0ZM42.9395 26.124C36.6241 26.124 34.4229 24.6866 34.4229 15.5486C34.4229 6.40971 36.6241 5.292 42.9395 5.23714C49.2541 5.18143 51.4552 6.66 51.4552 15.5486C51.4552 24.4371 49.2541 26.124 42.9395 26.124ZM67.6595 16.1211V5.33743H76.1049C78.4192 5.33743 80.2107 7.27457 80.2107 10.8831C80.2107 14.4917 78.3335 16.1203 75.9764 16.1203H67.6604L67.6595 16.1211ZM67.6595 27.102V20.9606H77.6915C83.4352 20.9606 85.879 16.56 85.879 10.9277C85.879 5.29543 83.8638 0.411429 77.5629 0.411429H62.0024V27.444C63.8871 27.3151 65.7729 27.2013 67.6595 27.1029V27.102ZM96.1989 0.415714H90.5401V26.6331C92.4275 26.6511 94.3141 26.6846 96.1989 26.7317V0.415714ZM112.445 27.7809L103.046 14.9469L114.759 0.415714H107.901L96.2409 14.8929L105.016 27.2091C107.5 27.3377 109.978 27.6017 112.444 27.7809H112.445ZM124.736 0.415714H119.077V28.3671C120.971 28.5386 122.857 28.7237 124.735 28.9251V0.416571L124.736 0.415714ZM143.542 31.6671L131.694 14.9469L143.296 0.415714H136.438L124.779 14.8929L135.634 30.4114C138.296 30.7971 140.932 31.2163 143.541 31.6671H143.542Z" fill="white"/>
</svg>
