<svg width="50" height="50" viewBox="0 0 50 50" fill="none" xmlns="http://www.w3.org/2000/svg">
<g clip-path="url(#clip0_21_653)">
<path d="M24.8753 23.1372C19.6435 23.1372 15.3833 27.3975 15.3833 32.6292C15.3833 35.508 16.7113 38.2085 19.0197 40.0445V48.9839C19.0197 49.3226 19.1979 49.6345 19.5099 49.8306C19.697 49.9465 19.9109 50.0089 20.1248 50.0089C20.312 50.0089 20.4903 49.9643 20.6685 49.8841L24.8842 47.7183L29.2247 49.893C29.5812 50.0713 29.9644 50.0623 30.2674 49.8752C30.5616 49.6969 30.7398 49.3672 30.7398 49.0106V40.0445C33.0482 38.2085 34.3762 35.5169 34.3762 32.6292C34.3762 27.3975 30.1159 23.1372 24.8753 23.1372ZM32.2193 32.6292C32.2193 36.6755 28.9216 39.9732 24.8753 39.9732C20.8289 39.9732 17.5312 36.6755 17.5312 32.6292C17.5312 28.5115 20.7576 25.2852 24.8753 25.2852C28.9929 25.2852 32.2193 28.5115 32.2193 32.6292ZM21.1676 41.3012C22.3886 41.836 23.6988 42.1212 24.8753 42.1212C26.0517 42.1212 27.3708 41.827 28.5829 41.3012V47.2192L25.3744 45.5525C25.1248 45.4278 24.7505 45.4278 24.3673 45.5525L21.1587 47.2103V41.3012H21.1676Z" fill="#708879"/>
<path d="M48.7433 0H1.13191C0.534759 0 0 0.472371 0 1.01604V35.4189C0 36.0517 0.516934 36.4349 1.01604 36.4349H12.6471C13.2799 36.4349 13.6631 36.0517 13.6631 35.4189C13.6631 34.7504 13.2442 34.287 12.6471 34.287H2.14795V2.14795H47.6114V34.2781H37.1123C36.5686 34.2781 36.0963 34.8128 36.0963 35.41C36.0963 36.0428 36.6132 36.426 37.1123 36.426H48.7433C49.2424 36.426 49.7594 36.0428 49.7594 35.41V1.13191C49.7594 0.463458 49.3405 0 48.7433 0Z" fill="#708879"/>
<path d="M37.5223 9.49199C37.5223 8.94832 36.9875 8.47595 36.3904 8.47595H13.369C12.7629 8.47595 12.2371 8.94832 12.2371 9.49199C12.2371 10.1159 12.7451 10.6239 13.369 10.6239H36.3904C37.0142 10.6328 37.5223 10.1159 37.5223 9.49199Z" fill="#708879"/>
<path d="M16.8805 14.2959C16.3725 14.2959 15.8645 14.795 15.8645 15.3119C15.8645 15.918 16.3369 16.4438 16.8805 16.4438H32.8698C33.467 16.4438 33.8859 15.9804 33.8859 15.3119C33.8859 14.8128 33.5026 14.2959 32.8698 14.2959H16.8805Z" fill="#708879"/>
</g>
<defs>
<clipPath id="clip0_21_653">
<rect width="49.7594" height="50" fill="white"/>
</clipPath>
</defs>
</svg>
