<svg width="40" height="41" viewBox="0 0 40 41" fill="none" xmlns="http://www.w3.org/2000/svg">
<g clip-path="url(#clip0_67_4553)">
<path d="M34 6.92725H30C30 5.82256 29.1047 4.92725 28 4.92725H26V2.92725C26 1.82256 25.1047 0.927246 24 0.927246H16C14.8953 0.927246 14 1.82256 14 2.92725V4.92725H12C10.8953 4.92725 10 5.82256 10 6.92725H6C4.89531 6.92725 4 7.82256 4 8.92725V38.9272C4 40.0319 4.89531 40.9272 6 40.9272H34C35.1047 40.9272 36 40.0319 36 38.9272V8.92725C36 7.82256 35.1047 6.92725 34 6.92725ZM12 6.92725H16V2.92725H24V6.92725H28V8.92725H12V6.92725ZM34 38.9272H6V8.92725H10C10 10.0319 10.8953 10.9272 12 10.9272H28C29.1047 10.9272 30 10.0319 30 8.92725H34V38.9272Z" fill="#E0545F"/>
<path d="M30 14.9272H10V16.9272H30V14.9272Z" fill="#E0545F"/>
<path d="M30 20.9272H10V22.9272H30V20.9272Z" fill="#E0545F"/>
</g>
<defs>
<clipPath id="clip0_67_4553">
<rect width="40" height="40" fill="white" transform="translate(0 0.927246)"/>
</clipPath>
</defs>
</svg>
