<svg width="150" height="65" viewBox="0 0 150 65" fill="none" xmlns="http://www.w3.org/2000/svg">
<path d="M36.5605 0C36.7477 0.46875 37.2157 0.390625 37.5588 0.421875C39.9766 0.625 42.2071 1.46875 44.4221 2.34375C46.2627 3.07812 48.0409 4 49.6475 5.14063C51.9249 6.75 54.1087 8.46875 55.9337 10.6406C57.0099 11.9375 58.055 13.2656 58.9753 14.6719C60.036 16.2813 61.0343 17.9687 61.6738 19.7812C62.329 21.6406 62.8905 23.5313 63.3429 25.4844C63.842 27.6563 63.9668 29.8437 63.9824 32.0156C63.9824 33.4687 64.076 34.9844 63.7172 36.4219C63.2025 38.4844 62.8593 40.5781 62.1106 42.5938C61.5959 44 60.9875 45.3594 60.426 46.7344C59.88 48.0313 59.0533 49.2031 58.2578 50.3906C56.9008 52.4219 55.2005 54.125 53.4535 55.7969C52.1901 57.0156 50.755 58.0469 49.2888 59.0469C48.1657 59.8125 46.9646 60.4688 45.7635 61.0313C44.5001 61.6094 43.1742 62.125 41.8328 62.5625C40.6473 62.9375 39.4306 63.125 38.2451 63.4844C36.9193 63.9062 35.531 63.9219 34.1896 64.0156C31.4287 64.2188 28.6366 64.1562 25.9069 63.5781C24.0818 63.1875 22.288 62.6406 20.5254 61.9844C18.3261 61.1719 16.3139 60.0937 14.3329 58.875C13.163 58.1562 12.0555 57.3125 11.0728 56.375C9.32581 54.7187 7.5476 53.0781 6.17495 51.0625C5.17665 49.6094 4.16276 48.1563 3.39844 46.5938C2.52493 44.7969 1.77621 42.9375 1.24587 40.9688C0.77792 39.2031 0.49715 37.4219 0.138388 35.6562C-0.0331936 34.7969 0.0759948 33.9375 0.0447981 33.0938C-0.0799886 30.1563 0.0291997 27.2187 0.715527 24.3594C1.12108 22.6875 1.68262 21.0469 2.35335 19.4531C3.03968 17.8281 3.7884 16.25 4.7399 14.7812C5.55101 13.5312 6.48691 12.3438 7.40722 11.1719C8.95145 9.1875 10.8856 7.625 12.851 6.09375C14.2393 5 15.7367 4.07813 17.3122 3.3125C18.95 2.51563 20.5878 1.64063 22.366 1.21875C23.7855 0.875 25.1425 0.203125 26.6712 0.3125C26.8739 0.328125 27.0143 0.234375 27.0455 0.015625C30.212 0 33.3941 0 36.5605 0ZM53.6719 34.1406C53.6719 38.2344 53.6719 42.3125 53.6875 46.4062C53.6875 46.9687 53.5159 47.3125 53.0168 47.5938C52.2369 48.0313 51.4101 48.4531 50.6926 48.9531C47.8381 50.9375 44.6561 52.3594 41.8016 54.3437C41.552 54.5156 41.2868 54.5937 40.9904 54.4219C40.2729 54 39.5398 53.6094 38.8535 53.1719C38.2919 52.7969 38.3387 52.5 38.9471 52.1406C39.8206 51.625 40.6941 51.125 41.5676 50.6094C44.2505 49.0312 46.9178 47.4375 49.6163 45.8906C50.3183 45.4844 50.6458 45.0469 50.6302 44.1875C50.599 42.4219 50.6614 40.6562 50.6458 38.8906C50.5522 33.8125 50.6146 28.7344 50.599 23.6562C50.599 22.5156 50.755 21.375 50.599 20.2344C50.5054 19.5469 50.8798 19.1094 51.3945 18.8437C52.7048 18.1719 54.0151 17.4687 55.2941 16.75C55.7465 16.5 56.0896 16.2344 55.8557 15.75C55.5905 15.2031 55.0913 15.4375 54.717 15.6719C53.3443 16.5156 51.8781 17.1719 50.4898 17.9844C49.6943 18.4531 49.3512 18.9531 49.3512 19.8906C49.3824 27.625 49.3668 35.3594 49.398 43.0937C49.398 43.9844 49.1328 44.5313 48.3061 44.9375C47.4794 45.3594 46.6994 45.875 45.8883 46.3438C43.7826 47.5625 41.708 48.8438 39.6178 50.0938C37.4184 51.4063 35.2035 52.7031 33.0197 54.0469C32.5361 54.3437 32.1618 54.4219 31.6938 54.0625C31.3195 53.7813 30.8827 53.6094 30.4616 53.4062C30.1808 53.2656 29.8532 53.1875 29.8532 52.7812C29.8532 52.4219 30.1028 52.2344 30.3836 52.0781C32.1774 51 33.9868 49.9219 35.765 48.8125C38.9627 46.8437 42.1291 44.8281 45.3424 42.9063C46.1379 42.4375 46.3875 41.9219 46.3875 41.0469C46.3563 33.2813 46.3719 25.5312 46.3563 17.7656C46.3563 17.1406 46.5747 16.7344 47.105 16.4531C47.6977 16.1406 48.2749 15.7969 48.8676 15.4531C50.2559 14.6563 51.6597 13.875 53.0168 13.0469C53.5783 12.7031 53.5003 12.25 52.9232 11.9062C52.2836 11.5312 51.8001 12 51.3477 12.25C49.4603 13.2813 47.6197 14.3906 45.7479 15.4531C45.1552 15.7969 44.8588 16.2188 44.8588 16.9375C44.8744 24.8281 44.8744 32.7187 44.89 40.6094C44.89 41.3437 44.5937 41.75 44.0009 42.1094C42.6907 42.8906 41.4116 43.7188 40.1169 44.5312C38.6507 45.4375 37.2157 46.4375 35.687 47.25C33.55 48.375 31.5846 49.7656 29.4945 50.9375C27.6227 51.9844 25.8445 53.1875 24.0195 54.3281C23.8011 54.4531 23.5827 54.5313 23.3487 54.4063C22.7716 54.1094 22.1944 53.7969 21.6329 53.4688C21.1962 53.2188 21.1806 52.8594 21.6173 52.6406C22.1944 52.3437 22.6936 51.8906 23.2551 51.5938C25.4077 50.4531 27.4199 49.0781 29.4789 47.7969C32.0682 46.1719 34.5171 44.3594 37.2001 42.8906C38.2295 42.3281 39.3214 41.7969 40.2105 40.9844C40.4445 40.7812 40.6473 40.4375 40.9125 40.4063C41.8172 40.25 41.8796 39.6406 41.8796 38.9062C41.864 30.9688 41.8796 23.0156 41.8484 15.0781C41.8484 14.3438 42.1291 13.9219 42.7375 13.5781C44.9212 12.375 47.0894 11.1562 49.2576 9.96875C49.8035 9.67187 49.8503 9.32812 49.3824 8.95312C47.7601 7.64062 45.9663 6.625 44.0789 5.75C42.5503 5.04687 40.9593 4.5 39.337 4.04687C37.746 3.59375 36.1082 3.20312 34.4703 3.125C31.9902 3.01563 29.5101 2.98437 27.0299 3.51562C25.5793 3.82812 24.1442 4.15625 22.756 4.625C20.4786 5.39063 18.3105 6.46875 16.2827 7.76563C15.7523 8.09375 15.2532 8.45313 14.7696 8.85938C14.1457 9.375 14.2237 9.76563 14.9724 10.125C15.222 10.25 15.5028 10.3437 15.7523 10.4688C17.6397 11.4688 19.4803 12.5312 21.3989 13.4531C22.288 13.875 22.6156 14.4219 22.6156 15.375C22.6 23.2656 22.6 31.1562 22.6 39.0469C22.6 39.5937 22.7092 39.9687 23.2551 40.3125C24.7526 41.2188 26.3592 41.9219 27.7943 42.9531C28.7146 43.6094 29.7596 44.0938 30.7267 44.7031C31.3039 45.0625 31.2727 45.3906 30.6955 45.75C30.1184 46.0937 29.5257 46.4219 28.9329 46.7344C28.5742 46.9219 28.153 46.9844 27.8254 46.7344C27.0455 46.1563 26.172 45.7813 25.3609 45.2656C23.7543 44.2344 22.0385 43.4063 20.4318 42.3594C19.6831 41.8594 19.2932 41.3906 19.2932 40.5312C19.3088 38.8594 19.2932 37.2031 19.2932 35.5312C19.2932 29.4844 19.2932 23.4531 19.2932 17.4063C19.2932 16.8438 19.2776 16.2344 18.7316 15.9531C17.8269 15.4844 17.125 14.75 16.2359 14.2813C15.4404 13.8594 14.6448 13.4062 13.8493 12.9844C13.1786 12.625 12.5079 12.2812 11.8215 11.9687C11.416 11.7969 11.026 11.9063 10.8233 12.3125C10.6361 12.7031 10.9168 12.9531 11.2132 13.1406C11.4316 13.2812 11.6656 13.3906 11.8995 13.5156C13.7869 14.5312 15.6743 15.5625 17.5617 16.5625C18.0141 16.7969 18.1545 17.1563 18.1545 17.6406C18.1389 19.125 18.1389 20.6094 18.1389 22.0937C18.1389 28.4687 18.1389 34.8594 18.1389 41.2344C18.1389 41.8281 18.2013 42.4063 18.7628 42.75C20.3538 43.7188 21.9761 44.6406 23.5671 45.5937C24.4874 46.1406 25.3921 46.6875 26.2812 47.25C26.562 47.4375 26.9207 47.7188 26.5308 48.0469C25.9069 48.5469 25.2205 48.9844 24.503 49.3437C24.1754 49.5156 23.7543 49.4688 23.3799 49.25C20.8686 47.75 18.3729 46.2344 15.8459 44.7656C15.3 44.4375 15.0036 43.9688 15.0816 43.4375C15.3 42.1406 15.0816 40.8437 15.0972 39.5625C15.1908 32.875 15.144 26.1719 15.144 19.4844C15.144 18.9531 14.9412 18.5781 14.4889 18.3438C12.7263 17.4531 10.9636 16.5781 9.24782 15.6094C8.88906 15.4063 8.38991 15.3125 8.15594 15.7969C7.93756 16.25 8.32752 16.5312 8.67068 16.7188C9.65338 17.2344 10.6985 17.6562 11.6656 18.2031C13.5998 19.2969 13.7557 18.7031 13.7401 21.2031C13.7089 28.8125 13.7245 36.4063 13.7089 44.0156C13.7089 44.6719 13.7557 45.2656 14.4109 45.625C15.144 46.0312 15.8771 46.4063 16.5946 46.8281C18.4196 47.875 20.2135 48.9531 22.0385 50C22.6468 50.3438 22.5376 50.6406 22.0385 50.9688C21.6017 51.25 21.1494 51.5 20.7282 51.7969C20.0887 52.2656 19.4803 52.3125 18.794 51.8906C16.5322 50.5781 14.2549 49.2969 11.9931 47.9844C11.1508 47.5 10.7297 46.8594 10.7453 45.7812C10.8233 41.8437 10.7765 37.9219 10.7765 33.9844C10.7765 30 10.7765 26.0156 10.7921 22.0312C10.7921 21.4531 10.6829 20.9531 10.1057 20.6562C9.09184 20.1406 8.09354 19.5938 7.07965 19.0625C6.42452 18.7187 6.06576 18.8906 5.76939 19.5938C4.7243 22.0938 3.92879 24.6406 3.42964 27.3125C2.96169 29.8594 3.03968 32.4062 3.24246 34.9219C3.44524 37.4219 4.11597 39.8594 5.00507 42.2344C6.12815 45.2031 7.64119 47.9375 9.66898 50.375C11.9151 53.0781 14.5201 55.3281 17.5929 57.0625C19.6363 58.2031 21.7577 59.2031 24.0195 59.7813C25.6573 60.2031 27.3263 60.5625 29.0421 60.7344C31.6938 60.9844 34.3144 60.9375 36.9349 60.5312C39.0875 60.2031 41.162 59.5312 43.1898 58.7344C45.4516 57.8437 47.5418 56.6094 49.398 55.0938C52.2681 52.7656 54.7326 50.0156 56.62 46.7812C57.6495 45 58.601 43.1719 59.2249 41.2187C59.9424 38.9687 60.5508 36.7031 60.66 34.3125C60.7691 31.7344 60.8627 29.1875 60.2232 26.6563C59.9424 25.5313 59.7553 24.3906 59.4277 23.2656C59.0533 22 58.5386 20.7969 58.0238 19.5781C57.9146 19.3125 57.6807 19 57.2907 19.1562C56.4952 19.4687 55.7153 19.7969 55.1225 20.4375C54.9822 20.5938 54.8418 20.7656 54.6078 20.75C53.7811 20.7188 53.6407 21.2188 53.6407 21.9219C53.6719 25.9688 53.6719 30.0469 53.6719 34.1406Z" fill="white"/>
<path d="M37.5428 28.5155C37.5428 29.328 37.5428 30.1249 37.5428 30.9374C37.5428 31.4218 37.3089 31.5624 36.9033 31.3436C34.4544 30.0468 32.0054 28.7499 29.5565 27.453C28.9793 27.1561 28.4178 26.828 27.8407 26.5311C27.4351 26.328 27.1855 26.0311 27.1855 25.5624C27.1699 23.9843 27.1699 22.4061 27.1855 20.828C27.1855 20.2811 27.5599 20.1405 28.0434 20.4061C30.6796 21.8436 33.2845 23.328 35.9674 24.6718C37.1529 25.2655 37.8236 25.953 37.574 27.3436C37.4804 27.7343 37.5428 28.1249 37.5428 28.5155Z" fill="white"/>
<path d="M27.1699 35.0782C27.1699 34.2657 27.1699 33.4688 27.1699 32.6563C27.1543 31.9532 27.4507 31.5 28.1058 31.2032C28.6829 30.9375 29.2133 30.5469 29.7592 30.1875C30.4299 29.75 31.0383 29.7344 31.7714 30.1875C33.0505 30.9688 34.4231 31.6094 35.749 32.3282C36.4041 32.6719 36.4353 33.0469 35.8114 33.4532C33.534 34.8907 31.2411 36.3125 28.9481 37.7344C28.6205 37.9375 28.3554 38.2344 27.9654 38.3594C27.4351 38.5469 27.1543 38.4219 27.1543 37.8282C27.1855 36.8907 27.1699 35.9844 27.1699 35.0782Z" fill="white"/>
<path d="M37.5432 14.6405C37.278 16.078 37.6212 17.578 37.5432 19.078C37.512 19.7812 37.2156 20.2343 36.5917 20.5468C35.9522 20.8749 35.297 21.1874 34.7199 21.6562C34.3611 21.953 33.94 22.0312 33.4876 21.7812C32.0526 20.9687 30.6019 20.1562 29.1669 19.3437C28.9641 19.2343 28.7145 19.1562 28.6989 18.8749C28.6833 18.5624 28.9329 18.453 29.1513 18.3124C31.6782 16.7812 34.2052 15.2499 36.7165 13.7187C36.9037 13.6093 37.0908 13.4999 37.2936 13.6405C37.668 13.8749 37.4964 14.2499 37.5432 14.6405Z" fill="white"/>
<path d="M80.998 55C81.0201 54.4615 81.0421 53.9231 81.0642 53.3654C81.0862 52.2885 81.3949 52 82.6294 52C87.8319 52 93.0565 52 98.2591 52C114.859 52 131.436 52 148.036 52C149.711 52 149.932 52.1923 149.932 53.6538C149.932 54.0962 149.976 54.5385 149.998 54.9808C127.005 55 103.991 55 80.998 55Z" fill="white"/>
<path d="M113.934 29.5684C113.934 35.8458 113.914 42.1009 113.955 48.3783C113.955 49.2909 113.767 49.8697 112.807 49.9588C111.262 50.0923 110.907 49.9588 110.761 48.6899C110.489 46.3749 110.552 44.0375 110.74 41.7002C110.907 39.5855 110.782 37.4708 110.823 35.3561C110.823 35.1335 110.782 34.8663 110.51 34.8886C110.239 34.8886 110.239 35.1557 110.197 35.3783C109.571 39.8526 108.923 44.3269 108.339 48.8235C108.234 49.6694 107.879 49.9588 107.128 49.9588C105.102 49.981 104.998 49.892 104.998 47.755C104.998 35.3561 104.998 22.9794 104.998 10.5805C104.998 9.24486 105.353 9 107.211 9C108.276 9 108.339 9.69007 108.339 10.5582C108.318 14.6318 108.339 18.7277 108.339 22.8013C108.339 23.4023 108.276 24.4041 108.819 24.4041C109.466 24.3818 109.153 23.4246 109.174 22.8904C109.278 20.976 109.55 19.0839 109.779 17.1695C110.03 15.1883 110.239 13.2294 110.427 11.2483C110.594 9.42294 111.032 9.02226 112.723 9C113.684 9 114.018 9.4452 113.997 10.4247C113.976 13.6524 113.976 16.8801 113.976 20.1078C113.934 23.2688 113.934 26.4297 113.934 29.5684Z" fill="white"/>
<path d="M80.998 28.8744C80.998 22.7983 80.998 16.7441 80.998 10.668C80.998 9.15441 81.1369 9.0228 82.711 9.0228C84.9795 9.0228 87.2712 9.04473 89.5397 9.00086C90.5814 8.97893 90.998 9.37377 90.998 10.3609C90.9749 22.6009 90.9749 34.8409 90.998 47.1028C90.998 49.1867 89.4008 49.2306 87.9888 48.748C87.3406 48.5286 87.248 48.0022 87.248 47.4099C87.2712 45.3261 87.248 43.2422 87.248 41.1583C87.248 32.1648 87.248 23.1712 87.248 14.1776C87.248 13.9144 87.2712 13.6512 87.2249 13.4099C87.1092 12.8176 86.7388 12.357 86.0906 12.3789C85.4425 12.3789 85.049 12.8176 84.9564 13.4318C84.9101 13.717 84.9332 14.0241 84.9332 14.3093C84.9332 25.277 84.9332 36.2448 84.9332 47.2125C84.9332 48.9235 84.8638 48.9673 82.8962 48.9673C81.3453 48.9673 80.998 48.6383 80.998 47.1906C81.0212 41.0925 81.0212 34.9725 80.998 28.8744C81.0212 28.8744 81.0212 28.8744 80.998 28.8744Z" fill="white"/>
<path d="M116.02 30.3105C116.02 24.9833 115.978 19.6342 116.041 14.3069C116.062 12.9258 116.02 11.5666 115.999 10.1855C115.978 9.48394 116.359 9.06741 116.91 9.08933C118.691 9.1551 120.493 8.82626 122.274 9.13317C124.394 9.50586 124.712 10.2951 124.86 12.7724C125.114 17.2227 124.924 21.673 124.945 26.1452C124.945 26.496 124.86 26.781 124.648 27.044C124.139 27.6579 124.16 28.3156 124.584 28.9513C124.924 29.4775 124.966 30.0256 124.966 30.6175C124.966 35.2651 125.051 39.8908 124.945 44.5384C124.86 48.2653 123.694 48.616 120.875 48.9449C119.899 49.0545 118.903 48.9668 117.907 48.9668C116.486 48.9668 116.062 48.5722 116.062 47.0814C116.041 45.1084 116.062 43.1353 116.062 41.1623C116.02 37.545 116.02 33.9278 116.02 30.3105ZM121.744 19.1957C121.744 17.4857 121.723 15.7758 121.765 14.0439C121.786 13.0793 121.532 12.5093 120.472 12.5531C119.327 12.597 119.052 12.8162 119.052 14.0439C119.03 17.5734 119.052 21.1249 119.052 24.6545C119.052 25.5095 119.221 26.2987 120.281 26.3425C121.277 26.3864 121.744 25.8602 121.765 24.6764C121.744 22.8349 121.744 21.0153 121.744 19.1957ZM121.553 31.6259C121.553 31.5163 121.553 31.4067 121.553 31.2971C121.574 30.464 121.595 29.6309 120.429 29.6529C119.433 29.6748 119.221 29.9379 119.221 31.3409C119.221 34.9143 119.2 38.4877 119.221 42.0611C119.221 42.8503 119.009 43.6176 119.179 44.4288C119.327 45.1303 119.624 45.4372 120.302 45.4372C120.938 45.4372 121.32 45.2618 121.553 44.5603C121.829 43.7273 121.511 42.9819 121.511 42.1927C121.553 38.6631 121.553 35.1555 121.553 31.6259Z" fill="white"/>
<path d="M143.971 48.9778C142.45 48.9778 140.929 48.9778 139.408 48.9778C138.261 48.9557 137.84 48.5124 138.05 47.4486C138.191 46.7173 138.237 45.8973 139.01 45.4097C139.454 45.1216 139.431 44.634 139.408 44.1908C139.291 41.7972 139.431 39.3593 139.735 37.0323C140.297 32.7771 140.063 28.4998 140.414 24.2667C140.788 19.657 141.186 15.0472 141.28 10.4152C141.303 9.46224 141.607 8.88601 142.801 9.01898C143.69 9.10763 144.603 9.01898 145.492 9.04115C146.428 9.06331 146.943 9.52872 146.943 10.4152C146.966 11.745 146.99 13.0747 146.943 14.4045C146.826 17.5737 146.943 20.7651 147.27 23.89C147.809 28.6992 147.785 33.5085 148.136 38.2956C148.277 40.2015 148.558 42.0853 148.604 44.0135C148.628 44.634 148.815 45.321 149.33 45.72C150.079 46.3183 150.008 47.0719 149.985 47.8476C149.985 48.6232 149.564 49 148.745 49C147.153 48.9778 145.562 48.9778 143.971 48.9778ZM144.579 26.5938C144.579 26.1949 144.579 25.7738 144.579 25.3749C144.579 25.0203 144.673 24.5327 144.181 24.4662C143.62 24.3775 143.69 24.9094 143.596 25.2419C143.128 26.8597 143.362 28.5441 143.245 30.1841C143.011 33.6414 143.175 37.0988 142.941 40.5783C142.871 41.7086 142.824 42.861 142.543 43.9691C142.426 44.4567 142.38 44.9664 142.894 45.2545C143.526 45.6091 144.275 45.5427 144.93 45.3432C145.422 45.1881 145.609 44.7226 145.515 44.2572C145.141 42.4621 145.422 40.6448 145.258 38.8496C144.883 34.7496 145.024 30.6495 144.579 26.5938Z" fill="white"/>
<path d="M128.004 28.8784C128.004 23.5233 127.981 18.1903 128.027 12.8352C128.027 11.596 128.095 10.3346 129.278 9.47161C130.052 8.89627 134.901 8.80775 135.629 9.42736C136.517 10.1797 137.041 11.0427 136.995 12.3041C136.904 15.2251 136.973 18.1239 136.973 21.0449C136.973 29.2989 136.973 37.5307 136.973 45.7847C136.973 47.8869 136.608 48.3295 134.491 48.7942C132.784 49.1482 131.054 49.0597 129.461 48.418C128.14 47.8869 128.049 46.4707 128.049 45.2757C128.004 41.4032 128.027 37.5307 128.027 33.6582C128.004 32.0649 128.004 30.4717 128.004 28.8784ZM131.236 28.9227C131.236 34.0122 131.236 39.1018 131.236 44.1693C131.236 44.9659 131.236 45.8068 132.42 45.7847C133.672 45.7625 134.15 45.2978 134.15 44.125C134.15 34.0344 134.15 23.9216 134.15 13.8309C134.15 12.6581 133.649 12.2156 132.397 12.1934C131.213 12.1713 131.213 12.9458 131.213 13.7646C131.236 18.832 131.236 23.8773 131.236 28.9227Z" fill="white"/>
<path d="M102.974 21.2971C102.974 24.1681 102.974 27.0616 102.974 29.9326C102.974 31.2111 102.737 32.3326 101.458 33.0727C101.031 33.3195 100.676 33.4989 100.178 33.4989C99.2777 33.5213 98.3772 33.5213 97.4767 33.6335C96.5289 33.7681 96.3393 34.1494 96.3393 34.9568C96.363 39.3306 96.363 43.7044 96.363 48.0783C96.363 49.6259 95.1544 50.4109 93.6616 49.7829C93.0928 49.5586 92.998 49.11 92.998 48.5717C93.0217 46.9343 92.998 45.2745 92.998 43.6372C92.998 32.6466 92.998 21.6784 92.998 10.6878C92.998 9.14018 93.1402 8.98318 94.7516 9.00561C96.4815 9.05047 98.2113 8.89346 99.9412 9.16262C101.932 9.47663 102.974 10.4411 102.998 12.3925C102.974 15.3981 102.951 18.3588 102.974 21.2971ZM96.3156 21.3868C96.3156 23.8541 96.3393 26.3214 96.3156 28.7887C96.3156 29.641 96.5999 30.0896 97.5952 30.1344C98.5905 30.1793 99.1118 29.8204 99.1118 28.8784C99.1118 23.8765 99.1355 18.8747 99.0881 13.8729C99.0881 13.2673 99.0881 12.4374 98.0217 12.4374C96.908 12.4598 96.3393 12.9532 96.3156 13.985C96.3156 16.4523 96.3156 18.9196 96.3156 21.3868Z" fill="white"/>
</svg>
