<svg width="134" height="30" viewBox="0 0 134 30" fill="none" xmlns="http://www.w3.org/2000/svg">
<path d="M78.122 26.5333C78.122 26.7833 78.189 26.9166 78.3397 26.9166C78.457 26.9166 78.5575 26.8666 78.6747 26.7999L120.181 1.04993C120.918 0.583268 121.571 0.333268 122.576 0.333268H131.705C133.112 0.333268 134.05 1.23327 134.05 2.58327V19.1999C134.05 21.1999 133.598 22.3666 131.705 23.4499L120.633 29.7833C120.499 29.8833 120.365 29.9166 120.265 29.9166C120.131 29.9166 120.014 29.8333 120.014 29.4666V10.0499C120.014 9.83327 119.947 9.6666 119.779 9.6666C119.662 9.6666 119.578 9.7166 119.461 9.78327L89.11 28.5999C88.2557 29.1333 87.569 29.2833 86.7817 29.2833H66.6482C65.258 29.2833 64.3032 28.3833 64.3032 27.0499V3.09994C64.3032 2.93327 64.2195 2.78327 64.0855 2.78327C63.9682 2.78327 63.8677 2.8166 63.7505 2.88327L43.7342 14.3666C43.5332 14.4833 43.483 14.5999 43.483 14.6833C43.483 14.7666 43.5165 14.8333 43.6672 14.9666L57.955 28.5999C58.1392 28.7833 58.2732 28.9333 58.2732 29.0666C58.2732 29.2166 58.0722 29.2999 57.821 29.2999H44.89C43.885 29.2999 43.0977 29.1499 42.545 28.6333L33.8685 20.3499C33.768 20.2499 33.701 20.2166 33.6172 20.2166C33.5177 20.2253 33.4209 20.2537 33.3325 20.2999L18.8437 28.6333C17.9727 29.1333 17.3697 29.2833 16.4987 29.2833H3.14896C1.74196 29.2833 0.803955 28.3833 0.803955 27.0499V10.7333C0.803955 8.69993 1.25621 7.5666 3.14896 6.48327L14.2877 0.0999349C14.405 0.0332682 14.4887 0.0166016 14.5892 0.0166016C14.74 0.0166016 14.8405 0.183268 14.8405 0.533268V22.3666C14.8405 22.5833 14.9075 22.6999 15.075 22.6999C15.1587 22.6999 15.276 22.6333 15.3932 22.5666L53.0137 0.983268C53.9015 0.466602 54.4542 0.316602 55.4927 0.316602H75.7435C77.1505 0.316602 78.0885 1.2166 78.0885 2.54994L78.122 26.5333Z" fill="white"/>
</svg>
