<svg width="164" height="60" viewBox="0 0 164 60" fill="none" xmlns="http://www.w3.org/2000/svg">
<g clip-path="url(#clip0_21_1378)">
<path fill-rule="evenodd" clip-rule="evenodd" d="M145.156 28.771C144.543 29.3855 142.704 31.0242 143.521 32.0483C144.134 32.8677 146.383 31.4338 147.2 30.4097C148.426 28.9759 149.04 26.7227 149.04 26.7227C149.04 26.7227 146.587 27.542 145.156 28.771ZM132.893 29.3855C131.462 30.6145 130.645 32.0483 131.258 32.6628C132.075 33.2773 133.915 32.0483 134.937 30.8193C136.163 28.9759 136.572 27.3372 136.572 27.3372C136.572 27.3372 135.345 27.7469 132.893 29.3855ZM116.133 18.3246C119.812 16.0714 129.214 6.64918 126.965 4.39603C124.513 3.37187 117.972 13.8183 116.133 18.3246ZM68.51 34.5063C67.0793 36.5546 65.4441 39.832 66.6705 40.6513C67.8968 41.6754 71.1671 38.8078 72.189 37.374C74.2329 34.916 75.6636 31.4338 74.4373 30.8193C72.5978 29.7952 69.5319 33.2773 68.51 34.5063ZM39.2822 39.6271C43.9832 38.1933 51.5456 36.9643 54.2027 36.7595C56.451 33.2773 63.4002 21.3971 53.3851 17.7101L39.2822 39.6271ZM19.252 54.9895C21.5003 57.6523 40.0998 54.7847 52.5676 39.2175C43.7788 40.6513 38.6691 42.4948 36.8296 43.1093C32.7418 49.8687 31.1066 52.1219 29.4715 51.917C27.632 51.7122 30.6979 48.2301 32.333 44.7479C25.3837 46.7962 17.2081 52.3267 19.252 54.9895ZM12.0984 15.2521C23.953 10.9506 37.2383 8.083 50.9325 9.92649L52.1588 7.4685C55.0203 7.05884 57.8817 6.64918 60.7432 6.44434L56.8598 12.1796C60.5388 13.8183 63.6046 17.7101 64.0134 21.8067C64.0134 27.3372 61.5607 31.8435 58.6993 36.145L62.7871 35.7353C65.6485 31.229 73.4153 25.6985 76.4812 29.7952L77.7075 28.3614C77.7075 28.3614 82.6129 27.542 82.8173 27.542C78.3207 35.9401 75.868 38.1933 76.4812 39.0126C77.0944 39.832 85.4743 32.6628 88.5402 26.5179L93.4455 26.1082L90.5841 31.0242C95.6938 26.9275 97.329 24.2647 100.19 25.2889C103.869 26.9275 95.4894 35.9401 96.5114 36.5546C97.329 36.9643 104.074 32.0483 107.344 27.1324L102.643 27.7469L104.278 24.8792L108.775 24.2647C113.68 15.0473 126.761 -2.36343 130.849 0.0945542C134.324 2.55254 125.535 14.0231 113.885 22.4212L113.271 23.6502L123.286 22.6261C123.491 22.6261 123.491 23.0357 123.286 23.2406C120.016 25.9034 113.68 32.6628 117.155 34.916C120.016 35.9401 124.717 28.9759 125.126 27.7469C122.469 26.9275 124.513 19.5536 128.192 20.5777C130.849 21.3971 128.805 24.8792 128.192 26.313C133.097 25.6985 137.389 20.7826 137.389 20.7826C137.389 16.8908 139.842 12.7941 142.704 13.8183C144.543 14.8425 142.908 17.5053 140.046 20.7826C139.638 21.1922 139.842 22.6261 139.638 24.4696C142.908 23.4454 146.587 21.8067 149.653 20.3729C149.857 16.4811 151.697 11.9748 154.763 12.999C157.011 13.6135 154.763 18.3246 151.901 20.5777C151.901 25.4937 152.719 28.9759 151.492 31.4338C150.062 34.5063 144.952 36.9643 141.886 35.3256C138.82 33.4822 141.477 29.3855 143.521 27.9517C145.156 26.5179 149.448 24.4696 149.448 24.4696C149.448 24.4696 149.653 22.8309 149.653 22.0116C148.018 23.0357 139.842 26.1082 139.842 26.1082C139.433 28.9759 139.638 30.2049 138.207 32.8677C136.367 36.3498 130.645 37.5788 128.601 35.7353C127.374 34.5063 127.783 31.229 130.44 28.9759C132.688 27.3372 136.981 25.4937 136.981 25.4937C136.981 25.4937 137.389 23.8551 137.389 23.0357C134.528 25.4937 131.258 27.9517 126.965 28.1565C124.513 33.2773 117.768 40.2416 112.863 36.9643C108.366 34.0967 115.724 26.1082 116.542 25.4937C114.906 25.4937 111.841 26.313 111.841 26.313L103.665 41.4706H103.869C103.869 41.4706 131.666 38.1933 157.215 38.1933L154.149 41.0609C155.58 42.0851 157.011 43.1093 158.646 43.9286C158.646 43.9286 132.075 42.6996 101.621 45.1576L97.1246 53.5557L91.606 53.9654L96.307 45.5672C96.307 45.5672 82.6129 45.9769 52.1588 50.0735C52.5676 49.4591 52.5676 49.4591 52.9764 48.6397C80.1602 43.3141 98.5553 42.0851 98.5553 42.0851L102.643 34.7112C99.7816 36.9643 94.0587 41.8803 91.606 39.4223C89.7665 37.1691 95.8982 30 95.2851 29.5904C94.6719 28.9759 87.3139 36.7595 84.6568 40.8561C83.0217 40.8561 80.1602 41.2658 80.1602 41.2658L82.4085 37.1691C79.9558 39.0126 77.5031 41.0609 74.6417 42.0851C74.0285 42.4948 72.189 42.4948 71.3714 40.4464C71.3714 40.4464 66.0573 45.3624 62.3783 43.5189C60.3344 42.4948 61.152 38.8078 61.5607 37.9885L57.2685 38.3981C38.2603 60.3151 13.7335 62.7731 10.6677 58.062C7.6018 52.9412 18.8432 45.9769 34.1725 41.0609C34.1725 41.0609 47.6622 16.4811 47.4578 16.2763C28.654 13.4086 5.35352 27.9517 5.35352 27.9517L12.0984 15.2521Z" fill="white"/>
</g>
<defs>
<clipPath id="clip0_21_1378">
<rect width="164" height="60" fill="white"/>
</clipPath>
</defs>
</svg>
